M48
;Layer_Color=9474304
;FILE_FORMAT=2:5
INCH,LZ
;TYPE=PLATED
T01F00S00C0.01100
T02F00S00C0.01200
T04F00S00C0.02800
T05F00S00C0.04000
%
T01
X00499Y00153
X00534
X00568
X00742Y00161
X00845Y00156
X01837Y00451
X01838Y00513
X02068Y00517
Y0045
X02362Y00466
X02427Y00468
X02428Y00532
X02363
X02007Y00714
X0143641Y006
X0114Y0047
X01104
X01066
X01024
X01027Y00404
X01067
X01105
X01142
X01141Y00334
X01104
X01066Y00335
X01025
X00584Y0029
X00544
X00506
X00636Y00697
X00688Y0075
X00689Y00792
X0073
X00732Y00748
T02
X00302Y00093
X00365Y00166
X00451Y00143
X00463Y0018993
Y0022392
X00779Y00177
X0081647Y0017285
X01617Y00212
X0266537Y0018099
X0263136Y0026707
Y0030053
Y00334
Y0036746
Y0040093
Y0043439
Y0046785
Y0050132
Y0053478
Y0056825
Y0060171
Y0063518
Y0066864
Y0070211
Y0073557
X0259451Y0073632
X02596Y00813
X02537Y00882
X0249Y00884
X0245453Y0088366
X0243Y00735
X02365
X02295
X0223Y00725
X02198Y00682
X0216173Y0069577
X0226Y0068
X0233
X02395
X0246195Y0068002
X02495Y00735
X025Y00565
Y005
Y00435
X02495Y0032
X0243
X0236329Y0031829
X02295Y0032
X0223
X0216193Y0032035
X02194Y00284
X02261Y00267
X0233Y00265
X02395
X02465
X0253
X02565
X02395Y0039
X0228Y00435
Y005
Y00565
X02395Y00605
X02029Y00524
Y00444
X02043Y0040723
X0208304Y00383
X0196028Y0035323
X01934Y0032623
X0202082Y00284
X01877Y0045729
Y00506
X0188Y00632
X019Y00686
X0194Y00659
X0197186Y007035
X0207341Y00753
X01821Y00747
X0167763Y00604
X0169Y0042356
X0175509Y0039656
X0169022Y00264
X01501Y00338
X0147Y0047706
X01472Y00605
X01556Y00609
X01596Y00613
X01636Y00601
X01665Y008
X01556Y00792
X0131609Y0082209
X0094005Y0084958
X00974Y00892
X00825Y00847
X00767Y00887
X00698Y00891
X00464Y0085
X00466Y00788
Y00754
X00451Y0069531
X0045Y00585
X00554Y00601
X00618Y0054
X00622Y005
X008Y00514
X0080207Y0055493
X00806Y00587
X00926Y00578
X0092026Y00632
X00947Y00653
X0082509Y00708
X0073266Y0064617
X0098Y0047
X00981Y00404
X0098Y00336
X01244Y00385
X0048Y00327
X00452Y00258
X00367Y00246
X00283Y00389
X00315Y00428
X00312Y00588
X00284Y00625
X0036395Y0073014
X00363Y00766
Y00798
X0043Y00795
X00313Y0088991
T04
X00375Y0045
Y005
Y0055
X01375Y005
X01425
T05
X0035Y0005
X0045
X0055
X0065
X0075
X0085
X0095
X0105
X0115
X0125
X0135
X0145
X0155
X0165
X0175
X0185
X0195
X0205
X0215
X0225
X0235
X0245
X0255
X0265
Y0095
X0255
X0245
X0235
X0225
X0215
X0205
X0195
X0185
X0175
X0165
X0155
X0145
X0135
X0125
X0115
X0105
X0095
X0085
X0075
X0065
X0055
X0045
X0035
M30
