G04*
G04 #@! TF.GenerationSoftware,Altium Limited,Altium Designer,24.9.1 (31)*
G04*
G04 Layer_Physical_Order=1*
G04 Layer_Color=255*
%FSLAX44Y44*%
%MOMM*%
G71*
G04*
G04 #@! TF.SameCoordinates,9342EB83-EE33-4B72-AB8E-5D22900AAE0C*
G04*
G04*
G04 #@! TF.FilePolarity,Positive*
G04*
G01*
G75*
G04:AMPARAMS|DCode=16|XSize=0.2425mm|YSize=0.8397mm|CornerRadius=0.1212mm|HoleSize=0mm|Usage=FLASHONLY|Rotation=270.000|XOffset=0mm|YOffset=0mm|HoleType=Round|Shape=RoundedRectangle|*
%AMROUNDEDRECTD16*
21,1,0.2425,0.5972,0,0,270.0*
21,1,0.0000,0.8397,0,0,270.0*
1,1,0.2425,-0.2986,0.0000*
1,1,0.2425,-0.2986,0.0000*
1,1,0.2425,0.2986,0.0000*
1,1,0.2425,0.2986,0.0000*
%
%ADD16ROUNDEDRECTD16*%
G04:AMPARAMS|DCode=17|XSize=0.8397mm|YSize=0.2425mm|CornerRadius=0.1212mm|HoleSize=0mm|Usage=FLASHONLY|Rotation=270.000|XOffset=0mm|YOffset=0mm|HoleType=Round|Shape=RoundedRectangle|*
%AMROUNDEDRECTD17*
21,1,0.8397,0.0000,0,0,270.0*
21,1,0.5972,0.2425,0,0,270.0*
1,1,0.2425,0.0000,-0.2986*
1,1,0.2425,0.0000,0.2986*
1,1,0.2425,0.0000,0.2986*
1,1,0.2425,0.0000,-0.2986*
%
%ADD17ROUNDEDRECTD17*%
%ADD18R,0.2425X0.8397*%
%ADD19R,0.6000X0.4900*%
%ADD20R,0.4900X0.6000*%
G04:AMPARAMS|DCode=21|XSize=0.64mm|YSize=0.72mm|CornerRadius=0.08mm|HoleSize=0mm|Usage=FLASHONLY|Rotation=180.000|XOffset=0mm|YOffset=0mm|HoleType=Round|Shape=RoundedRectangle|*
%AMROUNDEDRECTD21*
21,1,0.6400,0.5600,0,0,180.0*
21,1,0.4800,0.7200,0,0,180.0*
1,1,0.1600,-0.2400,0.2800*
1,1,0.1600,0.2400,0.2800*
1,1,0.1600,0.2400,-0.2800*
1,1,0.1600,-0.2400,-0.2800*
%
%ADD21ROUNDEDRECTD21*%
%ADD22R,0.8000X0.8000*%
%ADD23R,0.4000X0.8000*%
%ADD24R,0.8000X0.4000*%
%ADD25R,1.2000X1.2000*%
%ADD26R,1.1500X0.6000*%
%ADD27R,1.1500X0.3000*%
G04:AMPARAMS|DCode=28|XSize=3.2mm|YSize=1.75mm|CornerRadius=0.0525mm|HoleSize=0mm|Usage=FLASHONLY|Rotation=90.000|XOffset=0mm|YOffset=0mm|HoleType=Round|Shape=RoundedRectangle|*
%AMROUNDEDRECTD28*
21,1,3.2000,1.6450,0,0,90.0*
21,1,3.0950,1.7500,0,0,90.0*
1,1,0.1050,0.8225,1.5475*
1,1,0.1050,0.8225,-1.5475*
1,1,0.1050,-0.8225,-1.5475*
1,1,0.1050,-0.8225,1.5475*
%
%ADD28ROUNDEDRECTD28*%
G04:AMPARAMS|DCode=29|XSize=0.9mm|YSize=1.75mm|CornerRadius=0.0495mm|HoleSize=0mm|Usage=FLASHONLY|Rotation=90.000|XOffset=0mm|YOffset=0mm|HoleType=Round|Shape=RoundedRectangle|*
%AMROUNDEDRECTD29*
21,1,0.9000,1.6510,0,0,90.0*
21,1,0.8010,1.7500,0,0,90.0*
1,1,0.0990,0.8255,0.4005*
1,1,0.0990,0.8255,-0.4005*
1,1,0.0990,-0.8255,-0.4005*
1,1,0.0990,-0.8255,0.4005*
%
%ADD29ROUNDEDRECTD29*%
%ADD30R,1.5500X1.3000*%
G04:AMPARAMS|DCode=31|XSize=0.64mm|YSize=0.72mm|CornerRadius=0.08mm|HoleSize=0mm|Usage=FLASHONLY|Rotation=90.000|XOffset=0mm|YOffset=0mm|HoleType=Round|Shape=RoundedRectangle|*
%AMROUNDEDRECTD31*
21,1,0.6400,0.5600,0,0,90.0*
21,1,0.4800,0.7200,0,0,90.0*
1,1,0.1600,0.2800,0.2400*
1,1,0.1600,0.2800,-0.2400*
1,1,0.1600,-0.2800,-0.2400*
1,1,0.1600,-0.2800,0.2400*
%
%ADD31ROUNDEDRECTD31*%
%ADD32R,0.7000X0.6000*%
G04:AMPARAMS|DCode=33|XSize=1.3571mm|YSize=0.5721mm|CornerRadius=0.2861mm|HoleSize=0mm|Usage=FLASHONLY|Rotation=0.000|XOffset=0mm|YOffset=0mm|HoleType=Round|Shape=RoundedRectangle|*
%AMROUNDEDRECTD33*
21,1,1.3571,0.0000,0,0,0.0*
21,1,0.7850,0.5721,0,0,0.0*
1,1,0.5721,0.3925,0.0000*
1,1,0.5721,-0.3925,0.0000*
1,1,0.5721,-0.3925,0.0000*
1,1,0.5721,0.3925,0.0000*
%
%ADD33ROUNDEDRECTD33*%
%ADD34R,1.3571X0.5721*%
%ADD35R,0.3500X0.6000*%
%ADD36R,0.6000X0.3500*%
%ADD37R,2.0500X2.0500*%
G04:AMPARAMS|DCode=51|XSize=1mm|YSize=2.2mm|CornerRadius=0.5mm|HoleSize=0mm|Usage=FLASHONLY|Rotation=270.000|XOffset=0mm|YOffset=0mm|HoleType=Round|Shape=RoundedRectangle|*
%AMROUNDEDRECTD51*
21,1,1.0000,1.2000,0,0,270.0*
21,1,0.0000,2.2000,0,0,270.0*
1,1,1.0000,-0.6000,0.0000*
1,1,1.0000,-0.6000,0.0000*
1,1,1.0000,0.6000,0.0000*
1,1,1.0000,0.6000,0.0000*
%
%ADD51ROUNDEDRECTD51*%
G04:AMPARAMS|DCode=52|XSize=1mm|YSize=1.8mm|CornerRadius=0.5mm|HoleSize=0mm|Usage=FLASHONLY|Rotation=270.000|XOffset=0mm|YOffset=0mm|HoleType=Round|Shape=RoundedRectangle|*
%AMROUNDEDRECTD52*
21,1,1.0000,0.8000,0,0,270.0*
21,1,0.0000,1.8000,0,0,270.0*
1,1,1.0000,-0.4000,0.0000*
1,1,1.0000,-0.4000,0.0000*
1,1,1.0000,0.4000,0.0000*
1,1,1.0000,0.4000,0.0000*
%
%ADD52ROUNDEDRECTD52*%
%ADD58R,0.4000X0.4000*%
%ADD59C,0.2540*%
%ADD60C,0.3810*%
%ADD61C,0.5080*%
%ADD62C,0.2542*%
%ADD63C,0.6350*%
%ADD64C,0.7620*%
%ADD65C,0.1532*%
%ADD66C,0.3048*%
%ADD67C,0.1582*%
%ADD68C,0.2565*%
%ADD69R,1.0160X1.0160*%
%ADD70C,1.0160*%
%ADD71R,1.0160X1.0160*%
%ADD72C,1.6256*%
%ADD73R,1.6256X1.6256*%
%ADD74C,0.6096*%
%ADD75C,0.5588*%
G36*
X648208Y219323D02*
X647814Y218733D01*
X647555Y217430D01*
Y211830D01*
X645474Y209804D01*
X628067D01*
X626255Y211830D01*
Y217430D01*
X626117Y218125D01*
Y219506D01*
X626615Y219712D01*
X628187Y221284D01*
X629038Y223337D01*
Y225119D01*
X631467Y228342D01*
X631520Y228346D01*
X648208D01*
Y219323D01*
D02*
G37*
G36*
X223012Y218694D02*
Y205607D01*
X222618Y205017D01*
X222359Y203714D01*
Y198114D01*
X221763Y197389D01*
X216684D01*
X215138Y198934D01*
Y201422D01*
X210312Y206248D01*
X206248Y206248D01*
Y216662D01*
X208788Y219456D01*
X222250D01*
X223012Y218694D01*
D02*
G37*
G36*
X152146Y182880D02*
X154686Y180340D01*
X164338D01*
Y174752D01*
X150368Y160782D01*
X143510D01*
Y152146D01*
X146050Y149606D01*
X154178D01*
Y145361D01*
X152330Y143619D01*
X141224Y144272D01*
X139446Y146812D01*
X136652Y149606D01*
Y159258D01*
X133477Y164211D01*
X133197Y171098D01*
X133236Y171157D01*
X133495Y172460D01*
Y178060D01*
X135534Y180149D01*
X137160Y180340D01*
X145034Y187960D01*
X152146D01*
Y182880D01*
D02*
G37*
G36*
X97330Y169276D02*
X108410D01*
X108966Y166966D01*
Y165338D01*
X108802Y165228D01*
X108064Y164123D01*
X107805Y162820D01*
Y157220D01*
X108064Y155917D01*
X108802Y154812D01*
X108966Y154702D01*
Y150315D01*
X108712Y149701D01*
Y147479D01*
X108966Y146865D01*
Y134112D01*
X102877D01*
X102337Y134473D01*
X101346Y134670D01*
X89154D01*
X87071Y136274D01*
X86868Y136608D01*
Y150837D01*
X87297Y151480D01*
X87642Y153214D01*
X87642Y153214D01*
Y160020D01*
X87400Y161237D01*
Y165560D01*
X86868D01*
Y170867D01*
X97330D01*
Y169276D01*
D02*
G37*
G36*
X97192Y118987D02*
X97317Y118915D01*
X97479Y118860D01*
X97621Y118765D01*
X97953Y118699D01*
X98191Y118618D01*
X110236Y106573D01*
Y99298D01*
X110072Y99188D01*
X109334Y98083D01*
X109075Y96780D01*
Y91180D01*
X109334Y89877D01*
X110072Y88772D01*
X110236Y88662D01*
Y84328D01*
X88138D01*
X88087Y87849D01*
X88670Y88440D01*
X88670D01*
Y99520D01*
X88524D01*
Y103517D01*
X88208Y105103D01*
X87831Y105667D01*
X87676Y116438D01*
X88294Y117198D01*
X90186Y118568D01*
X91888D01*
X92056Y118602D01*
X92226Y118590D01*
X92547Y118699D01*
X92879Y118765D01*
X93021Y118860D01*
X93183Y118915D01*
X93308Y118987D01*
X94588Y119330D01*
X95912D01*
X97192Y118987D01*
D02*
G37*
G36*
X640581Y155172D02*
X640343Y94633D01*
X640080Y92202D01*
X576094D01*
X574301Y94002D01*
X574548Y156972D01*
X638788D01*
X640581Y155172D01*
D02*
G37*
G36*
X131318Y102108D02*
X177800D01*
Y90897D01*
X151012Y90752D01*
X150153Y91326D01*
X148850Y91585D01*
X143250D01*
X141947Y91326D01*
X141008Y90699D01*
X129833Y90639D01*
X99314Y121158D01*
X98612D01*
X98191Y121401D01*
X96253Y121920D01*
X94247D01*
X92309Y121401D01*
X91888Y121158D01*
X89408D01*
X89154Y121412D01*
Y132080D01*
X101346D01*
X131318Y102108D01*
D02*
G37*
G36*
X296926Y127475D02*
Y40132D01*
X227076D01*
X208788Y58420D01*
X176310D01*
X176006Y58621D01*
X175587Y58899D01*
X175584Y58900D01*
X175581Y58902D01*
X175089Y58997D01*
X174596Y59093D01*
X174592Y59093D01*
X174589Y59093D01*
X150719Y58970D01*
X150475Y58921D01*
X150227D01*
X149985Y58821D01*
X149729Y58768D01*
X149523Y58629D01*
X149293Y58534D01*
X149228Y58490D01*
X148850Y58565D01*
X143250D01*
X142870Y58490D01*
X142637Y58586D01*
X142418Y58731D01*
X142174Y58778D01*
X141945Y58873D01*
X141683D01*
X141426Y58923D01*
X136640Y58898D01*
X136397Y58848D01*
X136148D01*
X135907Y58748D01*
X135650Y58696D01*
X135444Y58556D01*
X135276Y58487D01*
X134880Y58565D01*
X129280D01*
X128549Y58420D01*
X125476D01*
Y86868D01*
X127254Y88646D01*
X128242D01*
X128428Y88523D01*
X128842Y88246D01*
X128849Y88245D01*
X128855Y88241D01*
X129345Y88146D01*
X129833Y88049D01*
X129840Y88050D01*
X129847Y88049D01*
X141022Y88109D01*
X141265Y88159D01*
X141513D01*
X141755Y88259D01*
X142012Y88311D01*
X142217Y88450D01*
X142446Y88545D01*
X142597Y88646D01*
X149503D01*
X149573Y88599D01*
X149815Y88499D01*
X150034Y88355D01*
X150277Y88307D01*
X150507Y88212D01*
X150768D01*
X151026Y88163D01*
X177814Y88307D01*
X178304Y88407D01*
X178791Y88504D01*
X178797Y88508D01*
X178804Y88509D01*
X179006Y88646D01*
X208788D01*
Y88900D01*
X248365Y128477D01*
X295115Y129256D01*
X296926Y127475D01*
D02*
G37*
G36*
X176403Y54712D02*
Y44323D01*
X155067D01*
X143962Y33218D01*
X124304Y35252D01*
X122865Y37345D01*
X127127Y53183D01*
Y53739D01*
X129280Y55735D01*
X134880D01*
X136183Y55994D01*
X136654Y56308D01*
X141440Y56333D01*
X141947Y55994D01*
X143250Y55735D01*
X148850D01*
X150153Y55994D01*
X150732Y56381D01*
X174602Y56504D01*
X176403Y54712D01*
D02*
G37*
D16*
X199495Y205580D02*
D03*
Y200580D02*
D03*
Y195580D02*
D03*
Y190580D02*
D03*
Y185580D02*
D03*
X161185D02*
D03*
Y190580D02*
D03*
Y195580D02*
D03*
Y200580D02*
D03*
Y205580D02*
D03*
D17*
X190340Y176425D02*
D03*
X185340D02*
D03*
X180340D02*
D03*
X175340D02*
D03*
X170340D02*
D03*
Y214735D02*
D03*
X175340D02*
D03*
X180340D02*
D03*
X185340D02*
D03*
D18*
X190340D02*
D03*
D19*
X102870Y183366D02*
D03*
Y174266D02*
D03*
X151130Y146580D02*
D03*
Y155680D02*
D03*
X453390Y207750D02*
D03*
Y198650D02*
D03*
X104140Y33550D02*
D03*
Y42650D02*
D03*
Y70590D02*
D03*
Y61490D02*
D03*
X452374Y59204D02*
D03*
Y68304D02*
D03*
X247650Y205000D02*
D03*
Y214100D02*
D03*
X251460Y168888D02*
D03*
Y159788D02*
D03*
X103378Y219180D02*
D03*
Y210080D02*
D03*
X421640Y72920D02*
D03*
Y82020D02*
D03*
D20*
X497310Y133096D02*
D03*
X488210D02*
D03*
X497354D02*
D03*
X506454D02*
D03*
X497354Y112776D02*
D03*
X506454D02*
D03*
X127530Y189230D02*
D03*
X136630D02*
D03*
X127530Y201930D02*
D03*
X136630D02*
D03*
X228070Y215138D02*
D03*
X218970D02*
D03*
X228070Y156210D02*
D03*
X218970D02*
D03*
Y168910D02*
D03*
X228070D02*
D03*
X218970Y143510D02*
D03*
X228070D02*
D03*
X500656Y212090D02*
D03*
X509756D02*
D03*
X545570Y36830D02*
D03*
X536470D02*
D03*
X521440D02*
D03*
X512340D02*
D03*
X195050Y128270D02*
D03*
X185950D02*
D03*
X177060D02*
D03*
X186160D02*
D03*
X488254Y112776D02*
D03*
X497354D02*
D03*
X500910Y199898D02*
D03*
X510010D02*
D03*
D21*
X114880Y93980D02*
D03*
X106100D02*
D03*
X629230Y214630D02*
D03*
X620450D02*
D03*
X136470Y215900D02*
D03*
X127690D02*
D03*
X219384Y200914D02*
D03*
X228164D02*
D03*
X136470Y175260D02*
D03*
X127690D02*
D03*
X184840Y140970D02*
D03*
X193620D02*
D03*
X673680Y35306D02*
D03*
X664900D02*
D03*
X667440Y214630D02*
D03*
X676220D02*
D03*
X644580D02*
D03*
X653360D02*
D03*
X104830Y160020D02*
D03*
X113610D02*
D03*
X184840Y154940D02*
D03*
X193620D02*
D03*
D22*
X678340Y197000D02*
D03*
X538340D02*
D03*
X678340Y57000D02*
D03*
X538340D02*
D03*
D23*
X667840Y197000D02*
D03*
X659340D02*
D03*
X650840D02*
D03*
X642340D02*
D03*
X633840D02*
D03*
X625340D02*
D03*
X616840D02*
D03*
X608340D02*
D03*
X599840D02*
D03*
X591340D02*
D03*
X582840D02*
D03*
X574340D02*
D03*
X565840D02*
D03*
X557340D02*
D03*
X548840D02*
D03*
Y57000D02*
D03*
X557340D02*
D03*
X565840D02*
D03*
X574340D02*
D03*
X582840D02*
D03*
X591340D02*
D03*
X599840D02*
D03*
X608340D02*
D03*
X616840D02*
D03*
X625340D02*
D03*
X633840D02*
D03*
X642340D02*
D03*
X650840D02*
D03*
X659340D02*
D03*
X667840D02*
D03*
D24*
X538340Y186500D02*
D03*
Y178000D02*
D03*
Y169500D02*
D03*
Y161000D02*
D03*
Y152500D02*
D03*
Y144000D02*
D03*
Y135500D02*
D03*
Y127000D02*
D03*
Y118500D02*
D03*
Y110000D02*
D03*
Y101500D02*
D03*
Y93000D02*
D03*
Y84500D02*
D03*
Y76000D02*
D03*
Y67500D02*
D03*
X678340D02*
D03*
Y76000D02*
D03*
Y84500D02*
D03*
Y93000D02*
D03*
Y101500D02*
D03*
Y110000D02*
D03*
Y118500D02*
D03*
Y127000D02*
D03*
Y135500D02*
D03*
Y144000D02*
D03*
Y152500D02*
D03*
Y161000D02*
D03*
Y169500D02*
D03*
Y178000D02*
D03*
Y186500D02*
D03*
D25*
X608340Y127000D02*
D03*
X624840D02*
D03*
Y110500D02*
D03*
X608340D02*
D03*
X591840D02*
D03*
Y127000D02*
D03*
Y143500D02*
D03*
X608340D02*
D03*
D26*
X62900Y166100D02*
D03*
Y230100D02*
D03*
Y222100D02*
D03*
Y174100D02*
D03*
Y31900D02*
D03*
Y79900D02*
D03*
Y87900D02*
D03*
Y23900D02*
D03*
D27*
Y180600D02*
D03*
Y185600D02*
D03*
Y190600D02*
D03*
Y195600D02*
D03*
Y200600D02*
D03*
Y205600D02*
D03*
Y210600D02*
D03*
Y215600D02*
D03*
Y73400D02*
D03*
Y68400D02*
D03*
Y63400D02*
D03*
Y58400D02*
D03*
Y53400D02*
D03*
Y48400D02*
D03*
Y43400D02*
D03*
Y38400D02*
D03*
D28*
X229370Y73660D02*
D03*
D29*
X166870Y50660D02*
D03*
Y73660D02*
D03*
Y96660D02*
D03*
D30*
X315850Y86000D02*
D03*
X395350D02*
D03*
X315850Y41000D02*
D03*
X395350D02*
D03*
X315850Y213000D02*
D03*
X395350D02*
D03*
X315850Y168000D02*
D03*
X395350D02*
D03*
D31*
X421640Y59000D02*
D03*
Y50220D02*
D03*
X146050Y94560D02*
D03*
Y85780D02*
D03*
Y52760D02*
D03*
Y61540D02*
D03*
X132080Y52760D02*
D03*
Y61540D02*
D03*
X165100Y155520D02*
D03*
Y146740D02*
D03*
X421640Y170760D02*
D03*
Y161980D02*
D03*
D32*
X439420Y198450D02*
D03*
Y207950D02*
D03*
X438404Y69266D02*
D03*
Y59766D02*
D03*
D33*
X286366Y205740D02*
D03*
X267355Y196240D02*
D03*
X286366Y168910D02*
D03*
X267355Y159410D02*
D03*
D34*
Y215240D02*
D03*
Y178410D02*
D03*
D35*
X90880Y93980D02*
D03*
X84380D02*
D03*
X89610Y160020D02*
D03*
X83110D02*
D03*
D36*
X82692Y58128D02*
D03*
Y64628D02*
D03*
X82804Y46990D02*
D03*
Y40490D02*
D03*
X84074Y205792D02*
D03*
Y212292D02*
D03*
X84328Y190448D02*
D03*
Y183948D02*
D03*
D37*
X180340Y195580D02*
D03*
D51*
X17150Y241300D02*
D03*
Y154900D02*
D03*
Y12700D02*
D03*
Y99100D02*
D03*
D52*
X57150Y241300D02*
D03*
Y154900D02*
D03*
Y12700D02*
D03*
Y99100D02*
D03*
D58*
X624840Y143500D02*
D03*
D59*
X373888Y153670D02*
X384302D01*
X422402Y115570D01*
X505807Y173736D02*
X519176D01*
X500853Y178690D02*
X505807Y173736D01*
X519176D02*
X531940Y186500D01*
X538340D01*
X537610Y177270D02*
X538340Y178000D01*
X532870Y177270D02*
X537610D01*
X501189Y168656D02*
X524256D01*
X532870Y177270D01*
X485512Y172295D02*
X487970D01*
X483562Y174244D02*
X485512Y172295D01*
X482600Y174244D02*
X483562D01*
X489919D02*
X495601D01*
X501189Y168656D01*
X487970Y172295D02*
X489919Y174244D01*
X537610Y168770D02*
X538340Y169500D01*
X497532Y163576D02*
X529336D01*
X534530Y168770D02*
X537610D01*
X529336Y163576D02*
X534530Y168770D01*
X493722Y167386D02*
X497532Y163576D01*
X480514Y158496D02*
X534122D01*
X478482Y160528D02*
X480514Y158496D01*
X477520Y160528D02*
X478482D01*
X536340Y161000D02*
X538340D01*
X535610Y159984D02*
Y160270D01*
X536340Y161000D01*
X534122Y158496D02*
X535610Y159984D01*
X492760Y167386D02*
X493722D01*
X365459Y152400D02*
X371047Y146812D01*
X364848Y152400D02*
X365459D01*
X445564Y64276D02*
Y64494D01*
X442522Y67536D02*
X445564Y64494D01*
X445714Y61278D02*
Y64126D01*
X440134Y67536D02*
X442522D01*
X445564Y64276D02*
X445714Y64126D01*
X447202Y59790D02*
X451788D01*
X445714Y61278D02*
X447202Y59790D01*
X451788D02*
X452374Y59204D01*
X438404Y69266D02*
X440134Y67536D01*
X435563Y100725D02*
X438404Y97885D01*
Y97885D02*
Y97885D01*
X426419Y100725D02*
X435563D01*
X438404Y97885D02*
X442421Y93867D01*
X445793Y100725D02*
X465477D01*
X469138Y97064D01*
X432167Y95645D02*
X440690Y87122D01*
X453690D01*
X503983Y36830D01*
X455303Y93867D02*
X504466Y44704D01*
X442421Y93867D02*
X455303D01*
X504466Y44704D02*
X529146D01*
X373380Y80772D02*
Y121173D01*
Y80772D02*
X381232Y72920D01*
X451340Y59204D02*
X454292D01*
X503983Y36830D02*
X512340D01*
X417322Y102639D02*
Y110490D01*
X381000Y146812D02*
X417322Y110490D01*
Y102639D02*
X424315Y95645D01*
X432167D01*
X371047Y146812D02*
X381000D01*
X422402Y104743D02*
Y115570D01*
Y104743D02*
X426419Y100725D01*
X467219Y107583D02*
X478223Y96579D01*
X429260Y107583D02*
X467219D01*
X205331Y195580D02*
X206248Y194663D01*
X217678Y183233D01*
X199495Y195580D02*
X205331D01*
X82885Y174752D02*
X102799D01*
X77037Y180600D02*
X82885Y174752D01*
X62900Y180600D02*
X77037D01*
X71882Y212090D02*
X78972Y219180D01*
X62900Y210600D02*
X62933Y210633D01*
X70425D02*
X71882Y212090D01*
X78972Y219180D02*
X103378D01*
X62933Y210633D02*
X70425D01*
X478223Y96579D02*
X520096D01*
X469138Y87216D02*
Y97064D01*
X381232Y72920D02*
X421640D01*
X71882Y37338D02*
X76152Y33068D01*
X62900Y38400D02*
X70820D01*
X71882Y37338D01*
X76152Y33068D02*
X103658D01*
X524059Y107612D02*
X527923D01*
X518922Y103437D02*
X519884D01*
X524059Y107612D01*
X530312Y110000D02*
X538340D01*
X527923Y107612D02*
X530312Y110000D01*
X529092Y97282D02*
X529772Y97962D01*
X530882D02*
X533689Y100770D01*
X529772Y97962D02*
X530882D01*
X533689Y100770D02*
X537610D01*
X503336Y90424D02*
X519067D01*
X503313Y90402D02*
X503336Y90424D01*
X497910Y89721D02*
X498591Y90402D01*
X503313D01*
X491236Y82863D02*
X502959D01*
X505440Y85344D01*
X520096Y96579D02*
X521171Y95504D01*
X526251Y90424D02*
X534122D01*
X521171Y95504D02*
X521171D01*
X526251Y90424D01*
X537610Y100770D02*
X538340Y101500D01*
X534122Y90424D02*
X535610Y91912D01*
X536340Y93000D02*
X538340D01*
X535610Y91912D02*
Y92270D01*
X536340Y93000D01*
X526628Y82863D02*
X534703D01*
X536340Y84500D02*
X538340D01*
X534703Y82863D02*
X536340Y84500D01*
X519067Y90424D02*
X526628Y82863D01*
X482938Y73416D02*
X504868D01*
X469138Y87216D02*
X482938Y73416D01*
X505440Y85344D02*
X516963D01*
X520145Y74904D02*
Y74977D01*
Y74904D02*
X521633Y73416D01*
X510447Y78994D02*
X516128D01*
X504868Y73416D02*
X510447Y78994D01*
X516128D02*
X520145Y74977D01*
X516963Y85344D02*
X526307Y76000D01*
X480737Y141478D02*
X480869Y141610D01*
X529342D02*
X534722Y136230D01*
X416234Y144780D02*
X419536Y141478D01*
X480737D01*
X480869Y141610D02*
X529342D01*
X534722Y136230D02*
X537610D01*
X405130Y144780D02*
X416234D01*
X395224Y154686D02*
X405130Y144780D01*
X421640Y146558D02*
X478633D01*
X478765Y146690D01*
X534122D02*
X535610Y145202D01*
X415544Y152654D02*
X421640Y146558D01*
X478765Y146690D02*
X534122D01*
X537610Y153230D02*
X538340Y152500D01*
X534308Y153230D02*
X537610D01*
X534122Y153416D02*
X534308Y153230D01*
X426117Y153416D02*
X534122D01*
X535610Y144730D02*
X536340Y144000D01*
X538340D01*
X535610Y144730D02*
Y145202D01*
X537610Y136230D02*
X538340Y135500D01*
X103658Y33068D02*
X104140Y33550D01*
X103876Y70854D02*
X104140Y70590D01*
X98818Y70854D02*
X103876D01*
X96122Y73550D02*
X98818Y70854D01*
X80264Y73550D02*
X96122D01*
X62900Y68400D02*
X75114D01*
X80264Y73550D01*
X395350Y41000D02*
Y54736D01*
X401320Y60706D01*
X413559D01*
X415265Y59000D02*
X421640D01*
X413559Y60706D02*
X415265Y59000D01*
X421640D02*
Y72920D01*
X317100Y41000D02*
X395350D01*
X315850D02*
X317100D01*
X322330Y47480D02*
X331216Y56366D01*
Y127798D01*
X329728Y129286D02*
X331216Y127798D01*
X307555Y129286D02*
X329728D01*
X317100Y41000D02*
X322330Y46230D01*
Y47480D01*
X286366Y150476D02*
X307555Y129286D01*
X286366Y150476D02*
Y168910D01*
X484886Y199898D02*
X500910D01*
X455748Y170760D02*
X484886Y199898D01*
X421640Y170760D02*
X455748D01*
X409190Y168000D02*
X411950Y170760D01*
X421640D01*
X395350Y168000D02*
X409190D01*
X251460Y159788D02*
X252640Y160968D01*
X255554D01*
X267355Y172769D01*
Y178410D01*
X315850Y168000D02*
X395350D01*
X286366Y187344D02*
Y205740D01*
X305710Y168000D02*
X315850D01*
X286366Y187344D02*
X305710Y168000D01*
X205486Y200602D02*
X207976D01*
X215074Y193504D01*
X232473D01*
X199495Y200580D02*
X205464D01*
X205486Y200602D01*
X205486D01*
X236565Y183233D02*
X250910Y168888D01*
X217678Y183233D02*
X236565D01*
X232473Y193504D02*
X232517Y193548D01*
X241046D01*
X247650Y200152D01*
X256692Y196240D02*
X267355D01*
X251460Y191008D02*
X256692Y196240D01*
X251460Y168888D02*
Y191008D01*
X250910Y168888D02*
X251460D01*
X209411Y179994D02*
X209573Y179832D01*
X203147Y190580D02*
X205486Y188241D01*
X209411Y184316D01*
Y179994D02*
Y184316D01*
X199495Y190580D02*
X203147D01*
X268572Y164593D02*
X277950Y173971D01*
X268572Y160627D02*
Y164593D01*
X267355Y159410D02*
X268572Y160627D01*
X279908Y176022D02*
Y197045D01*
X277950Y174064D02*
X279908Y176022D01*
X277950Y173971D02*
Y174064D01*
X271953Y205000D02*
X279908Y197045D01*
X247650Y205000D02*
X271953D01*
X247650Y200152D02*
Y205000D01*
X266784Y214670D02*
X267355Y215240D01*
X247650Y214100D02*
X248220Y214670D01*
X266784D01*
X509756Y212090D02*
X509883Y211963D01*
Y200025D02*
Y211963D01*
Y200025D02*
X510010Y199898D01*
X642112Y197228D02*
X642340Y197000D01*
X642112Y197228D02*
Y202946D01*
X640248Y204810D02*
X642112Y202946D01*
X614680Y204810D02*
X640248D01*
X607400Y212090D02*
X614680Y204810D01*
X509756Y212090D02*
X607400D01*
X502144Y219098D02*
X600098D01*
X622300Y241300D01*
X500656Y217610D02*
X502144Y219098D01*
X500656Y212090D02*
Y217610D01*
X150462Y185580D02*
X161185D01*
X150368Y185674D02*
X150462Y185580D01*
X169625Y167894D02*
X170340Y168609D01*
X165100Y163369D02*
X169625Y167894D01*
X165100Y155520D02*
Y163369D01*
X170340Y168609D02*
Y176425D01*
X165020Y155600D02*
X165100Y155520D01*
X151210Y155600D02*
X165020D01*
X151130Y155680D02*
X151210Y155600D01*
X175340Y167894D02*
Y176425D01*
X190340Y169382D02*
X191828Y167894D01*
X201168D01*
X190340Y169382D02*
Y176425D01*
X201168Y167894D02*
X211582Y157480D01*
Y144998D02*
Y157480D01*
Y144998D02*
X213070Y143510D01*
X218970D01*
Y156210D02*
Y168910D01*
X208280D02*
X218970D01*
X199495Y177695D02*
X208280Y168910D01*
X199495Y177695D02*
Y185580D01*
X545835Y12965D02*
Y36565D01*
X545570Y36830D02*
X545835Y36565D01*
Y12965D02*
X546100Y12700D01*
X521070Y13070D02*
Y36460D01*
X520700Y12700D02*
X521070Y13070D01*
Y36460D02*
X521440Y36830D01*
X529146Y44704D02*
X536470Y37380D01*
Y36830D02*
Y37380D01*
X190340Y214735D02*
Y220760D01*
X194818Y225238D01*
Y225298D01*
X209550Y215138D02*
X218970D01*
X557435Y196705D02*
X557816Y196324D01*
Y173704D02*
X558292Y173228D01*
X557816Y173704D02*
Y196324D01*
X554378Y224178D02*
X571500Y241300D01*
X456148Y224178D02*
X554378D01*
X439920Y207950D02*
X456148Y224178D01*
X439420Y207950D02*
X439920D01*
X448218Y207164D02*
X452804D01*
X439420Y198450D02*
X439920D01*
X444498Y201140D02*
X446730Y203372D01*
X439920Y198450D02*
X442610Y201140D01*
X446730Y203372D02*
Y205676D01*
X448218Y207164D01*
X442610Y201140D02*
X444498D01*
X452804Y207164D02*
X453390Y207750D01*
X427859Y207950D02*
X439420D01*
X423109Y203200D02*
X427859Y207950D01*
X422910Y203200D02*
X423109D01*
X548740Y177065D02*
X549079Y176726D01*
X548740Y177065D02*
Y196900D01*
X548840Y197000D01*
X521633Y73416D02*
X521706D01*
X527622Y67500D01*
X538340D01*
X526307Y76000D02*
X538340D01*
X574294Y67818D02*
X574340Y67772D01*
Y57000D02*
Y67772D01*
X557276Y57064D02*
Y72136D01*
Y57064D02*
X557340Y57000D01*
X566130Y56910D02*
Y80990D01*
X582885Y56965D02*
Y81235D01*
X617030Y56820D02*
Y81090D01*
X616505Y31242D02*
X650306D01*
X597963Y12700D02*
X616505Y31242D01*
X596900Y12700D02*
X597963D01*
X651794Y32730D02*
Y43033D01*
X650306Y31242D02*
X651794Y32730D01*
Y43033D02*
X659340Y50579D01*
Y57000D01*
X662476Y44494D02*
X666352D01*
X657890Y39908D02*
Y40016D01*
X656874Y29956D02*
Y38892D01*
X657890Y39908D01*
X660698Y42716D02*
X662476Y44494D01*
X657890Y40016D02*
X660590Y42716D01*
X660698D01*
X666352Y44494D02*
X667840Y45982D01*
X635762Y26162D02*
X653080D01*
X622300Y12700D02*
X635762Y26162D01*
X653080D02*
X656874Y29956D01*
X667840Y45982D02*
Y57000D01*
X659340Y187360D02*
Y197000D01*
X566130Y184440D02*
X566420Y184150D01*
X566130Y184440D02*
Y196710D01*
X574190Y172870D02*
Y197140D01*
X591145Y197185D02*
X591580Y196750D01*
X651175Y57335D02*
Y66975D01*
X651510Y67310D01*
X650840Y57000D02*
X651175Y57335D01*
X642340Y57000D02*
X642480Y57140D01*
Y67170D02*
X642620Y67310D01*
X642480Y57140D02*
Y67170D01*
X625725Y66925D02*
X626110Y67310D01*
X625340Y57000D02*
X625725Y57385D01*
Y66925D01*
X608330Y67310D02*
X608335Y67305D01*
Y57005D02*
X608340Y57000D01*
X608335Y57005D02*
Y67305D01*
X591340Y57000D02*
X591580Y57240D01*
Y67070D01*
X591820Y67310D01*
X565840Y197000D02*
X566130Y196710D01*
X582885Y186735D02*
Y196955D01*
X582840Y197000D02*
X582885Y196955D01*
Y186735D02*
X582930Y186690D01*
X599840Y197000D02*
X600275Y196565D01*
Y187125D02*
Y196565D01*
Y187125D02*
X600710Y186690D01*
X617030Y186880D02*
X617220Y186690D01*
X617030Y186880D02*
Y196810D01*
X633785Y186745D02*
Y196945D01*
X633730Y186690D02*
X633785Y186745D01*
X625340Y172730D02*
Y197000D01*
X548840Y57000D02*
Y81080D01*
X633730Y57120D02*
X633785Y57175D01*
X633730Y81280D02*
X633785Y81225D01*
Y57175D02*
Y81225D01*
X617030Y81090D02*
X617220Y81280D01*
X600275Y57055D02*
Y80845D01*
X566035Y56815D02*
X566130Y56910D01*
Y80990D02*
X566420Y81280D01*
X600035Y56815D02*
X600275Y57055D01*
X582885Y81235D02*
X582930Y81280D01*
X608335Y172725D02*
Y196995D01*
X608330Y172720D02*
X608335Y172725D01*
X591580Y172960D02*
Y196750D01*
Y172960D02*
X591820Y172720D01*
X574145Y197185D02*
X574190Y197140D01*
X574040Y172720D02*
X574190Y172870D01*
X608335Y196995D02*
X608340Y197000D01*
X616840D02*
X617030Y196810D01*
X633785Y196945D02*
X633840Y197000D01*
D60*
X381254Y85852D02*
X395202D01*
X395350Y86000D01*
X199942Y129365D02*
X201390D01*
X195595D02*
X199942D01*
X235054Y136065D02*
X243332Y144343D01*
X220901Y136065D02*
X235054D01*
X203962Y119126D02*
X220901Y136065D01*
X153162Y119126D02*
X203962D01*
X195050Y128270D02*
Y128820D01*
X195595Y129365D01*
X201390D02*
X202581Y130556D01*
X203200D01*
X243332Y144343D02*
Y162487D01*
X228070Y143510D02*
Y144060D01*
X228615Y144605D01*
X230203D01*
X231973Y146375D02*
X234767D01*
X230203Y144605D02*
X231973Y146375D01*
X234767D02*
X235204Y146812D01*
X231401Y160091D02*
X233309D01*
X233746Y160528D01*
X228070Y155660D02*
Y156760D01*
X231401Y160091D01*
X240538Y165281D02*
Y165862D01*
Y165281D02*
X243332Y162487D01*
X219177Y201121D02*
X219384Y200914D01*
X219177Y201121D02*
Y201521D01*
X208026Y208534D02*
X212164D01*
X219177Y201521D01*
X632460Y218260D02*
Y224536D01*
X629230Y215030D02*
X632460Y218260D01*
X629230Y214630D02*
Y215030D01*
X71882Y230112D02*
X74809D01*
X78883Y226038D01*
X79502D01*
X116521Y175260D02*
X127690D01*
X114554Y176609D02*
X115173D01*
X116521Y175260D01*
X62912Y230112D02*
X71882D01*
X92893Y212292D02*
X94663Y210522D01*
X84074Y212292D02*
X92893D01*
X94663Y210522D02*
X102936D01*
X103378Y210080D01*
X608340Y127000D02*
X616458Y118882D01*
Y118872D02*
Y118882D01*
X599948Y118608D02*
X608340Y127000D01*
X599948Y118364D02*
Y118608D01*
X616468Y135128D02*
X616712D01*
X608340Y127000D02*
X616468Y135128D01*
X600212D02*
X608340Y127000D01*
X600202Y135128D02*
X600212D01*
X650745Y197095D02*
Y202395D01*
X644942Y208198D02*
Y214268D01*
X644580Y214630D02*
X644942Y214268D01*
Y208198D02*
X650745Y202395D01*
Y197095D02*
X650840Y197000D01*
X621585Y215765D02*
Y221966D01*
X623450Y223830D01*
Y224449D01*
X620450Y214630D02*
X621585Y215765D01*
X140716Y152654D02*
X141153Y152217D01*
X140279Y153091D02*
X140716Y152654D01*
X203717Y140961D02*
X203726Y140952D01*
X193629Y140961D02*
X203717D01*
X193620Y140970D02*
X193629Y140961D01*
X147828Y163322D02*
X161544Y177038D01*
X136470Y163322D02*
Y175260D01*
Y163322D02*
X147828D01*
X136470D02*
X140279Y159513D01*
X228615Y216233D02*
X238633Y226251D01*
X247079D01*
X247396Y226568D01*
X238335Y215357D02*
X238773Y215794D01*
X228164Y201314D02*
X238335Y211485D01*
Y215357D01*
X228615Y215683D02*
Y216233D01*
X228070Y215138D02*
X228615Y215683D01*
X228164Y200914D02*
Y201314D01*
X140279Y153091D02*
Y159513D01*
X141153Y149182D02*
X143755Y146580D01*
X141153Y149182D02*
Y152217D01*
X143755Y146580D02*
X151130D01*
X113955Y148935D02*
Y159675D01*
X113610Y160020D02*
X113955Y159675D01*
Y148935D02*
X114300Y148590D01*
X165100Y139392D02*
Y146740D01*
X156972Y137160D02*
X162868D01*
X165100Y139392D01*
X95250Y139700D02*
X132588D01*
X153162Y119126D01*
X103420Y183366D02*
X103965Y182821D01*
X108342D01*
X114554Y176609D01*
X102870Y183366D02*
X103420D01*
X91825Y185454D02*
X92444D01*
X84483Y184103D02*
X90474D01*
X84328Y183948D02*
X84483Y184103D01*
X90474D02*
X91825Y185454D01*
X103923Y209535D02*
X104473D01*
X108783Y205225D01*
Y202367D02*
X109220Y201930D01*
X103378Y210080D02*
X103923Y209535D01*
X108783Y202367D02*
Y205225D01*
X62900Y230100D02*
X62912Y230112D01*
X83110Y153214D02*
Y160020D01*
X79248Y149352D02*
X83110Y153214D01*
X71699Y159187D02*
X72136Y158750D01*
X62900Y166100D02*
X65650D01*
X71699Y160051D01*
Y159187D02*
Y160051D01*
X315850Y86000D02*
X315976Y86126D01*
Y97790D01*
X95250Y114300D02*
X106100Y103450D01*
Y93980D02*
Y103450D01*
X71445Y93695D02*
Y98369D01*
X71882Y98806D01*
X62900Y87900D02*
X65650D01*
X71445Y93695D01*
X219177Y201521D02*
Y214931D01*
X218970Y215138D02*
X219177Y214931D01*
X117856Y215900D02*
X127690D01*
X136470Y175660D02*
X146484Y185674D01*
X150368D01*
X136470Y175260D02*
Y175660D01*
X184840Y129380D02*
X185950Y128270D01*
X184840Y129380D02*
Y140970D01*
Y154940D01*
X183145Y156635D02*
X184840Y154940D01*
X181900Y156635D02*
X183145D01*
X175340Y163195D02*
X181900Y156635D01*
X175340Y163195D02*
Y167894D01*
X193620Y154540D02*
Y154940D01*
X204287Y149535D02*
X204724Y149098D01*
X193620Y154540D02*
X198625Y149535D01*
X204287D01*
X228070Y168910D02*
X236871D01*
X239919Y165862D01*
X240538D01*
X333669Y208811D02*
X334287D01*
X315850Y213000D02*
X329480D01*
X333669Y208811D01*
X395224Y201168D02*
Y212874D01*
X395350Y213000D01*
X453263Y192151D02*
X455495Y189919D01*
X462353D01*
X462534Y189738D01*
X453263Y192151D02*
Y198105D01*
X453390Y198232D01*
Y198650D01*
X513287Y71517D02*
X519113Y65692D01*
Y61446D02*
Y65692D01*
Y61446D02*
X523147Y57412D01*
X513287Y71517D02*
Y72136D01*
X523147Y57412D02*
X537928D01*
X414346Y50220D02*
X421640D01*
X410718Y53848D02*
X414346Y50220D01*
X537928Y57412D02*
X538340Y57000D01*
X437309Y60861D02*
X438404Y59766D01*
X429753Y65131D02*
X434023Y60861D01*
X429753Y65131D02*
Y66619D01*
X429316Y67056D02*
X429753Y66619D01*
X434023Y60861D02*
X437309D01*
X673100Y12700D02*
X673680Y13280D01*
Y35306D01*
X664900Y29900D02*
Y35306D01*
X647700Y12700D02*
X664900Y29900D01*
X678340Y47925D02*
Y57000D01*
X677004Y46589D02*
X678340Y47925D01*
X677004Y45970D02*
Y46589D01*
X644398Y224028D02*
X644489Y223937D01*
Y214721D02*
Y223937D01*
X667440Y214630D02*
Y221560D01*
X647700Y241300D02*
X667440Y221560D01*
X671930Y206502D02*
X676245Y202187D01*
Y199095D02*
X678340Y197000D01*
X676245Y199095D02*
Y202187D01*
X668020Y206502D02*
X671930D01*
X659384D02*
X668020D01*
X667840Y206322D02*
X668020Y206502D01*
X667840Y197000D02*
Y206322D01*
X671930Y206502D02*
X675085Y209657D01*
Y213495D02*
X676220Y214630D01*
X675085Y209657D02*
Y213495D01*
X659384Y206502D02*
Y206502D01*
X653360Y214630D02*
X654655Y213335D01*
Y211231D02*
Y213335D01*
Y211231D02*
X659384Y206502D01*
X668700Y186500D02*
X678340D01*
X668700Y178000D02*
X678340D01*
X668700Y169500D02*
X678340D01*
X668700Y161000D02*
X678340D01*
X668700Y152500D02*
X678340D01*
X668700Y144000D02*
X678340D01*
X668700Y135500D02*
X678340D01*
X668700Y127000D02*
X678340D01*
X668700Y118500D02*
X678340D01*
X668700Y110000D02*
X678340D01*
X668700Y101500D02*
X678340D01*
X668700Y93000D02*
X678340D01*
X668700Y84500D02*
X678340D01*
X668700Y76000D02*
X678340D01*
X668700Y67500D02*
X678340D01*
D61*
X526646Y191262D02*
X526921D01*
X536880Y195540D02*
X538340Y197000D01*
X526921Y191262D02*
X531199Y195540D01*
X536880D01*
X165430Y52100D02*
X166870Y50660D01*
X147044Y52100D02*
X165430D01*
X145817Y40544D02*
Y52100D01*
X144272Y39000D02*
X145817Y40544D01*
X146217Y52927D02*
X147044Y52100D01*
X132247Y52927D02*
X146217D01*
X135636Y38862D02*
X144272D01*
X126746D02*
X135636D01*
X148550Y96660D02*
X166870D01*
X146450Y94560D02*
X148550Y96660D01*
X132008Y94560D02*
X146450D01*
X95250Y127000D02*
X96222Y126028D01*
X100540D02*
X132008Y94560D01*
X96222Y126028D02*
X100540D01*
X176600Y127810D02*
X176970D01*
X175790Y127000D02*
X176600Y127810D01*
X177060Y127900D02*
Y128270D01*
X176970Y127810D02*
X177060Y127900D01*
X157988Y127000D02*
X175790D01*
X103262Y161080D02*
X104170D01*
X80255Y168402D02*
X95940D01*
X95250Y159766D02*
X104576D01*
X95940Y168402D02*
X103262Y161080D01*
X104170D02*
X104830Y160420D01*
Y160020D02*
Y160420D01*
X95250Y139700D02*
Y159766D01*
X74557Y174100D02*
X80255Y168402D01*
X62900Y174100D02*
X74557D01*
X53382Y173948D02*
X62748D01*
X45974Y181356D02*
X53382Y173948D01*
X45974Y181356D02*
Y214630D01*
X62748Y173948D02*
X62900Y174100D01*
X53489Y222145D02*
X62855D01*
X62900Y222100D01*
X45974Y214630D02*
X53489Y222145D01*
X405659Y155702D02*
X411937Y161980D01*
X421640D01*
X405384Y155702D02*
X405659D01*
X48950Y79900D02*
X99712D01*
X48950Y31900D02*
X62900D01*
X45974Y34876D02*
Y76924D01*
Y34876D02*
X48950Y31900D01*
X45974Y76924D02*
X48950Y79900D01*
X106100Y86288D02*
Y93980D01*
X99712Y79900D02*
X106100Y86288D01*
X62900Y23900D02*
X63039Y23761D01*
X76569D01*
X76708Y23622D01*
X132080Y61540D02*
X132647Y62107D01*
X138176Y73660D02*
X148336D01*
X132647Y68131D02*
X138079Y73563D01*
X132647Y62107D02*
Y68131D01*
X128524Y73660D02*
X138176D01*
X144272Y38862D02*
Y39000D01*
X146050Y61540D02*
Y71237D01*
Y76083D02*
Y85780D01*
X148336Y73660D02*
X166870D01*
X235580Y85344D02*
X248920D01*
X229370Y73660D02*
Y79134D01*
X235580Y85344D01*
X136470Y216300D02*
Y225624D01*
X139700Y241300D02*
X139867Y241133D01*
X136470Y225624D02*
X139867Y229021D01*
Y241133D01*
X608330Y153670D02*
X608335Y153665D01*
Y143505D02*
X608340Y143500D01*
X608335Y143505D02*
Y153665D01*
X634990Y143500D02*
X635000Y143510D01*
X624840Y143500D02*
X634990D01*
X624840Y127000D02*
X635000D01*
X634995Y110495D02*
X635000Y110490D01*
X624840Y110500D02*
X624845Y110495D01*
X634995D01*
X608335Y99065D02*
Y110495D01*
X608330Y99060D02*
X608335Y99065D01*
Y110495D02*
X608340Y110500D01*
X579120Y110490D02*
X579125Y110495D01*
X591835D02*
X591840Y110500D01*
X579125Y110495D02*
X591835D01*
X579120Y127000D02*
X591840D01*
X579125Y143505D02*
X591835D01*
X591840Y143500D01*
X579120Y143510D02*
X579125Y143505D01*
D62*
X199495Y205580D02*
X202363D01*
X205317Y208534D01*
X208026D01*
D63*
X447360Y79502D02*
X452374Y74488D01*
X437534Y79502D02*
X447360D01*
X435016Y82020D02*
X437534Y79502D01*
X452374Y68304D02*
Y74488D01*
X421640Y82020D02*
X435016D01*
X421640D02*
Y86204D01*
X377273Y130571D02*
X421640Y86204D01*
X366209Y130571D02*
X377273D01*
X362637Y127000D02*
X366209Y130571D01*
D64*
X361950Y127000D02*
X362637D01*
D65*
X497354Y125429D02*
Y133096D01*
X71882Y57585D02*
X73660Y55807D01*
X71067Y58400D02*
X71882Y57585D01*
X62900Y58400D02*
X71067D01*
X73660Y48400D02*
Y55807D01*
Y48487D02*
X80057D01*
X81554Y46990D01*
X83942D01*
X62900Y48400D02*
X73660D01*
X82692Y58128D02*
X83810D01*
X85691Y54397D02*
X99487D01*
X83810Y58128D02*
X84794Y57144D01*
Y55294D02*
Y57144D01*
Y55294D02*
X85691Y54397D01*
X99544Y54341D02*
X114423D01*
X99487Y54397D02*
X99544Y54341D01*
X116959Y56877D02*
X117602D01*
X114423Y54341D02*
X116959Y56877D01*
X85823Y50833D02*
X98011D01*
X84926Y49936D02*
X85823Y50833D01*
X98011D02*
X98067Y50777D01*
X116959Y48241D02*
X117602D01*
X114423Y50777D02*
X116959Y48241D01*
X98067Y50777D02*
X114423D01*
X84926Y47974D02*
Y49936D01*
X83942Y46990D02*
X84926Y47974D01*
X480829Y133096D02*
X488210D01*
X476758Y128524D02*
Y129025D01*
X480829Y133096D01*
X477565Y116152D02*
X480941Y112776D01*
X488254D01*
X476758Y116152D02*
X477565D01*
X206510Y43031D02*
X207384Y43904D01*
X190500Y24892D02*
X206510Y40902D01*
X190500Y12700D02*
Y24892D01*
X206510Y40902D02*
Y43031D01*
X197866Y40132D02*
Y44958D01*
X176018Y18284D02*
X197866Y40132D01*
X176018Y13597D02*
Y18284D01*
X175121Y12700D02*
X176018Y13597D01*
X165100Y12700D02*
X175121D01*
X506454Y112776D02*
X515366D01*
X506454Y133096D02*
X515366D01*
X497354Y125429D02*
X498251Y124532D01*
X534209D01*
X497354Y112776D02*
Y120071D01*
X498251Y120968D01*
X534209D01*
X536340Y127000D02*
X538340D01*
X535106Y125766D02*
X536340Y127000D01*
X535106Y125429D02*
Y125766D01*
X534209Y120968D02*
X535106Y120071D01*
Y119734D02*
Y120071D01*
Y119734D02*
X536340Y118500D01*
X534209Y124532D02*
X535106Y125429D01*
X536340Y118500D02*
X538340D01*
D66*
X89610Y160020D02*
X94996D01*
X95250Y159766D01*
X90211Y40490D02*
X91885Y42164D01*
X82804Y40490D02*
X90211D01*
X91885Y42164D02*
X92710D01*
X90264Y64613D02*
X92393Y62484D01*
X82692Y64628D02*
X82707Y64613D01*
X90264D01*
X92393Y62484D02*
X93218D01*
X116602Y91904D02*
X121337Y87169D01*
X114880Y93580D02*
X116556Y91904D01*
X116602D01*
X121337Y83641D02*
Y87169D01*
X114880Y93580D02*
Y93980D01*
X121337Y83641D02*
X121920Y83058D01*
X90880Y93980D02*
X106100D01*
X80010Y107887D02*
X84380Y103517D01*
Y93980D02*
Y103517D01*
X80010Y107887D02*
Y108712D01*
X104140Y61490D02*
X110766D01*
X114808Y65532D01*
X104140Y42650D02*
X105066Y41724D01*
X109152D01*
X114554Y36322D01*
D67*
X71180Y200600D02*
X73614Y198166D01*
X121871Y189230D02*
X127530D01*
X118364Y200152D02*
X119585D01*
Y191516D02*
X121871Y189230D01*
X119585Y200152D02*
X121363Y201930D01*
X118364Y191516D02*
X119585D01*
X121363Y201930D02*
X127530D01*
X53340Y54327D02*
Y62473D01*
X54267Y63400D02*
X62900D01*
X53340Y62473D02*
X54267Y63400D01*
Y53400D02*
X62900D01*
X53340Y54327D02*
X54267Y53400D01*
X62900Y63400D02*
X72014D01*
X53848Y196850D02*
Y204470D01*
Y196850D02*
X55098Y195600D01*
X62900D01*
X53848Y204470D02*
X54978Y205600D01*
X62900D01*
X73614Y190524D02*
Y198166D01*
X62900Y200600D02*
X71180D01*
X73614Y190524D02*
X84252D01*
X62976D02*
X73614D01*
X62900Y205600D02*
X62996Y205696D01*
X83978D01*
X89356Y190448D02*
X91338Y192430D01*
Y193700D01*
X88839Y204833D02*
X90981Y202692D01*
X92202D01*
X84074Y205792D02*
X85033Y204833D01*
X88839D01*
X91338Y193700D02*
X92202Y194564D01*
X84328Y190448D02*
X89356D01*
X62900Y190600D02*
X62976Y190524D01*
X84252D02*
X84328Y190448D01*
X83978Y205696D02*
X84074Y205792D01*
X157971Y190580D02*
X161185D01*
X151297Y191273D02*
X157278D01*
X139216Y193773D02*
X148797D01*
X151297Y191273D01*
X138289Y198314D02*
Y200271D01*
Y198314D02*
X139216Y197387D01*
X157278Y194887D02*
X157971Y195580D01*
X138289Y192846D02*
X139216Y193773D01*
X136630Y201930D02*
X138289Y200271D01*
X139216Y197387D02*
X150294D01*
X152794Y194887D01*
X157278D01*
Y191273D02*
X157971Y190580D01*
Y195580D02*
X161185D01*
X136630Y189230D02*
X138289Y190889D01*
Y192846D01*
X72014Y63400D02*
X77287Y58128D01*
X82692D01*
D68*
X185421Y164804D02*
Y167097D01*
Y164804D02*
X186096Y164128D01*
X180340Y172178D02*
Y176425D01*
Y172178D02*
X185421Y167097D01*
X177292Y225830D02*
Y226314D01*
X180340Y214735D02*
Y222782D01*
X177292Y225830D02*
X180340Y222782D01*
D69*
X95250Y139700D02*
D03*
D70*
Y114300D02*
D03*
Y127000D02*
D03*
X361950D02*
D03*
D71*
X349250D02*
D03*
D72*
X342900Y241300D02*
D03*
X647700D02*
D03*
X622300D02*
D03*
X596900D02*
D03*
X571500D02*
D03*
X546100D02*
D03*
X520700D02*
D03*
X495300D02*
D03*
X469900D02*
D03*
X444500D02*
D03*
X419100D02*
D03*
X393700D02*
D03*
X368300D02*
D03*
X317500D02*
D03*
X292100D02*
D03*
X266700D02*
D03*
X241300D02*
D03*
X215900D02*
D03*
X190500D02*
D03*
X165100D02*
D03*
X139700D02*
D03*
X114300D02*
D03*
X88900D02*
D03*
X342900Y12700D02*
D03*
X647700D02*
D03*
X622300D02*
D03*
X596900D02*
D03*
X571500D02*
D03*
X546100D02*
D03*
X520700D02*
D03*
X495300D02*
D03*
X469900D02*
D03*
X444500D02*
D03*
X419100D02*
D03*
X393700D02*
D03*
X368300D02*
D03*
X317500D02*
D03*
X292100D02*
D03*
X266700D02*
D03*
X241300D02*
D03*
X215900D02*
D03*
X190500D02*
D03*
X165100D02*
D03*
X139700D02*
D03*
X114300D02*
D03*
X88900D02*
D03*
D73*
X673100Y241300D02*
D03*
Y12700D02*
D03*
D74*
X373888Y153670D02*
D03*
X381254Y85852D02*
D03*
X526646Y191262D02*
D03*
X500853Y178690D02*
D03*
X492760Y167386D02*
D03*
X477520Y160528D02*
D03*
X482600Y174244D02*
D03*
X203200Y130556D02*
D03*
X235204Y146812D02*
D03*
X233746Y160528D02*
D03*
X79502Y226038D02*
D03*
X445793Y100725D02*
D03*
X373380Y121173D02*
D03*
X429260Y107583D02*
D03*
X623450Y224449D02*
D03*
X203726Y140952D02*
D03*
X247396Y226568D02*
D03*
X238773Y215794D02*
D03*
X140716Y152654D02*
D03*
X114300Y148590D02*
D03*
X157988Y127000D02*
D03*
X156972Y137160D02*
D03*
X114554Y176609D02*
D03*
X92444Y185454D02*
D03*
X109220Y201930D02*
D03*
X79248Y149352D02*
D03*
X72136Y158750D02*
D03*
X118364Y191516D02*
D03*
Y200152D02*
D03*
X92202Y202692D02*
D03*
Y194564D02*
D03*
X315976Y97790D02*
D03*
X117602Y56877D02*
D03*
Y48241D02*
D03*
X92710Y42164D02*
D03*
X93218Y62484D02*
D03*
X476758Y128524D02*
D03*
Y116152D02*
D03*
X518922Y103437D02*
D03*
X197866Y44958D02*
D03*
X207384Y43904D02*
D03*
X529092Y97282D02*
D03*
X497910Y89721D02*
D03*
X491236Y82863D02*
D03*
X515366Y112776D02*
D03*
Y133096D02*
D03*
X426117Y153416D02*
D03*
X415544Y152654D02*
D03*
X405384Y155702D02*
D03*
X121920Y83058D02*
D03*
X80010Y108712D02*
D03*
X71882Y98806D02*
D03*
X114808Y65532D02*
D03*
X114554Y36322D02*
D03*
X76708Y23622D02*
D03*
X248920Y119380D02*
D03*
X249174Y102616D02*
D03*
X248920Y85344D02*
D03*
X410718Y53848D02*
D03*
X209573Y179832D02*
D03*
X395224Y154686D02*
D03*
X177292Y226314D02*
D03*
X117856Y215900D02*
D03*
X186096Y164128D02*
D03*
X204724Y149098D02*
D03*
X240538Y165862D02*
D03*
X194818Y225298D02*
D03*
X209550Y215138D02*
D03*
X334287Y208811D02*
D03*
X395224Y201168D02*
D03*
X462534Y189738D02*
D03*
X558292Y173228D02*
D03*
X422910Y203200D02*
D03*
X549079Y176726D02*
D03*
X513287Y72136D02*
D03*
X574294Y67818D02*
D03*
X557276Y72136D02*
D03*
X429316Y67056D02*
D03*
X677004Y45970D02*
D03*
X644398Y224028D02*
D03*
X632460Y224536D02*
D03*
X659384Y206502D02*
D03*
X608330Y153670D02*
D03*
X635000Y143510D02*
D03*
Y127000D02*
D03*
Y110490D02*
D03*
X608330Y99060D02*
D03*
X579120Y110490D02*
D03*
Y127000D02*
D03*
Y143510D02*
D03*
X659005Y187025D02*
D03*
X668365Y186835D02*
D03*
Y178335D02*
D03*
Y169835D02*
D03*
Y161335D02*
D03*
Y152835D02*
D03*
Y144335D02*
D03*
Y135835D02*
D03*
Y127335D02*
D03*
Y118835D02*
D03*
Y110335D02*
D03*
Y101835D02*
D03*
Y93335D02*
D03*
Y84835D02*
D03*
Y76335D02*
D03*
Y67835D02*
D03*
X566420Y184150D02*
D03*
X651510Y67310D02*
D03*
X642620D02*
D03*
X626110D02*
D03*
X608330D02*
D03*
X591820D02*
D03*
X582930Y186690D02*
D03*
X600710D02*
D03*
X617220D02*
D03*
X633730D02*
D03*
X625335Y172725D02*
D03*
X549130Y81370D02*
D03*
X633730Y81280D02*
D03*
X617220D02*
D03*
X600275Y80845D02*
D03*
X566420Y81280D02*
D03*
X582930D02*
D03*
X608330Y172720D02*
D03*
X591820D02*
D03*
X574040D02*
D03*
D75*
X509778Y181356D02*
D03*
X364848Y152400D02*
D03*
X161544Y177038D02*
D03*
X466598Y114554D02*
D03*
X466852Y130302D02*
D03*
X188468Y40894D02*
D03*
X214630Y39624D02*
D03*
X525272Y131318D02*
D03*
Y114300D02*
D03*
X126746Y38862D02*
D03*
X135636D02*
D03*
X144272D02*
D03*
X128524Y73660D02*
D03*
X138176D02*
D03*
X148336D02*
D03*
X260096Y119380D02*
D03*
X270764D02*
D03*
X289560D02*
D03*
X280416D02*
D03*
X260858Y102616D02*
D03*
X271018D02*
D03*
X290068D02*
D03*
X280670D02*
D03*
X280416Y84836D02*
D03*
X289814D02*
D03*
X270764Y85090D02*
D03*
X260350D02*
D03*
X185928Y189992D02*
D03*
X174752Y190500D02*
D03*
X185420Y201168D02*
D03*
X175006D02*
D03*
X616458Y118872D02*
D03*
X599948Y118364D02*
D03*
X616712Y135128D02*
D03*
X600202D02*
D03*
M02*
