G04*
G04 #@! TF.GenerationSoftware,Altium Limited,Altium Designer,24.9.1 (31)*
G04*
G04 Layer_Color=8421504*
%FSLAX44Y44*%
%MOMM*%
G71*
G04*
G04 #@! TF.SameCoordinates,9342EB83-EE33-4B72-AB8E-5D22900AAE0C*
G04*
G04*
G04 #@! TF.FilePolarity,Positive*
G04*
G01*
G75*
%ADD15R,1.2965X1.2965*%
G04:AMPARAMS|DCode=16|XSize=0.2425mm|YSize=0.8397mm|CornerRadius=0.1212mm|HoleSize=0mm|Usage=FLASHONLY|Rotation=270.000|XOffset=0mm|YOffset=0mm|HoleType=Round|Shape=RoundedRectangle|*
%AMROUNDEDRECTD16*
21,1,0.2425,0.5972,0,0,270.0*
21,1,0.0000,0.8397,0,0,270.0*
1,1,0.2425,-0.2986,0.0000*
1,1,0.2425,-0.2986,0.0000*
1,1,0.2425,0.2986,0.0000*
1,1,0.2425,0.2986,0.0000*
%
%ADD16ROUNDEDRECTD16*%
G04:AMPARAMS|DCode=17|XSize=0.8397mm|YSize=0.2425mm|CornerRadius=0.1212mm|HoleSize=0mm|Usage=FLASHONLY|Rotation=270.000|XOffset=0mm|YOffset=0mm|HoleType=Round|Shape=RoundedRectangle|*
%AMROUNDEDRECTD17*
21,1,0.8397,0.0000,0,0,270.0*
21,1,0.5972,0.2425,0,0,270.0*
1,1,0.2425,0.0000,-0.2986*
1,1,0.2425,0.0000,0.2986*
1,1,0.2425,0.0000,0.2986*
1,1,0.2425,0.0000,-0.2986*
%
%ADD17ROUNDEDRECTD17*%
%ADD18R,0.2425X0.8397*%
%ADD19R,0.6000X0.4900*%
%ADD20R,0.4900X0.6000*%
G04:AMPARAMS|DCode=21|XSize=0.64mm|YSize=0.72mm|CornerRadius=0.08mm|HoleSize=0mm|Usage=FLASHONLY|Rotation=180.000|XOffset=0mm|YOffset=0mm|HoleType=Round|Shape=RoundedRectangle|*
%AMROUNDEDRECTD21*
21,1,0.6400,0.5600,0,0,180.0*
21,1,0.4800,0.7200,0,0,180.0*
1,1,0.1600,-0.2400,0.2800*
1,1,0.1600,0.2400,0.2800*
1,1,0.1600,0.2400,-0.2800*
1,1,0.1600,-0.2400,-0.2800*
%
%ADD21ROUNDEDRECTD21*%
%ADD22R,0.8000X0.8000*%
%ADD23R,0.4000X0.8000*%
%ADD24R,0.8000X0.4000*%
%ADD25R,1.2000X1.2000*%
%ADD26R,1.1500X0.6000*%
%ADD27R,1.1500X0.3000*%
G04:AMPARAMS|DCode=28|XSize=3.2mm|YSize=1.75mm|CornerRadius=0.0525mm|HoleSize=0mm|Usage=FLASHONLY|Rotation=90.000|XOffset=0mm|YOffset=0mm|HoleType=Round|Shape=RoundedRectangle|*
%AMROUNDEDRECTD28*
21,1,3.2000,1.6450,0,0,90.0*
21,1,3.0950,1.7500,0,0,90.0*
1,1,0.1050,0.8225,1.5475*
1,1,0.1050,0.8225,-1.5475*
1,1,0.1050,-0.8225,-1.5475*
1,1,0.1050,-0.8225,1.5475*
%
%ADD28ROUNDEDRECTD28*%
G04:AMPARAMS|DCode=29|XSize=0.9mm|YSize=1.75mm|CornerRadius=0.0495mm|HoleSize=0mm|Usage=FLASHONLY|Rotation=90.000|XOffset=0mm|YOffset=0mm|HoleType=Round|Shape=RoundedRectangle|*
%AMROUNDEDRECTD29*
21,1,0.9000,1.6510,0,0,90.0*
21,1,0.8010,1.7500,0,0,90.0*
1,1,0.0990,0.8255,0.4005*
1,1,0.0990,0.8255,-0.4005*
1,1,0.0990,-0.8255,-0.4005*
1,1,0.0990,-0.8255,0.4005*
%
%ADD29ROUNDEDRECTD29*%
%ADD30R,1.5500X1.3000*%
G04:AMPARAMS|DCode=31|XSize=0.64mm|YSize=0.72mm|CornerRadius=0.08mm|HoleSize=0mm|Usage=FLASHONLY|Rotation=90.000|XOffset=0mm|YOffset=0mm|HoleType=Round|Shape=RoundedRectangle|*
%AMROUNDEDRECTD31*
21,1,0.6400,0.5600,0,0,90.0*
21,1,0.4800,0.7200,0,0,90.0*
1,1,0.1600,0.2800,0.2400*
1,1,0.1600,0.2800,-0.2400*
1,1,0.1600,-0.2800,-0.2400*
1,1,0.1600,-0.2800,0.2400*
%
%ADD31ROUNDEDRECTD31*%
%ADD32R,0.7000X0.6000*%
G04:AMPARAMS|DCode=33|XSize=1.3571mm|YSize=0.5721mm|CornerRadius=0.2861mm|HoleSize=0mm|Usage=FLASHONLY|Rotation=0.000|XOffset=0mm|YOffset=0mm|HoleType=Round|Shape=RoundedRectangle|*
%AMROUNDEDRECTD33*
21,1,1.3571,0.0000,0,0,0.0*
21,1,0.7850,0.5721,0,0,0.0*
1,1,0.5721,0.3925,0.0000*
1,1,0.5721,-0.3925,0.0000*
1,1,0.5721,-0.3925,0.0000*
1,1,0.5721,0.3925,0.0000*
%
%ADD33ROUNDEDRECTD33*%
%ADD34R,1.3571X0.5721*%
%ADD35R,0.3500X0.6000*%
%ADD36R,0.6000X0.3500*%
G36*
X618840Y137500D02*
Y149500D01*
X624840D01*
X630840Y143500D01*
Y137500D01*
X618840D01*
D02*
G37*
D15*
X180340Y195580D02*
D03*
D16*
X199495Y205580D02*
D03*
Y200580D02*
D03*
Y195580D02*
D03*
Y190580D02*
D03*
Y185580D02*
D03*
X161185D02*
D03*
Y190580D02*
D03*
Y195580D02*
D03*
Y200580D02*
D03*
Y205580D02*
D03*
D17*
X190340Y176425D02*
D03*
X185340D02*
D03*
X180340D02*
D03*
X175340D02*
D03*
X170340D02*
D03*
Y214735D02*
D03*
X175340D02*
D03*
X180340D02*
D03*
X185340D02*
D03*
D18*
X190340D02*
D03*
D19*
X102870Y183366D02*
D03*
Y174266D02*
D03*
X151130Y146580D02*
D03*
Y155680D02*
D03*
X453390Y207750D02*
D03*
Y198650D02*
D03*
X104140Y33550D02*
D03*
Y42650D02*
D03*
Y70590D02*
D03*
Y61490D02*
D03*
X452374Y59204D02*
D03*
Y68304D02*
D03*
X247650Y205000D02*
D03*
Y214100D02*
D03*
X251460Y168888D02*
D03*
Y159788D02*
D03*
X103378Y219180D02*
D03*
Y210080D02*
D03*
X421640Y72920D02*
D03*
Y82020D02*
D03*
D20*
X497310Y133096D02*
D03*
X488210D02*
D03*
X497354D02*
D03*
X506454D02*
D03*
X497354Y112776D02*
D03*
X506454D02*
D03*
X127530Y189230D02*
D03*
X136630D02*
D03*
X127530Y201930D02*
D03*
X136630D02*
D03*
X228070Y215138D02*
D03*
X218970D02*
D03*
X228070Y156210D02*
D03*
X218970D02*
D03*
Y168910D02*
D03*
X228070D02*
D03*
X218970Y143510D02*
D03*
X228070D02*
D03*
X500656Y212090D02*
D03*
X509756D02*
D03*
X545570Y36830D02*
D03*
X536470D02*
D03*
X521440D02*
D03*
X512340D02*
D03*
X195050Y128270D02*
D03*
X185950D02*
D03*
X177060D02*
D03*
X186160D02*
D03*
X488254Y112776D02*
D03*
X497354D02*
D03*
X500910Y199898D02*
D03*
X510010D02*
D03*
D21*
X114880Y93980D02*
D03*
X106100D02*
D03*
X629230Y214630D02*
D03*
X620450D02*
D03*
X136470Y215900D02*
D03*
X127690D02*
D03*
X219384Y200914D02*
D03*
X228164D02*
D03*
X136470Y175260D02*
D03*
X127690D02*
D03*
X184840Y140970D02*
D03*
X193620D02*
D03*
X673680Y35306D02*
D03*
X664900D02*
D03*
X667440Y214630D02*
D03*
X676220D02*
D03*
X644580D02*
D03*
X653360D02*
D03*
X104830Y160020D02*
D03*
X113610D02*
D03*
X184840Y154940D02*
D03*
X193620D02*
D03*
D22*
X678340Y197000D02*
D03*
X538340D02*
D03*
X678340Y57000D02*
D03*
X538340D02*
D03*
D23*
X667840Y197000D02*
D03*
X659340D02*
D03*
X650840D02*
D03*
X642340D02*
D03*
X633840D02*
D03*
X625340D02*
D03*
X616840D02*
D03*
X608340D02*
D03*
X599840D02*
D03*
X591340D02*
D03*
X582840D02*
D03*
X574340D02*
D03*
X565840D02*
D03*
X557340D02*
D03*
X548840D02*
D03*
Y57000D02*
D03*
X557340D02*
D03*
X565840D02*
D03*
X574340D02*
D03*
X582840D02*
D03*
X591340D02*
D03*
X599840D02*
D03*
X608340D02*
D03*
X616840D02*
D03*
X625340D02*
D03*
X633840D02*
D03*
X642340D02*
D03*
X650840D02*
D03*
X659340D02*
D03*
X667840D02*
D03*
D24*
X538340Y186500D02*
D03*
Y178000D02*
D03*
Y169500D02*
D03*
Y161000D02*
D03*
Y152500D02*
D03*
Y144000D02*
D03*
Y135500D02*
D03*
Y127000D02*
D03*
Y118500D02*
D03*
Y110000D02*
D03*
Y101500D02*
D03*
Y93000D02*
D03*
Y84500D02*
D03*
Y76000D02*
D03*
Y67500D02*
D03*
X678340D02*
D03*
Y76000D02*
D03*
Y84500D02*
D03*
Y93000D02*
D03*
Y101500D02*
D03*
Y110000D02*
D03*
Y118500D02*
D03*
Y127000D02*
D03*
Y135500D02*
D03*
Y144000D02*
D03*
Y152500D02*
D03*
Y161000D02*
D03*
Y169500D02*
D03*
Y178000D02*
D03*
Y186500D02*
D03*
D25*
X608340Y127000D02*
D03*
X624840D02*
D03*
Y110500D02*
D03*
X608340D02*
D03*
X591840D02*
D03*
Y127000D02*
D03*
Y143500D02*
D03*
X608340D02*
D03*
D26*
X62900Y166100D02*
D03*
Y230100D02*
D03*
Y222100D02*
D03*
Y174100D02*
D03*
Y31900D02*
D03*
Y79900D02*
D03*
Y87900D02*
D03*
Y23900D02*
D03*
D27*
Y180600D02*
D03*
Y185600D02*
D03*
Y190600D02*
D03*
Y195600D02*
D03*
Y200600D02*
D03*
Y205600D02*
D03*
Y210600D02*
D03*
Y215600D02*
D03*
Y73400D02*
D03*
Y68400D02*
D03*
Y63400D02*
D03*
Y58400D02*
D03*
Y53400D02*
D03*
Y48400D02*
D03*
Y43400D02*
D03*
Y38400D02*
D03*
D28*
X229370Y73660D02*
D03*
D29*
X166870Y50660D02*
D03*
Y73660D02*
D03*
Y96660D02*
D03*
D30*
X315850Y86000D02*
D03*
X395350D02*
D03*
X315850Y41000D02*
D03*
X395350D02*
D03*
X315850Y213000D02*
D03*
X395350D02*
D03*
X315850Y168000D02*
D03*
X395350D02*
D03*
D31*
X421640Y59000D02*
D03*
Y50220D02*
D03*
X146050Y94560D02*
D03*
Y85780D02*
D03*
Y52760D02*
D03*
Y61540D02*
D03*
X132080Y52760D02*
D03*
Y61540D02*
D03*
X165100Y155520D02*
D03*
Y146740D02*
D03*
X421640Y170760D02*
D03*
Y161980D02*
D03*
D32*
X439420Y198450D02*
D03*
Y207950D02*
D03*
X438404Y69266D02*
D03*
Y59766D02*
D03*
D33*
X286366Y205740D02*
D03*
X267355Y196240D02*
D03*
X286366Y168910D02*
D03*
X267355Y159410D02*
D03*
D34*
Y215240D02*
D03*
Y178410D02*
D03*
D35*
X90880Y93980D02*
D03*
X84380D02*
D03*
X89610Y160020D02*
D03*
X83110D02*
D03*
D36*
X82692Y58128D02*
D03*
Y64628D02*
D03*
X82804Y46990D02*
D03*
Y40490D02*
D03*
X84074Y205792D02*
D03*
Y212292D02*
D03*
X84328Y190448D02*
D03*
Y183948D02*
D03*
M02*
