G04*
G04 #@! TF.GenerationSoftware,Altium Limited,Altium Designer,24.9.1 (31)*
G04*
G04 Layer_Color=8388736*
%FSLAX44Y44*%
%MOMM*%
G71*
G04*
G04 #@! TF.SameCoordinates,9342EB83-EE33-4B72-AB8E-5D22900AAE0C*
G04*
G04*
G04 #@! TF.FilePolarity,Negative*
G04*
G01*
G75*
G04:AMPARAMS|DCode=16|XSize=0.2425mm|YSize=0.8397mm|CornerRadius=0.1212mm|HoleSize=0mm|Usage=FLASHONLY|Rotation=270.000|XOffset=0mm|YOffset=0mm|HoleType=Round|Shape=RoundedRectangle|*
%AMROUNDEDRECTD16*
21,1,0.2425,0.5972,0,0,270.0*
21,1,0.0000,0.8397,0,0,270.0*
1,1,0.2425,-0.2986,0.0000*
1,1,0.2425,-0.2986,0.0000*
1,1,0.2425,0.2986,0.0000*
1,1,0.2425,0.2986,0.0000*
%
%ADD16ROUNDEDRECTD16*%
G04:AMPARAMS|DCode=17|XSize=0.8397mm|YSize=0.2425mm|CornerRadius=0.1212mm|HoleSize=0mm|Usage=FLASHONLY|Rotation=270.000|XOffset=0mm|YOffset=0mm|HoleType=Round|Shape=RoundedRectangle|*
%AMROUNDEDRECTD17*
21,1,0.8397,0.0000,0,0,270.0*
21,1,0.5972,0.2425,0,0,270.0*
1,1,0.2425,0.0000,-0.2986*
1,1,0.2425,0.0000,0.2986*
1,1,0.2425,0.0000,0.2986*
1,1,0.2425,0.0000,-0.2986*
%
%ADD17ROUNDEDRECTD17*%
%ADD18R,0.2425X0.8397*%
%ADD26R,1.1500X0.6000*%
%ADD27R,1.1500X0.3000*%
%ADD30R,1.5500X1.3000*%
G04:AMPARAMS|DCode=33|XSize=1.3571mm|YSize=0.5721mm|CornerRadius=0.2861mm|HoleSize=0mm|Usage=FLASHONLY|Rotation=0.000|XOffset=0mm|YOffset=0mm|HoleType=Round|Shape=RoundedRectangle|*
%AMROUNDEDRECTD33*
21,1,1.3571,0.0000,0,0,0.0*
21,1,0.7850,0.5721,0,0,0.0*
1,1,0.5721,0.3925,0.0000*
1,1,0.5721,-0.3925,0.0000*
1,1,0.5721,-0.3925,0.0000*
1,1,0.5721,0.3925,0.0000*
%
%ADD33ROUNDEDRECTD33*%
%ADD34R,1.3571X0.5721*%
%ADD37R,2.0500X2.0500*%
%ADD38R,0.7016X0.5916*%
%ADD39R,0.5916X0.7016*%
G04:AMPARAMS|DCode=40|XSize=0.7416mm|YSize=0.8216mm|CornerRadius=0.1308mm|HoleSize=0mm|Usage=FLASHONLY|Rotation=180.000|XOffset=0mm|YOffset=0mm|HoleType=Round|Shape=RoundedRectangle|*
%AMROUNDEDRECTD40*
21,1,0.7416,0.5600,0,0,180.0*
21,1,0.4800,0.8216,0,0,180.0*
1,1,0.2616,-0.2400,0.2800*
1,1,0.2616,0.2400,0.2800*
1,1,0.2616,0.2400,-0.2800*
1,1,0.2616,-0.2400,-0.2800*
%
%ADD40ROUNDEDRECTD40*%
%ADD41R,0.9016X0.9016*%
%ADD42R,0.5016X0.9016*%
%ADD43R,0.9016X0.5016*%
%ADD44R,1.3016X1.3016*%
G04:AMPARAMS|DCode=45|XSize=3.3016mm|YSize=1.8516mm|CornerRadius=0.1033mm|HoleSize=0mm|Usage=FLASHONLY|Rotation=90.000|XOffset=0mm|YOffset=0mm|HoleType=Round|Shape=RoundedRectangle|*
%AMROUNDEDRECTD45*
21,1,3.3016,1.6450,0,0,90.0*
21,1,3.0950,1.8516,0,0,90.0*
1,1,0.2066,0.8225,1.5475*
1,1,0.2066,0.8225,-1.5475*
1,1,0.2066,-0.8225,-1.5475*
1,1,0.2066,-0.8225,1.5475*
%
%ADD45ROUNDEDRECTD45*%
G04:AMPARAMS|DCode=46|XSize=1.0016mm|YSize=1.8516mm|CornerRadius=0.1003mm|HoleSize=0mm|Usage=FLASHONLY|Rotation=90.000|XOffset=0mm|YOffset=0mm|HoleType=Round|Shape=RoundedRectangle|*
%AMROUNDEDRECTD46*
21,1,1.0016,1.6510,0,0,90.0*
21,1,0.8010,1.8516,0,0,90.0*
1,1,0.2006,0.8255,0.4005*
1,1,0.2006,0.8255,-0.4005*
1,1,0.2006,-0.8255,-0.4005*
1,1,0.2006,-0.8255,0.4005*
%
%ADD46ROUNDEDRECTD46*%
G04:AMPARAMS|DCode=47|XSize=0.7416mm|YSize=0.8216mm|CornerRadius=0.1308mm|HoleSize=0mm|Usage=FLASHONLY|Rotation=90.000|XOffset=0mm|YOffset=0mm|HoleType=Round|Shape=RoundedRectangle|*
%AMROUNDEDRECTD47*
21,1,0.7416,0.5600,0,0,90.0*
21,1,0.4800,0.8216,0,0,90.0*
1,1,0.2616,0.2800,0.2400*
1,1,0.2616,0.2800,-0.2400*
1,1,0.2616,-0.2800,-0.2400*
1,1,0.2616,-0.2800,0.2400*
%
%ADD47ROUNDEDRECTD47*%
%ADD48R,0.8016X0.7016*%
%ADD49R,0.4516X0.7016*%
%ADD50R,0.7016X0.4516*%
G04:AMPARAMS|DCode=51|XSize=1mm|YSize=2.2mm|CornerRadius=0.5mm|HoleSize=0mm|Usage=FLASHONLY|Rotation=270.000|XOffset=0mm|YOffset=0mm|HoleType=Round|Shape=RoundedRectangle|*
%AMROUNDEDRECTD51*
21,1,1.0000,1.2000,0,0,270.0*
21,1,0.0000,2.2000,0,0,270.0*
1,1,1.0000,-0.6000,0.0000*
1,1,1.0000,-0.6000,0.0000*
1,1,1.0000,0.6000,0.0000*
1,1,1.0000,0.6000,0.0000*
%
%ADD51ROUNDEDRECTD51*%
G04:AMPARAMS|DCode=52|XSize=1mm|YSize=1.8mm|CornerRadius=0.5mm|HoleSize=0mm|Usage=FLASHONLY|Rotation=270.000|XOffset=0mm|YOffset=0mm|HoleType=Round|Shape=RoundedRectangle|*
%AMROUNDEDRECTD52*
21,1,1.0000,0.8000,0,0,270.0*
21,1,0.0000,1.8000,0,0,270.0*
1,1,1.0000,-0.4000,0.0000*
1,1,1.0000,-0.4000,0.0000*
1,1,1.0000,0.4000,0.0000*
1,1,1.0000,0.4000,0.0000*
%
%ADD52ROUNDEDRECTD52*%
%ADD53R,1.1176X1.1176*%
%ADD54C,1.1176*%
%ADD55R,1.1176X1.1176*%
%ADD56C,1.7272*%
%ADD57R,1.7272X1.7272*%
G36*
X256667Y51009D02*
X256684D01*
Y51026D01*
X256701D01*
Y51043D01*
X256736D01*
Y51061D01*
X256770D01*
Y51078D01*
X256805D01*
Y51095D01*
X256822D01*
Y51112D01*
X256857D01*
Y51130D01*
X256891D01*
Y51147D01*
X256909D01*
Y51164D01*
X256943D01*
Y51182D01*
X256978D01*
Y51199D01*
X257013D01*
Y51216D01*
X257030D01*
Y51234D01*
X257064D01*
Y51251D01*
X257099D01*
Y51268D01*
X257134D01*
Y51285D01*
X257151D01*
Y51303D01*
X257186D01*
Y51320D01*
X257220D01*
Y51337D01*
X257255D01*
Y51355D01*
X257272D01*
Y51372D01*
X257307D01*
Y51389D01*
X257341D01*
Y51407D01*
X257359D01*
Y51424D01*
X257393D01*
Y51441D01*
X257428D01*
Y51458D01*
X257462D01*
Y51476D01*
X257480D01*
Y51493D01*
X257514D01*
Y51510D01*
X257549D01*
Y51528D01*
X257584D01*
Y51545D01*
X257601D01*
Y51562D01*
X257635D01*
Y51579D01*
X257670D01*
Y51597D01*
X257705D01*
Y51614D01*
X257722D01*
Y51631D01*
X257756D01*
Y51649D01*
X257791D01*
Y51666D01*
X257808D01*
Y51683D01*
X257843D01*
Y51701D01*
X257878D01*
Y51718D01*
X257912D01*
Y51735D01*
X257929D01*
Y51753D01*
X257964D01*
Y51770D01*
X257999D01*
Y51787D01*
X258033D01*
Y51804D01*
X258050D01*
Y51822D01*
X258085D01*
Y51839D01*
X258120D01*
Y51856D01*
X258137D01*
Y51874D01*
X258172D01*
Y51891D01*
X258206D01*
Y51908D01*
X258241D01*
Y51926D01*
X258258D01*
Y51943D01*
X258293D01*
Y51960D01*
X258327D01*
Y51977D01*
X258362D01*
Y51995D01*
X258379D01*
Y52012D01*
X258414D01*
Y52029D01*
X258448D01*
Y52047D01*
X258483D01*
Y52064D01*
X258500D01*
Y52081D01*
X258535D01*
Y52098D01*
X258569D01*
Y52116D01*
X258587D01*
Y52133D01*
X258621D01*
Y52150D01*
X258656D01*
Y52168D01*
X258690D01*
Y52185D01*
X258708D01*
Y52202D01*
X258742D01*
Y52220D01*
X258777D01*
Y52237D01*
X258812D01*
Y52254D01*
X258829D01*
Y52271D01*
X258864D01*
Y52289D01*
X258898D01*
Y52306D01*
X258933D01*
Y52323D01*
X258950D01*
Y52341D01*
X258985D01*
Y52358D01*
X259019D01*
Y52375D01*
X259037D01*
Y52393D01*
X259071D01*
Y52410D01*
X259106D01*
Y52427D01*
X259140D01*
Y52444D01*
X259158D01*
Y52462D01*
X259192D01*
Y52479D01*
X259227D01*
Y52496D01*
X259261D01*
Y52514D01*
X259279D01*
Y52531D01*
X259313D01*
Y52548D01*
X259348D01*
Y52565D01*
X259382D01*
Y52583D01*
X259400D01*
Y52600D01*
X259434D01*
Y52617D01*
X259469D01*
Y52635D01*
X259486D01*
Y52652D01*
X259521D01*
Y52669D01*
X259555D01*
Y52687D01*
X259590D01*
Y52704D01*
X259607D01*
Y52721D01*
X259642D01*
Y52738D01*
X259676D01*
Y52756D01*
X259711D01*
Y52773D01*
X259728D01*
Y52790D01*
X259763D01*
Y52808D01*
X259798D01*
Y52825D01*
X259815D01*
Y52842D01*
X259849D01*
Y52860D01*
X259884D01*
Y52877D01*
X259919D01*
Y52894D01*
X259936D01*
Y52912D01*
X259971D01*
Y52929D01*
X260005D01*
Y52946D01*
X260040D01*
Y52963D01*
X260057D01*
Y52981D01*
X260092D01*
Y52998D01*
X260126D01*
Y53015D01*
X260161D01*
Y53032D01*
X260178D01*
Y53050D01*
X260213D01*
Y53067D01*
X260247D01*
Y53084D01*
X260265D01*
Y53102D01*
X260299D01*
Y53119D01*
X260334D01*
Y53136D01*
X260368D01*
Y53154D01*
X260386D01*
Y53171D01*
X260420D01*
Y53188D01*
X260455D01*
Y53205D01*
X260490D01*
Y53223D01*
X260507D01*
Y53240D01*
X260541D01*
Y53257D01*
X260576D01*
Y53275D01*
X260611D01*
Y53292D01*
X260628D01*
Y53309D01*
X260662D01*
Y53327D01*
X260697D01*
Y53344D01*
X260714D01*
Y53361D01*
X260749D01*
Y53379D01*
X260784D01*
Y53396D01*
X260818D01*
Y53413D01*
X260835D01*
Y53430D01*
X260870D01*
Y53448D01*
X260905D01*
Y53465D01*
X260939D01*
Y53482D01*
X260957D01*
Y53500D01*
X260991D01*
Y53517D01*
X261026D01*
Y53534D01*
X261043D01*
Y53552D01*
X261078D01*
Y53569D01*
X261112D01*
Y53586D01*
X261147D01*
Y53603D01*
X261164D01*
Y53621D01*
X261199D01*
Y53638D01*
X261233D01*
Y53655D01*
X261268D01*
Y53673D01*
X261285D01*
Y53690D01*
X261320D01*
Y53707D01*
X261354D01*
Y53724D01*
X261389D01*
Y53742D01*
X261406D01*
Y53759D01*
X261441D01*
Y53776D01*
X261476D01*
Y53794D01*
X261493D01*
Y53811D01*
X261527D01*
Y53828D01*
X261562D01*
Y53846D01*
X261597D01*
Y53863D01*
X261631D01*
Y53811D01*
X261666D01*
Y53794D01*
X261683D01*
Y53776D01*
X261718D01*
Y53759D01*
X261752D01*
Y53742D01*
X261770D01*
Y53724D01*
X261804D01*
Y53707D01*
X261839D01*
Y53690D01*
X261873D01*
Y53673D01*
X261891D01*
Y53655D01*
X261925D01*
Y53638D01*
X261960D01*
Y53621D01*
X261977D01*
Y53603D01*
X262012D01*
Y53586D01*
X262046D01*
Y53569D01*
X262081D01*
Y53552D01*
X262098D01*
Y53534D01*
X262133D01*
Y53517D01*
X262167D01*
Y53500D01*
X262185D01*
Y53482D01*
X262219D01*
Y53465D01*
X262254D01*
Y53448D01*
X262288D01*
Y53430D01*
X262306D01*
Y53413D01*
X262340D01*
Y53396D01*
X262375D01*
Y53379D01*
X262392D01*
Y53361D01*
X262427D01*
Y53344D01*
X262461D01*
Y53327D01*
X262496D01*
Y53309D01*
X262513D01*
Y53292D01*
X262548D01*
Y53275D01*
X262582D01*
Y53257D01*
X262600D01*
Y53240D01*
X262634D01*
Y53223D01*
X262669D01*
Y53205D01*
X262686D01*
Y53188D01*
X262721D01*
Y53171D01*
X262756D01*
Y53154D01*
X262790D01*
Y53136D01*
X262807D01*
Y53119D01*
X262842D01*
Y53102D01*
X262877D01*
Y53084D01*
X262894D01*
Y53067D01*
X262929D01*
Y53050D01*
X262963D01*
Y53032D01*
X262998D01*
Y53015D01*
X263015D01*
Y52998D01*
X263050D01*
Y52981D01*
X263084D01*
Y52963D01*
X263102D01*
Y52946D01*
X263136D01*
Y52929D01*
X263171D01*
Y52912D01*
X263205D01*
Y52894D01*
X263223D01*
Y52877D01*
X263257D01*
Y52860D01*
X263292D01*
Y52842D01*
X263309D01*
Y52825D01*
X263344D01*
Y52808D01*
X263378D01*
Y52790D01*
X263413D01*
Y52773D01*
X263430D01*
Y52756D01*
X263465D01*
Y52738D01*
X263499D01*
Y52721D01*
X263517D01*
Y52704D01*
X263551D01*
Y52687D01*
X263586D01*
Y52669D01*
X263620D01*
Y52652D01*
X263638D01*
Y52635D01*
X263672D01*
Y52617D01*
X263707D01*
Y52600D01*
X263724D01*
Y52583D01*
X263759D01*
Y52565D01*
X263793D01*
Y52548D01*
X263811D01*
Y52531D01*
X263845D01*
Y52514D01*
X263880D01*
Y52496D01*
X263915D01*
Y52479D01*
X263932D01*
Y52462D01*
X263966D01*
Y52444D01*
X264001D01*
Y52427D01*
X264018D01*
Y52410D01*
X264053D01*
Y52393D01*
X264088D01*
Y52375D01*
X264122D01*
Y52358D01*
X264139D01*
Y52341D01*
X264174D01*
Y52323D01*
X264209D01*
Y52306D01*
X264226D01*
Y52289D01*
X264260D01*
Y52271D01*
X264295D01*
Y52254D01*
X264330D01*
Y52237D01*
X264347D01*
Y52220D01*
X264382D01*
Y52202D01*
X264416D01*
Y52185D01*
X264433D01*
Y52168D01*
X264468D01*
Y52150D01*
X264503D01*
Y52133D01*
X264537D01*
Y52116D01*
X264555D01*
Y52098D01*
X264589D01*
Y52081D01*
X264624D01*
Y52064D01*
X264641D01*
Y52047D01*
X264676D01*
Y52029D01*
X264710D01*
Y52012D01*
X264745D01*
Y51995D01*
X264762D01*
Y51977D01*
X264797D01*
Y51960D01*
X264831D01*
Y51943D01*
X264849D01*
Y51926D01*
X264883D01*
Y51908D01*
X264918D01*
Y51891D01*
X264935D01*
Y51874D01*
X264970D01*
Y51856D01*
X265004D01*
Y51839D01*
X265039D01*
Y51822D01*
X265056D01*
Y51804D01*
X265091D01*
Y51787D01*
X265125D01*
Y51770D01*
X265143D01*
Y51753D01*
X265177D01*
Y51735D01*
X265212D01*
Y51718D01*
X265246D01*
Y51701D01*
X265264D01*
Y51683D01*
X265298D01*
Y51666D01*
X265333D01*
Y51649D01*
X265350D01*
Y51631D01*
X265385D01*
Y51614D01*
X265419D01*
Y51597D01*
X265454D01*
Y51579D01*
X265471D01*
Y51562D01*
X265506D01*
Y51545D01*
X265541D01*
Y51528D01*
X265558D01*
Y51510D01*
X265592D01*
Y51493D01*
X265627D01*
Y51476D01*
X265662D01*
Y51458D01*
X265679D01*
Y51441D01*
X265714D01*
Y51424D01*
X265748D01*
Y51407D01*
X265765D01*
Y51389D01*
X265800D01*
Y51372D01*
X265835D01*
Y51355D01*
X265869D01*
Y51337D01*
X265886D01*
Y51320D01*
X265921D01*
Y51303D01*
X265956D01*
Y51285D01*
X265973D01*
Y51268D01*
X266007D01*
Y51251D01*
X266042D01*
Y51234D01*
X266059D01*
Y51216D01*
X266094D01*
Y51199D01*
X266129D01*
Y51182D01*
X266163D01*
Y51164D01*
X266180D01*
Y51147D01*
X266215D01*
Y51130D01*
X266250D01*
Y51112D01*
X266267D01*
Y51095D01*
X266302D01*
Y51078D01*
X266336D01*
Y51061D01*
X266371D01*
Y51043D01*
X266388D01*
Y51026D01*
X266423D01*
Y51009D01*
X266457D01*
Y50991D01*
X266475D01*
Y50974D01*
X266509D01*
Y50957D01*
X266544D01*
Y50939D01*
X266578D01*
Y50922D01*
X266596D01*
Y50905D01*
X266630D01*
Y50888D01*
X266665D01*
Y50870D01*
X266682D01*
Y50853D01*
X266717D01*
Y50836D01*
X266751D01*
Y50818D01*
X266786D01*
Y50801D01*
X266803D01*
Y50784D01*
X266838D01*
Y50767D01*
X266872D01*
Y50749D01*
X266890D01*
Y50732D01*
X266924D01*
Y50715D01*
X266959D01*
Y50697D01*
X266994D01*
Y50680D01*
X267011D01*
Y50663D01*
X267045D01*
Y50645D01*
X267080D01*
Y50628D01*
X267097D01*
Y50611D01*
X267132D01*
Y50594D01*
X267167D01*
Y50576D01*
X267184D01*
Y50559D01*
X267218D01*
Y50542D01*
X267253D01*
Y50524D01*
X267288D01*
Y50507D01*
X267305D01*
Y50490D01*
X267339D01*
Y50472D01*
X267374D01*
Y50455D01*
X267391D01*
Y50438D01*
X267426D01*
Y50421D01*
X267461D01*
Y50403D01*
X267495D01*
Y50386D01*
X267512D01*
Y50369D01*
X267547D01*
Y50351D01*
X267582D01*
Y50334D01*
X267599D01*
Y50317D01*
X267633D01*
Y50300D01*
X267668D01*
Y50282D01*
X267703D01*
Y50265D01*
X267720D01*
Y50248D01*
X267755D01*
Y50230D01*
X267789D01*
Y50213D01*
X267806D01*
Y50196D01*
X267841D01*
Y50178D01*
X267876D01*
Y50161D01*
X267910D01*
Y50144D01*
X267928D01*
Y50127D01*
X267962D01*
Y50109D01*
X267997D01*
Y50092D01*
X268014D01*
Y50075D01*
X268049D01*
Y50057D01*
X268083D01*
Y50040D01*
X268118D01*
Y50023D01*
X268135D01*
Y50005D01*
X268170D01*
Y49988D01*
X268204D01*
Y49971D01*
X268222D01*
Y49953D01*
X268256D01*
Y49936D01*
X268291D01*
Y49919D01*
X268308D01*
Y49902D01*
X268343D01*
Y49884D01*
X268377D01*
Y49867D01*
X268412D01*
Y49850D01*
X268429D01*
Y49832D01*
X268464D01*
Y49815D01*
X268498D01*
Y49798D01*
X268516D01*
Y49781D01*
X268550D01*
Y49763D01*
X268585D01*
Y49746D01*
X268619D01*
Y49729D01*
X268637D01*
Y49711D01*
X268671D01*
Y49694D01*
X268706D01*
Y49677D01*
X268723D01*
Y49660D01*
X268758D01*
Y49642D01*
X268792D01*
Y49625D01*
X268827D01*
Y49608D01*
X268844D01*
Y49590D01*
X268879D01*
Y49573D01*
X268914D01*
Y49556D01*
X268931D01*
Y49538D01*
X268965D01*
Y49521D01*
X269000D01*
Y49504D01*
X269035D01*
Y49486D01*
X269052D01*
Y49469D01*
X269087D01*
Y49452D01*
X269121D01*
Y49435D01*
X269139D01*
Y49417D01*
X269173D01*
Y49400D01*
X269208D01*
Y49383D01*
X269242D01*
Y49365D01*
X269259D01*
Y49348D01*
X269294D01*
Y49331D01*
X269329D01*
Y49314D01*
X269346D01*
Y49296D01*
X269381D01*
Y49279D01*
X269415D01*
Y49262D01*
X269433D01*
Y49244D01*
X269467D01*
Y49227D01*
X269502D01*
Y49210D01*
X269536D01*
Y49192D01*
X269554D01*
Y49175D01*
X269588D01*
Y49158D01*
X269623D01*
Y49141D01*
X269640D01*
Y49123D01*
X269675D01*
Y49106D01*
X269709D01*
Y49089D01*
X269744D01*
Y49071D01*
X269761D01*
Y49054D01*
X269796D01*
Y49037D01*
X269830D01*
Y49019D01*
X269848D01*
Y49002D01*
X269882D01*
Y48985D01*
X269917D01*
Y48967D01*
X269951D01*
Y48950D01*
X269969D01*
Y48933D01*
X270003D01*
Y48916D01*
X270038D01*
Y48898D01*
X270055D01*
Y48881D01*
X270090D01*
Y48864D01*
X270124D01*
Y48847D01*
X270159D01*
Y48829D01*
X270176D01*
Y48812D01*
X270211D01*
Y48795D01*
X270245D01*
Y48777D01*
X270263D01*
Y48760D01*
X270297D01*
Y48743D01*
X270332D01*
Y48725D01*
X270367D01*
Y48708D01*
X270384D01*
Y48691D01*
X270418D01*
Y48674D01*
X270453D01*
Y48656D01*
X270470D01*
Y48639D01*
X270505D01*
Y48622D01*
X270540D01*
Y48604D01*
X270557D01*
Y48587D01*
X270592D01*
Y48570D01*
X270626D01*
Y48552D01*
X270661D01*
Y48535D01*
X270678D01*
Y48518D01*
X270713D01*
Y48500D01*
X270747D01*
Y48483D01*
X270765D01*
Y48466D01*
X270799D01*
Y48449D01*
X270834D01*
Y48431D01*
X270868D01*
Y48414D01*
X270886D01*
Y48397D01*
X270920D01*
Y48379D01*
X270955D01*
Y48362D01*
X270972D01*
Y48345D01*
X271007D01*
Y48310D01*
X270972D01*
Y48293D01*
X270937D01*
Y48276D01*
X270920D01*
Y48258D01*
X270886D01*
Y48241D01*
X270851D01*
Y48224D01*
X270816D01*
Y48206D01*
X270799D01*
Y48189D01*
X270765D01*
Y48172D01*
X270730D01*
Y48155D01*
X270713D01*
Y48137D01*
X270678D01*
Y48120D01*
X270643D01*
Y48103D01*
X270609D01*
Y48085D01*
X270592D01*
Y48068D01*
X270557D01*
Y48051D01*
X270522D01*
Y48033D01*
X270488D01*
Y48016D01*
X270470D01*
Y47999D01*
X270436D01*
Y47982D01*
X270401D01*
Y47964D01*
X270367D01*
Y47947D01*
X270349D01*
Y47930D01*
X270315D01*
Y47912D01*
X270280D01*
Y47895D01*
X270263D01*
Y47878D01*
X270228D01*
Y47860D01*
X270194D01*
Y47843D01*
X270159D01*
Y47826D01*
X270142D01*
Y47809D01*
X270107D01*
Y47791D01*
X270072D01*
Y47774D01*
X270038D01*
Y47757D01*
X270021D01*
Y47739D01*
X269986D01*
Y47722D01*
X269951D01*
Y47705D01*
X269934D01*
Y47688D01*
X269900D01*
Y47670D01*
X269865D01*
Y47653D01*
X269830D01*
Y47636D01*
X269813D01*
Y47618D01*
X269778D01*
Y47601D01*
X269744D01*
Y47584D01*
X269709D01*
Y47566D01*
X269692D01*
Y47549D01*
X269657D01*
Y47532D01*
X269623D01*
Y47515D01*
X269588D01*
Y47497D01*
X269571D01*
Y47480D01*
X269536D01*
Y47463D01*
X269502D01*
Y47445D01*
X269484D01*
Y47428D01*
X269450D01*
Y47411D01*
X269415D01*
Y47393D01*
X269381D01*
Y47376D01*
X269363D01*
Y47359D01*
X269329D01*
Y47341D01*
X269294D01*
Y47324D01*
X269259D01*
Y47307D01*
X269242D01*
Y47290D01*
X269208D01*
Y47272D01*
X269173D01*
Y47255D01*
X269139D01*
Y47238D01*
X269121D01*
Y47221D01*
X269087D01*
Y47203D01*
X269052D01*
Y47186D01*
X269035D01*
Y47169D01*
X269000D01*
Y47151D01*
X268965D01*
Y47134D01*
X268931D01*
Y47117D01*
X268914D01*
Y47099D01*
X268879D01*
Y47082D01*
X268844D01*
Y47065D01*
X268810D01*
Y47048D01*
X268792D01*
Y47030D01*
X268758D01*
Y47013D01*
X268723D01*
Y46996D01*
X268689D01*
Y46978D01*
X268671D01*
Y46961D01*
X268637D01*
Y46944D01*
X268602D01*
Y46926D01*
X268585D01*
Y46909D01*
X268550D01*
Y46892D01*
X268516D01*
Y46874D01*
X268481D01*
Y46857D01*
X268464D01*
Y46840D01*
X268429D01*
Y46823D01*
X268395D01*
Y46805D01*
X268360D01*
Y46788D01*
X268343D01*
Y46771D01*
X268308D01*
Y46753D01*
X268274D01*
Y46736D01*
X268256D01*
Y46719D01*
X268222D01*
Y46701D01*
X268187D01*
Y46684D01*
X268153D01*
Y46667D01*
X268135D01*
Y46650D01*
X268101D01*
Y46632D01*
X268066D01*
Y46615D01*
X268031D01*
Y46598D01*
X268014D01*
Y46580D01*
X267980D01*
Y46563D01*
X267945D01*
Y46546D01*
X267910D01*
Y46529D01*
X267893D01*
Y46511D01*
X267858D01*
Y46494D01*
X267824D01*
Y46477D01*
X267806D01*
Y46459D01*
X267772D01*
Y46442D01*
X267737D01*
Y46425D01*
X267703D01*
Y46407D01*
X267685D01*
Y46390D01*
X267651D01*
Y46373D01*
X267616D01*
Y46356D01*
X267582D01*
Y46338D01*
X267564D01*
Y46321D01*
X267530D01*
Y46304D01*
X267495D01*
Y46286D01*
X267461D01*
Y46269D01*
X267443D01*
Y46252D01*
X267409D01*
Y46234D01*
X267374D01*
Y46217D01*
X267357D01*
Y46200D01*
X267322D01*
Y46183D01*
X267288D01*
Y46165D01*
X267253D01*
Y46148D01*
X267236D01*
Y46131D01*
X267201D01*
Y46113D01*
X267167D01*
Y46096D01*
X267132D01*
Y46079D01*
X267115D01*
Y46062D01*
X267080D01*
Y46044D01*
X267045D01*
Y46027D01*
X267011D01*
Y46010D01*
X266994D01*
Y45992D01*
X266959D01*
Y45975D01*
X266924D01*
Y45958D01*
X266907D01*
Y45940D01*
X266872D01*
Y45923D01*
X266838D01*
Y45906D01*
X266803D01*
Y45889D01*
X266786D01*
Y45871D01*
X266751D01*
Y45854D01*
X266717D01*
Y45837D01*
X266682D01*
Y45819D01*
X266665D01*
Y45802D01*
X266630D01*
Y45785D01*
X266596D01*
Y45767D01*
X266578D01*
Y45750D01*
X266544D01*
Y45733D01*
X266509D01*
Y45715D01*
X266475D01*
Y45698D01*
X266457D01*
Y45681D01*
X266423D01*
Y45664D01*
X266388D01*
Y45646D01*
X266353D01*
Y45629D01*
X266336D01*
Y45612D01*
X266302D01*
Y45594D01*
X266267D01*
Y45577D01*
X266232D01*
Y45560D01*
X266215D01*
Y45543D01*
X266180D01*
Y45525D01*
X266146D01*
Y45508D01*
X266129D01*
Y45491D01*
X266094D01*
Y45473D01*
X266059D01*
Y45456D01*
X266025D01*
Y45439D01*
X266007D01*
Y45422D01*
X265973D01*
Y45404D01*
X265938D01*
Y45387D01*
X265904D01*
Y45370D01*
X265886D01*
Y45352D01*
X265852D01*
Y45335D01*
X265817D01*
Y45318D01*
X265783D01*
Y45300D01*
X265765D01*
Y45283D01*
X265731D01*
Y45266D01*
X265696D01*
Y45248D01*
X265679D01*
Y45231D01*
X265644D01*
Y45214D01*
X265610D01*
Y45197D01*
X265575D01*
Y45179D01*
X265558D01*
Y45162D01*
X265523D01*
Y45145D01*
X265489D01*
Y45127D01*
X265454D01*
Y45110D01*
X265437D01*
Y45093D01*
X265402D01*
Y45075D01*
X265368D01*
Y45058D01*
X265333D01*
Y45041D01*
X265316D01*
Y45024D01*
X265281D01*
Y45006D01*
X265246D01*
Y44989D01*
X265229D01*
Y44972D01*
X265194D01*
Y44954D01*
X265160D01*
Y44937D01*
X265125D01*
Y44920D01*
X265108D01*
Y44903D01*
X265073D01*
Y44885D01*
X265039D01*
Y44868D01*
X265004D01*
Y44851D01*
X264987D01*
Y44833D01*
X264952D01*
Y44816D01*
X264918D01*
Y44799D01*
X264900D01*
Y44781D01*
X264866D01*
Y44764D01*
X264831D01*
Y44747D01*
X264797D01*
Y44730D01*
X264779D01*
Y44712D01*
X264745D01*
Y44695D01*
X264710D01*
Y44678D01*
X264676D01*
Y44660D01*
X264658D01*
Y44643D01*
X264624D01*
Y44626D01*
X264589D01*
Y44608D01*
X264555D01*
Y44591D01*
X264537D01*
Y44574D01*
X264503D01*
Y44557D01*
X264468D01*
Y44539D01*
X264451D01*
Y44522D01*
X264416D01*
Y44505D01*
X264382D01*
Y44487D01*
X264347D01*
Y44470D01*
X264330D01*
Y44453D01*
X264295D01*
Y44436D01*
X264260D01*
Y44418D01*
X264226D01*
Y44401D01*
X264209D01*
Y44384D01*
X264174D01*
Y44366D01*
X264139D01*
Y44349D01*
X264105D01*
Y44332D01*
X264088D01*
Y44314D01*
X264053D01*
Y44297D01*
X264018D01*
Y44280D01*
X264001D01*
Y44262D01*
X263966D01*
Y44245D01*
X263932D01*
Y44228D01*
X263897D01*
Y44211D01*
X263880D01*
Y44193D01*
X263845D01*
Y44176D01*
X263811D01*
Y44159D01*
X263776D01*
Y44141D01*
X263759D01*
Y44124D01*
X263724D01*
Y44107D01*
X263690D01*
Y44089D01*
X263655D01*
Y44072D01*
X263638D01*
Y44055D01*
X263603D01*
Y44038D01*
X263568D01*
Y44020D01*
X263551D01*
Y44003D01*
X263517D01*
Y43986D01*
X263482D01*
Y43968D01*
X263447D01*
Y43951D01*
X263430D01*
Y43934D01*
X263396D01*
Y43917D01*
X263361D01*
Y43899D01*
X263326D01*
Y43882D01*
X263309D01*
Y43865D01*
X263274D01*
Y43847D01*
X263240D01*
Y43830D01*
X263223D01*
Y43813D01*
X263188D01*
Y43795D01*
X263153D01*
Y43778D01*
X263119D01*
Y43761D01*
X263102D01*
Y43744D01*
X263067D01*
Y43726D01*
X263032D01*
Y43709D01*
X262998D01*
Y43692D01*
X262980D01*
Y43674D01*
X262946D01*
Y43657D01*
X262911D01*
Y43640D01*
X262877D01*
Y43622D01*
X262859D01*
Y43605D01*
X262825D01*
Y43588D01*
X262790D01*
Y43571D01*
X262773D01*
Y43553D01*
X262738D01*
Y43536D01*
X262704D01*
Y43519D01*
X262669D01*
Y43501D01*
X262652D01*
Y43484D01*
X262617D01*
Y43467D01*
X262582D01*
Y43450D01*
X262548D01*
Y43432D01*
X262531D01*
Y43415D01*
X262496D01*
Y43398D01*
X262461D01*
Y43380D01*
X262427D01*
Y43363D01*
X262410D01*
Y43346D01*
X262375D01*
Y43328D01*
X262340D01*
Y43311D01*
X262323D01*
Y43294D01*
X262288D01*
Y43277D01*
X262254D01*
Y43259D01*
X262219D01*
Y43242D01*
X262202D01*
Y43225D01*
X262167D01*
Y43207D01*
X262133D01*
Y43190D01*
X262098D01*
Y43173D01*
X262081D01*
Y43155D01*
X262046D01*
Y43138D01*
X262012D01*
Y43121D01*
X261977D01*
Y43103D01*
X261960D01*
Y43086D01*
X261925D01*
Y43069D01*
X261891D01*
Y43052D01*
X261873D01*
Y43034D01*
X261839D01*
Y43017D01*
X261804D01*
Y43000D01*
X261770D01*
Y42983D01*
X261752D01*
Y42965D01*
X261718D01*
Y42948D01*
X261683D01*
Y42931D01*
X261648D01*
Y42913D01*
X261631D01*
Y42896D01*
X261579D01*
Y42913D01*
X261545D01*
Y42931D01*
X261510D01*
Y42948D01*
X261493D01*
Y42965D01*
X261458D01*
Y42983D01*
X261424D01*
Y43000D01*
X261406D01*
Y43017D01*
X261372D01*
Y43034D01*
X261337D01*
Y43052D01*
X261303D01*
Y43069D01*
X261285D01*
Y43086D01*
X261251D01*
Y43103D01*
X261216D01*
Y43121D01*
X261199D01*
Y43138D01*
X261164D01*
Y43155D01*
X261129D01*
Y43173D01*
X261095D01*
Y43190D01*
X261078D01*
Y43207D01*
X261043D01*
Y43225D01*
X261008D01*
Y43242D01*
X260991D01*
Y43259D01*
X260957D01*
Y43277D01*
X260922D01*
Y43294D01*
X260887D01*
Y43311D01*
X260870D01*
Y43328D01*
X260835D01*
Y43346D01*
X260801D01*
Y43363D01*
X260784D01*
Y43380D01*
X260749D01*
Y43398D01*
X260714D01*
Y43415D01*
X260680D01*
Y43432D01*
X260662D01*
Y43450D01*
X260628D01*
Y43467D01*
X260593D01*
Y43484D01*
X260576D01*
Y43501D01*
X260541D01*
Y43519D01*
X260507D01*
Y43536D01*
X260472D01*
Y43553D01*
X260455D01*
Y43571D01*
X260420D01*
Y43588D01*
X260386D01*
Y43605D01*
X260351D01*
Y43622D01*
X260334D01*
Y43640D01*
X260299D01*
Y43657D01*
X260265D01*
Y43674D01*
X260247D01*
Y43692D01*
X260213D01*
Y43709D01*
X260178D01*
Y43726D01*
X260144D01*
Y43744D01*
X260126D01*
Y43761D01*
X260092D01*
Y43778D01*
X260057D01*
Y43795D01*
X260040D01*
Y43813D01*
X260005D01*
Y43830D01*
X259971D01*
Y43847D01*
X259936D01*
Y43865D01*
X259919D01*
Y43882D01*
X259884D01*
Y43899D01*
X259849D01*
Y43917D01*
X259832D01*
Y43934D01*
X259798D01*
Y43951D01*
X259763D01*
Y43968D01*
X259728D01*
Y43986D01*
X259711D01*
Y44003D01*
X259676D01*
Y44020D01*
X259642D01*
Y44038D01*
X259625D01*
Y44055D01*
X259590D01*
Y44072D01*
X259555D01*
Y44089D01*
X259521D01*
Y44107D01*
X259503D01*
Y44124D01*
X259469D01*
Y44141D01*
X259434D01*
Y44159D01*
X259417D01*
Y44176D01*
X259382D01*
Y44193D01*
X259348D01*
Y44211D01*
X259313D01*
Y44228D01*
X259296D01*
Y44245D01*
X259261D01*
Y44262D01*
X259227D01*
Y44280D01*
X259209D01*
Y44297D01*
X259175D01*
Y44314D01*
X259140D01*
Y44332D01*
X259106D01*
Y44349D01*
X259088D01*
Y44366D01*
X259054D01*
Y44384D01*
X259019D01*
Y44401D01*
X258985D01*
Y44418D01*
X258967D01*
Y44436D01*
X258933D01*
Y44453D01*
X258898D01*
Y44470D01*
X258881D01*
Y44487D01*
X258846D01*
Y44505D01*
X258812D01*
Y44522D01*
X258777D01*
Y44539D01*
X258760D01*
Y44557D01*
X258725D01*
Y44574D01*
X258690D01*
Y44591D01*
X258673D01*
Y44608D01*
X258639D01*
Y44626D01*
X258604D01*
Y44643D01*
X258569D01*
Y44660D01*
X258552D01*
Y44678D01*
X258517D01*
Y44695D01*
X258483D01*
Y44712D01*
X258466D01*
Y44730D01*
X258431D01*
Y44747D01*
X258396D01*
Y44764D01*
X258362D01*
Y44781D01*
X258345D01*
Y44799D01*
X258310D01*
Y44816D01*
X258275D01*
Y44833D01*
X258258D01*
Y44851D01*
X258223D01*
Y44868D01*
X258189D01*
Y44885D01*
X258154D01*
Y44903D01*
X258137D01*
Y44920D01*
X258102D01*
Y44937D01*
X258068D01*
Y44954D01*
X258050D01*
Y44972D01*
X258016D01*
Y44989D01*
X257981D01*
Y45006D01*
X257947D01*
Y45024D01*
X257929D01*
Y45041D01*
X257895D01*
Y45058D01*
X257860D01*
Y45075D01*
X257826D01*
Y45093D01*
X257808D01*
Y45110D01*
X257774D01*
Y45127D01*
X257739D01*
Y45145D01*
X257722D01*
Y45162D01*
X257687D01*
Y45179D01*
X257653D01*
Y45197D01*
X257618D01*
Y45214D01*
X257601D01*
Y45231D01*
X257566D01*
Y45248D01*
X257532D01*
Y45266D01*
X257514D01*
Y45283D01*
X257480D01*
Y45300D01*
X257445D01*
Y45318D01*
X257411D01*
Y45335D01*
X257393D01*
Y45352D01*
X257359D01*
Y45370D01*
X257324D01*
Y45387D01*
X257307D01*
Y45404D01*
X257272D01*
Y45422D01*
X257237D01*
Y45439D01*
X257203D01*
Y45456D01*
X257186D01*
Y45473D01*
X257151D01*
Y45491D01*
X257116D01*
Y45508D01*
X257099D01*
Y45525D01*
X257064D01*
Y45543D01*
X257030D01*
Y45560D01*
X256995D01*
Y45577D01*
X256978D01*
Y45594D01*
X256943D01*
Y45612D01*
X256909D01*
Y45629D01*
X256891D01*
Y45646D01*
X256857D01*
Y45664D01*
X256822D01*
Y45681D01*
X256788D01*
Y45698D01*
X256770D01*
Y45715D01*
X256736D01*
Y45733D01*
X256701D01*
Y45750D01*
X256684D01*
Y45767D01*
X256649D01*
Y45785D01*
X256615D01*
Y45802D01*
X256580D01*
Y45819D01*
X256563D01*
Y45837D01*
X256528D01*
Y45854D01*
X256494D01*
Y45871D01*
X256459D01*
Y45889D01*
X256442D01*
Y45906D01*
X256407D01*
Y45923D01*
X256373D01*
Y45940D01*
X256355D01*
Y45958D01*
X256321D01*
Y45975D01*
X256286D01*
Y45992D01*
X256252D01*
Y46010D01*
X256234D01*
Y46027D01*
X256200D01*
Y46044D01*
X256165D01*
Y46062D01*
X256148D01*
Y46079D01*
X256113D01*
Y46096D01*
X256078D01*
Y46113D01*
X256044D01*
Y46131D01*
X256027D01*
Y46148D01*
X255992D01*
Y46165D01*
X255958D01*
Y46183D01*
X255940D01*
Y46200D01*
X255906D01*
Y46217D01*
X255871D01*
Y46234D01*
X255836D01*
Y46252D01*
X255819D01*
Y46269D01*
X255784D01*
Y46286D01*
X255750D01*
Y46304D01*
X255733D01*
Y46321D01*
X255698D01*
Y46338D01*
X255663D01*
Y46356D01*
X255629D01*
Y46373D01*
X255611D01*
Y46390D01*
X255577D01*
Y46407D01*
X255542D01*
Y46425D01*
X255525D01*
Y46442D01*
X255490D01*
Y46459D01*
X255456D01*
Y46477D01*
X255421D01*
Y46494D01*
X255404D01*
Y46511D01*
X255369D01*
Y46529D01*
X255335D01*
Y46546D01*
X255317D01*
Y46563D01*
X255283D01*
Y46580D01*
X255248D01*
Y46598D01*
X255214D01*
Y46615D01*
X255196D01*
Y46632D01*
X255162D01*
Y46650D01*
X255127D01*
Y46667D01*
X255093D01*
Y46684D01*
X255075D01*
Y46701D01*
X255041D01*
Y46719D01*
X255006D01*
Y46736D01*
X254989D01*
Y46753D01*
X254954D01*
Y46771D01*
X254920D01*
Y46788D01*
X254885D01*
Y46805D01*
X254868D01*
Y46823D01*
X254833D01*
Y46840D01*
X254799D01*
Y46857D01*
X254781D01*
Y46874D01*
X254747D01*
Y46892D01*
X254712D01*
Y46909D01*
X254677D01*
Y46926D01*
X254660D01*
Y46944D01*
X254625D01*
Y46961D01*
X254591D01*
Y46978D01*
X254574D01*
Y46996D01*
X254539D01*
Y47013D01*
X254504D01*
Y47030D01*
X254470D01*
Y47048D01*
X254452D01*
Y47065D01*
X254418D01*
Y47082D01*
X254383D01*
Y47099D01*
X254366D01*
Y47117D01*
X254331D01*
Y47134D01*
X254297D01*
Y47151D01*
X254262D01*
Y47169D01*
X254245D01*
Y47186D01*
X254210D01*
Y47203D01*
X254176D01*
Y47221D01*
X254158D01*
Y47238D01*
X254124D01*
Y47255D01*
X254089D01*
Y47272D01*
X254055D01*
Y47290D01*
X254037D01*
Y47307D01*
X254003D01*
Y47324D01*
X253968D01*
Y47341D01*
X253934D01*
Y47359D01*
X253916D01*
Y47376D01*
X253882D01*
Y47393D01*
X253847D01*
Y47411D01*
X253830D01*
Y47428D01*
X253795D01*
Y47445D01*
X253761D01*
Y47463D01*
X253726D01*
Y47480D01*
X253709D01*
Y47497D01*
X253674D01*
Y47515D01*
X253640D01*
Y47532D01*
X253622D01*
Y47549D01*
X253588D01*
Y47566D01*
X253553D01*
Y47584D01*
X253518D01*
Y47601D01*
X253501D01*
Y47618D01*
X253466D01*
Y47636D01*
X253432D01*
Y47653D01*
X253415D01*
Y47670D01*
X253380D01*
Y47688D01*
X253346D01*
Y47705D01*
X253311D01*
Y47722D01*
X253294D01*
Y47739D01*
X253259D01*
Y47757D01*
X253224D01*
Y47774D01*
X253207D01*
Y47791D01*
X253172D01*
Y47809D01*
X253138D01*
Y47826D01*
X253103D01*
Y47843D01*
X253086D01*
Y47860D01*
X253051D01*
Y47878D01*
X253017D01*
Y47895D01*
X252999D01*
Y47912D01*
X252965D01*
Y47930D01*
X252930D01*
Y47947D01*
X252896D01*
Y47964D01*
X252878D01*
Y47982D01*
X252844D01*
Y47999D01*
X252809D01*
Y48016D01*
X252792D01*
Y48033D01*
X252757D01*
Y48051D01*
X252723D01*
Y48068D01*
X252688D01*
Y48085D01*
X252671D01*
Y48103D01*
X252636D01*
Y48120D01*
X252602D01*
Y48137D01*
X252567D01*
Y48155D01*
X252550D01*
Y48172D01*
X252515D01*
Y48189D01*
X252481D01*
Y48206D01*
X252463D01*
Y48224D01*
X252429D01*
Y48241D01*
X252394D01*
Y48258D01*
X252360D01*
Y48276D01*
X252342D01*
Y48293D01*
X252308D01*
Y48310D01*
X252273D01*
Y48327D01*
X252256D01*
Y48345D01*
X252221D01*
Y48362D01*
X252187D01*
Y48379D01*
X252152D01*
Y48397D01*
X252169D01*
Y48414D01*
X252187D01*
Y48431D01*
X252221D01*
Y48449D01*
X252238D01*
Y48466D01*
X252273D01*
Y48483D01*
X252308D01*
Y48500D01*
X252325D01*
Y48518D01*
X252360D01*
Y48535D01*
X252394D01*
Y48552D01*
X252429D01*
Y48570D01*
X252446D01*
Y48587D01*
X252481D01*
Y48604D01*
X252515D01*
Y48622D01*
X252550D01*
Y48639D01*
X252567D01*
Y48656D01*
X252602D01*
Y48674D01*
X252636D01*
Y48691D01*
X252671D01*
Y48708D01*
X252688D01*
Y48725D01*
X252723D01*
Y48743D01*
X252757D01*
Y48760D01*
X252775D01*
Y48777D01*
X252809D01*
Y48795D01*
X252844D01*
Y48812D01*
X252878D01*
Y48829D01*
X252896D01*
Y48847D01*
X252930D01*
Y48864D01*
X252965D01*
Y48881D01*
X252999D01*
Y48898D01*
X253017D01*
Y48916D01*
X253051D01*
Y48933D01*
X253086D01*
Y48950D01*
X253121D01*
Y48967D01*
X253138D01*
Y48985D01*
X253172D01*
Y49002D01*
X253207D01*
Y49019D01*
X253224D01*
Y49037D01*
X253259D01*
Y49054D01*
X253294D01*
Y49071D01*
X253328D01*
Y49089D01*
X253346D01*
Y49106D01*
X253380D01*
Y49123D01*
X253415D01*
Y49141D01*
X253449D01*
Y49158D01*
X253466D01*
Y49175D01*
X253501D01*
Y49192D01*
X253536D01*
Y49210D01*
X253553D01*
Y49227D01*
X253588D01*
Y49244D01*
X253622D01*
Y49262D01*
X253657D01*
Y49279D01*
X253674D01*
Y49296D01*
X253709D01*
Y49314D01*
X253743D01*
Y49331D01*
X253778D01*
Y49348D01*
X253795D01*
Y49365D01*
X253830D01*
Y49383D01*
X253864D01*
Y49400D01*
X253899D01*
Y49417D01*
X253916D01*
Y49435D01*
X253951D01*
Y49452D01*
X253986D01*
Y49469D01*
X254003D01*
Y49486D01*
X254037D01*
Y49504D01*
X254072D01*
Y49521D01*
X254107D01*
Y49538D01*
X254124D01*
Y49556D01*
X254158D01*
Y49573D01*
X254193D01*
Y49590D01*
X254228D01*
Y49608D01*
X254245D01*
Y49625D01*
X254280D01*
Y49642D01*
X254314D01*
Y49660D01*
X254349D01*
Y49677D01*
X254366D01*
Y49694D01*
X254401D01*
Y49711D01*
X254435D01*
Y49729D01*
X254452D01*
Y49746D01*
X254487D01*
Y49763D01*
X254522D01*
Y49781D01*
X254556D01*
Y49798D01*
X254574D01*
Y49815D01*
X254608D01*
Y49832D01*
X254643D01*
Y49850D01*
X254677D01*
Y49867D01*
X254695D01*
Y49884D01*
X254729D01*
Y49902D01*
X254764D01*
Y49919D01*
X254799D01*
Y49936D01*
X254816D01*
Y49953D01*
X254850D01*
Y49971D01*
X254885D01*
Y49988D01*
X254902D01*
Y50005D01*
X254937D01*
Y50023D01*
X254972D01*
Y50040D01*
X255006D01*
Y50057D01*
X255023D01*
Y50075D01*
X255058D01*
Y50092D01*
X255093D01*
Y50109D01*
X255127D01*
Y50127D01*
X255144D01*
Y50144D01*
X255179D01*
Y50161D01*
X255214D01*
Y50178D01*
X255231D01*
Y50196D01*
X255266D01*
Y50213D01*
X255300D01*
Y50230D01*
X255335D01*
Y50248D01*
X255352D01*
Y50265D01*
X255387D01*
Y50282D01*
X255421D01*
Y50300D01*
X255456D01*
Y50317D01*
X255473D01*
Y50334D01*
X255508D01*
Y50351D01*
X255542D01*
Y50369D01*
X255577D01*
Y50386D01*
X255594D01*
Y50403D01*
X255629D01*
Y50421D01*
X255663D01*
Y50438D01*
X255681D01*
Y50455D01*
X255715D01*
Y50472D01*
X255750D01*
Y50490D01*
X255784D01*
Y50507D01*
X255802D01*
Y50524D01*
X255836D01*
Y50542D01*
X255871D01*
Y50559D01*
X255906D01*
Y50576D01*
X255923D01*
Y50594D01*
X255958D01*
Y50611D01*
X255992D01*
Y50628D01*
X256027D01*
Y50645D01*
X256044D01*
Y50663D01*
X256078D01*
Y50680D01*
X256113D01*
Y50697D01*
X256130D01*
Y50715D01*
X256165D01*
Y50732D01*
X256200D01*
Y50749D01*
X256234D01*
Y50767D01*
X256252D01*
Y50784D01*
X256286D01*
Y50801D01*
X256321D01*
Y50818D01*
X256355D01*
Y50836D01*
X256373D01*
Y50853D01*
X256407D01*
Y50870D01*
X256442D01*
Y50888D01*
X256459D01*
Y50905D01*
X256494D01*
Y50922D01*
X256528D01*
Y50939D01*
X256563D01*
Y50957D01*
X256580D01*
Y50974D01*
X256615D01*
Y50991D01*
X256649D01*
Y51009D01*
X256667D01*
D02*
G37*
G36*
X268325Y64501D02*
X268585D01*
Y64484D01*
X268758D01*
Y64466D01*
X268879D01*
Y64449D01*
X268965D01*
Y64432D01*
X269052D01*
Y64415D01*
X269104D01*
Y64397D01*
X269173D01*
Y64380D01*
X269225D01*
Y64363D01*
X269277D01*
Y64345D01*
X269311D01*
Y64328D01*
X269363D01*
Y64311D01*
X269398D01*
Y64293D01*
X269450D01*
Y64276D01*
X269484D01*
Y64259D01*
X269519D01*
Y64242D01*
X269536D01*
Y64224D01*
X269571D01*
Y64207D01*
X269606D01*
Y64190D01*
X269623D01*
Y64172D01*
X269657D01*
Y64155D01*
X269675D01*
Y64138D01*
X269709D01*
Y64120D01*
X269727D01*
Y64103D01*
X269744D01*
Y64086D01*
X269778D01*
Y64069D01*
X269796D01*
Y64051D01*
X269813D01*
Y64034D01*
X269830D01*
Y64017D01*
X269848D01*
Y63999D01*
X269865D01*
Y63982D01*
X269882D01*
Y63965D01*
X269900D01*
Y63948D01*
X269917D01*
Y63930D01*
X269934D01*
Y63913D01*
X269951D01*
Y63896D01*
X269969D01*
Y63878D01*
X269986D01*
Y63861D01*
X270003D01*
Y63844D01*
X270021D01*
Y63826D01*
X270038D01*
Y63809D01*
X270055D01*
Y63774D01*
X270072D01*
Y63757D01*
X270090D01*
Y63740D01*
X270107D01*
Y63705D01*
X270124D01*
Y63688D01*
X270142D01*
Y63653D01*
X270159D01*
Y63636D01*
X270176D01*
Y63601D01*
X270194D01*
Y63584D01*
X270211D01*
Y63550D01*
X270228D01*
Y63515D01*
X270245D01*
Y63481D01*
X270263D01*
Y63446D01*
X270280D01*
Y63411D01*
X270297D01*
Y63377D01*
X270315D01*
Y63325D01*
X270332D01*
Y63290D01*
X270349D01*
Y63238D01*
X270367D01*
Y63186D01*
X270384D01*
Y63100D01*
X270401D01*
Y63013D01*
X270418D01*
Y62564D01*
X270401D01*
Y62477D01*
X270384D01*
Y62391D01*
X270367D01*
Y62339D01*
X270349D01*
Y62287D01*
X270332D01*
Y62235D01*
X270315D01*
Y62200D01*
X270297D01*
Y62148D01*
X270280D01*
Y62114D01*
X270263D01*
Y62079D01*
X270245D01*
Y62062D01*
X270228D01*
Y62027D01*
X270211D01*
Y61993D01*
X270194D01*
Y61975D01*
X270176D01*
Y61941D01*
X270159D01*
Y61924D01*
X270142D01*
Y61889D01*
X270124D01*
Y61872D01*
X270107D01*
Y61855D01*
X270090D01*
Y61837D01*
X270072D01*
Y61820D01*
X270055D01*
Y61803D01*
X270038D01*
Y61785D01*
X270021D01*
Y61768D01*
X270003D01*
Y61751D01*
X269986D01*
Y61733D01*
X269969D01*
Y61716D01*
X269951D01*
Y61699D01*
X269917D01*
Y61681D01*
X269900D01*
Y61664D01*
X269882D01*
Y61647D01*
X269848D01*
Y61630D01*
X269830D01*
Y61612D01*
X269796D01*
Y61595D01*
X269761D01*
Y61578D01*
X269727D01*
Y61560D01*
X269692D01*
Y61543D01*
X269675D01*
Y61526D01*
X269709D01*
Y61508D01*
X269761D01*
Y61491D01*
X269813D01*
Y61474D01*
X269865D01*
Y61457D01*
X269900D01*
Y61439D01*
X269934D01*
Y61422D01*
X269969D01*
Y61405D01*
X270003D01*
Y61387D01*
X270038D01*
Y61370D01*
X270072D01*
Y61353D01*
X270107D01*
Y61336D01*
X270124D01*
Y61318D01*
X270159D01*
Y61301D01*
X270176D01*
Y61284D01*
X270211D01*
Y61266D01*
X270228D01*
Y61249D01*
X270245D01*
Y61232D01*
X270280D01*
Y61214D01*
X270297D01*
Y61197D01*
X270315D01*
Y61180D01*
X270332D01*
Y61163D01*
X270349D01*
Y61145D01*
X270367D01*
Y61128D01*
X270384D01*
Y61111D01*
X270401D01*
Y61093D01*
X270418D01*
Y61076D01*
X270436D01*
Y61059D01*
X270453D01*
Y61041D01*
X270470D01*
Y61024D01*
X270488D01*
Y60990D01*
X270505D01*
Y60972D01*
X270522D01*
Y60955D01*
X270540D01*
Y60920D01*
X270557D01*
Y60903D01*
X270574D01*
Y60869D01*
X270592D01*
Y60851D01*
X270609D01*
Y60817D01*
X270626D01*
Y60782D01*
X270643D01*
Y60747D01*
X270661D01*
Y60713D01*
X270678D01*
Y60678D01*
X270695D01*
Y60626D01*
X270713D01*
Y60592D01*
X270730D01*
Y60540D01*
X270747D01*
Y60488D01*
X270765D01*
Y60419D01*
X270782D01*
Y60350D01*
X270799D01*
Y60246D01*
X270816D01*
Y60090D01*
X270834D01*
Y59813D01*
X270816D01*
Y59640D01*
X270799D01*
Y59537D01*
X270782D01*
Y59467D01*
X270765D01*
Y59398D01*
X270747D01*
Y59346D01*
X270730D01*
Y59294D01*
X270713D01*
Y59243D01*
X270695D01*
Y59208D01*
X270678D01*
Y59156D01*
X270661D01*
Y59121D01*
X270643D01*
Y59087D01*
X270626D01*
Y59052D01*
X270609D01*
Y59035D01*
X270592D01*
Y59000D01*
X270574D01*
Y58966D01*
X270557D01*
Y58948D01*
X270540D01*
Y58914D01*
X270522D01*
Y58896D01*
X270505D01*
Y58862D01*
X270488D01*
Y58845D01*
X270470D01*
Y58827D01*
X270453D01*
Y58793D01*
X270436D01*
Y58775D01*
X270418D01*
Y58758D01*
X270401D01*
Y58741D01*
X270384D01*
Y58724D01*
X270367D01*
Y58689D01*
X270349D01*
Y58672D01*
X270332D01*
Y58654D01*
X270315D01*
Y58637D01*
X270297D01*
Y58620D01*
X270280D01*
Y58602D01*
X270263D01*
Y58585D01*
X270228D01*
Y58568D01*
X270211D01*
Y58551D01*
X270194D01*
Y58533D01*
X270176D01*
Y58516D01*
X270159D01*
Y58499D01*
X270142D01*
Y58481D01*
X270107D01*
Y58464D01*
X270090D01*
Y58447D01*
X270072D01*
Y58429D01*
X270038D01*
Y58412D01*
X270021D01*
Y58395D01*
X270003D01*
Y58378D01*
X269969D01*
Y58360D01*
X269951D01*
Y58343D01*
X269917D01*
Y58326D01*
X269882D01*
Y58308D01*
X269865D01*
Y58291D01*
X269830D01*
Y58274D01*
X269796D01*
Y58257D01*
X269761D01*
Y58239D01*
X269727D01*
Y58222D01*
X269692D01*
Y58205D01*
X269657D01*
Y58187D01*
X269623D01*
Y58170D01*
X269571D01*
Y58153D01*
X269536D01*
Y58135D01*
X269484D01*
Y58118D01*
X269433D01*
Y58101D01*
X269381D01*
Y58084D01*
X269311D01*
Y58066D01*
X269242D01*
Y58049D01*
X269173D01*
Y58032D01*
X269087D01*
Y58014D01*
X268983D01*
Y57997D01*
X268862D01*
Y57980D01*
X268689D01*
Y57962D01*
X268412D01*
Y57945D01*
X266423D01*
Y64518D01*
X268325D01*
Y64501D01*
D02*
G37*
G36*
X261700Y72112D02*
Y75641D01*
X261735D01*
Y75658D01*
X261752D01*
Y75676D01*
X261787D01*
Y75693D01*
X261821D01*
Y75710D01*
X261856D01*
Y75727D01*
X261873D01*
Y75745D01*
X261908D01*
Y75762D01*
X261943D01*
Y75779D01*
X261977D01*
Y75797D01*
X261994D01*
Y75814D01*
X262029D01*
Y75831D01*
X262064D01*
Y75848D01*
X262098D01*
Y75866D01*
X262115D01*
Y75883D01*
X262150D01*
Y75900D01*
X262185D01*
Y75918D01*
X262219D01*
Y75935D01*
X262237D01*
Y75952D01*
X262271D01*
Y75970D01*
X262306D01*
Y75987D01*
X262340D01*
Y76004D01*
X262358D01*
Y76021D01*
X262392D01*
Y76039D01*
X262427D01*
Y76056D01*
X262461D01*
Y76073D01*
X262479D01*
Y76091D01*
X262513D01*
Y76108D01*
X262548D01*
Y76125D01*
X262582D01*
Y76143D01*
X262600D01*
Y76160D01*
X262634D01*
Y76177D01*
X262669D01*
Y76194D01*
X262704D01*
Y76212D01*
X262721D01*
Y76229D01*
X262756D01*
Y76246D01*
X262790D01*
Y76264D01*
X262825D01*
Y76281D01*
X262842D01*
Y76298D01*
X262877D01*
Y76315D01*
X262911D01*
Y76333D01*
X262946D01*
Y76350D01*
X262963D01*
Y76367D01*
X262998D01*
Y76385D01*
X263032D01*
Y76402D01*
X263067D01*
Y76419D01*
X263084D01*
Y76437D01*
X263119D01*
Y76454D01*
X263153D01*
Y76471D01*
X263188D01*
Y76488D01*
X263205D01*
Y76506D01*
X263240D01*
Y76523D01*
X263274D01*
Y76540D01*
X263309D01*
Y76558D01*
X263326D01*
Y76575D01*
X263361D01*
Y76592D01*
X263396D01*
Y76610D01*
X263430D01*
Y76627D01*
X263447D01*
Y76644D01*
X263482D01*
Y76662D01*
X263517D01*
Y76679D01*
X263551D01*
Y76696D01*
X263568D01*
Y76713D01*
X263603D01*
Y76731D01*
X263638D01*
Y76748D01*
X263672D01*
Y76765D01*
X263690D01*
Y76782D01*
X263724D01*
Y76800D01*
X263759D01*
Y76817D01*
X263793D01*
Y76834D01*
X263811D01*
Y76852D01*
X263845D01*
Y76869D01*
X263880D01*
Y76886D01*
X263915D01*
Y76904D01*
X263932D01*
Y76921D01*
X263966D01*
Y76938D01*
X264001D01*
Y76955D01*
X264018D01*
Y76973D01*
X264053D01*
Y76990D01*
X264088D01*
Y77007D01*
X264122D01*
Y77025D01*
X264139D01*
Y77042D01*
X264174D01*
Y77059D01*
X264209D01*
Y77077D01*
X264243D01*
Y77094D01*
X264260D01*
Y77111D01*
X264295D01*
Y77129D01*
X264330D01*
Y77146D01*
X264364D01*
Y77163D01*
X264382D01*
Y77180D01*
X264416D01*
Y77198D01*
X264451D01*
Y77215D01*
X264485D01*
Y77232D01*
X264503D01*
Y77250D01*
X264537D01*
Y77267D01*
X264572D01*
Y77284D01*
X264606D01*
Y77302D01*
X264624D01*
Y77319D01*
X264658D01*
Y77336D01*
X264693D01*
Y77353D01*
X264727D01*
Y77371D01*
X264745D01*
Y77388D01*
X264779D01*
Y77405D01*
X264814D01*
Y77423D01*
X264849D01*
Y77440D01*
X264866D01*
Y77457D01*
X264900D01*
Y77474D01*
X264935D01*
Y77492D01*
X264970D01*
Y77509D01*
X264987D01*
Y77526D01*
X265021D01*
Y77544D01*
X265056D01*
Y77561D01*
X265091D01*
Y77578D01*
X265108D01*
Y77596D01*
X265143D01*
Y77613D01*
X265177D01*
Y77630D01*
X265212D01*
Y77647D01*
X265229D01*
Y77665D01*
X265264D01*
Y77682D01*
X265298D01*
Y77699D01*
X265333D01*
Y77717D01*
X265350D01*
Y77734D01*
X265385D01*
Y77751D01*
X265419D01*
Y77769D01*
X265454D01*
Y77786D01*
X265471D01*
Y77803D01*
X265506D01*
Y77820D01*
X265541D01*
Y77838D01*
X265575D01*
Y77855D01*
X265592D01*
Y77872D01*
X265627D01*
Y77890D01*
X265662D01*
Y77907D01*
X265696D01*
Y77924D01*
X265714D01*
Y77941D01*
X265748D01*
Y77959D01*
X265783D01*
Y77976D01*
X265817D01*
Y77993D01*
X265835D01*
Y78011D01*
X265869D01*
Y78028D01*
X265904D01*
Y78045D01*
X265938D01*
Y78063D01*
X265956D01*
Y78080D01*
X265990D01*
Y78097D01*
X266025D01*
Y78115D01*
X266059D01*
Y78132D01*
X266077D01*
Y78149D01*
X266111D01*
Y78166D01*
X266146D01*
Y78184D01*
X266180D01*
Y78201D01*
X266198D01*
Y78218D01*
X266232D01*
Y78236D01*
X266267D01*
Y78253D01*
X266284D01*
Y78270D01*
X266319D01*
Y78288D01*
X266353D01*
Y78305D01*
X266388D01*
Y78322D01*
X266405D01*
Y78339D01*
X266440D01*
Y78357D01*
X266475D01*
Y78374D01*
X266509D01*
Y78391D01*
X266527D01*
Y78409D01*
X266561D01*
Y78426D01*
X266596D01*
Y78443D01*
X266630D01*
Y78460D01*
X266647D01*
Y78478D01*
X266682D01*
Y78495D01*
X266717D01*
Y78512D01*
X266751D01*
Y78530D01*
X266769D01*
Y78547D01*
X266803D01*
Y78564D01*
X266838D01*
Y78582D01*
X266872D01*
Y78599D01*
X266890D01*
Y78616D01*
X266924D01*
Y78633D01*
X266959D01*
Y78651D01*
X266994D01*
Y78668D01*
X267011D01*
Y78685D01*
X267045D01*
Y78703D01*
X267080D01*
Y78720D01*
X267115D01*
Y78737D01*
X267132D01*
Y78755D01*
X267167D01*
Y78772D01*
X267201D01*
Y78789D01*
X267236D01*
Y78806D01*
X267253D01*
Y78824D01*
X267288D01*
Y78841D01*
X267322D01*
Y78858D01*
X267357D01*
Y78876D01*
X267374D01*
Y78893D01*
X267409D01*
Y78910D01*
X267443D01*
Y78927D01*
X267478D01*
Y78945D01*
X267495D01*
Y78962D01*
X267530D01*
Y78979D01*
X267564D01*
Y78997D01*
X267599D01*
Y79014D01*
X267616D01*
Y79031D01*
X267651D01*
Y79049D01*
X267685D01*
Y79066D01*
X267720D01*
Y79083D01*
X267737D01*
Y79100D01*
X267772D01*
Y79118D01*
X267806D01*
Y79135D01*
X267841D01*
Y79152D01*
X267858D01*
Y79170D01*
X267893D01*
Y79187D01*
X267928D01*
Y79204D01*
X267962D01*
Y79222D01*
X267980D01*
Y79239D01*
X268014D01*
Y79256D01*
X268049D01*
Y79274D01*
X268083D01*
Y79291D01*
X268101D01*
Y79308D01*
X268135D01*
Y79325D01*
X268170D01*
Y79343D01*
X268204D01*
Y79360D01*
X268222D01*
Y79377D01*
X268256D01*
Y79394D01*
X268291D01*
Y79412D01*
X268325D01*
Y79429D01*
X268343D01*
Y79446D01*
X268377D01*
Y79464D01*
X268412D01*
Y79481D01*
X268447D01*
Y79498D01*
X268464D01*
Y79516D01*
X268498D01*
Y79533D01*
X268533D01*
Y79550D01*
X268550D01*
Y79567D01*
X268585D01*
Y79585D01*
X268619D01*
Y79602D01*
X268654D01*
Y79619D01*
X268671D01*
Y79637D01*
X268706D01*
Y79654D01*
X268741D01*
Y79671D01*
X268775D01*
Y79689D01*
X268792D01*
Y79706D01*
X268827D01*
Y79723D01*
X268862D01*
Y79741D01*
X268896D01*
Y79758D01*
X268914D01*
Y79775D01*
X268948D01*
Y79792D01*
X268983D01*
Y79810D01*
X269017D01*
Y79827D01*
X269035D01*
Y79844D01*
X269069D01*
Y79862D01*
X269104D01*
Y79879D01*
X269139D01*
Y79896D01*
X269156D01*
Y79914D01*
X269190D01*
Y79931D01*
X269225D01*
Y79948D01*
X269259D01*
Y79965D01*
X269277D01*
Y79983D01*
X269311D01*
Y80000D01*
X269346D01*
Y80017D01*
X269381D01*
Y80035D01*
X269398D01*
Y80052D01*
X269433D01*
Y80069D01*
X269467D01*
Y80086D01*
X269502D01*
Y80104D01*
X269519D01*
Y80121D01*
X269554D01*
Y80138D01*
X269588D01*
Y80156D01*
X269623D01*
Y80173D01*
X269640D01*
Y80190D01*
X269675D01*
Y80208D01*
X269709D01*
Y80225D01*
X269744D01*
Y80242D01*
X269761D01*
Y80259D01*
X269796D01*
Y80277D01*
X269830D01*
Y80294D01*
X269865D01*
Y80311D01*
X269882D01*
Y80329D01*
X269917D01*
Y80346D01*
X269951D01*
Y80363D01*
X269986D01*
Y80380D01*
X270003D01*
Y80398D01*
X270038D01*
Y80415D01*
X270072D01*
Y80432D01*
X270107D01*
Y80450D01*
X270124D01*
Y80467D01*
X270159D01*
Y80484D01*
X270194D01*
Y80502D01*
X270228D01*
Y80519D01*
X270245D01*
Y80536D01*
X270280D01*
Y80554D01*
X270315D01*
Y80571D01*
X270349D01*
Y80588D01*
X270367D01*
Y80605D01*
X270401D01*
Y80623D01*
X270436D01*
Y80640D01*
X270470D01*
Y80657D01*
X270488D01*
Y80675D01*
X270522D01*
Y80692D01*
X270557D01*
Y80709D01*
X270592D01*
Y80726D01*
X270609D01*
Y80744D01*
X270643D01*
Y80761D01*
X270678D01*
Y80778D01*
X270713D01*
Y80796D01*
X270730D01*
Y80813D01*
X270765D01*
Y80830D01*
X270799D01*
Y80848D01*
X270834D01*
Y80865D01*
X270851D01*
Y80882D01*
X270886D01*
Y80899D01*
X270920D01*
Y80917D01*
X270937D01*
Y80934D01*
X270972D01*
Y80951D01*
X271007D01*
Y80969D01*
X271041D01*
Y80986D01*
X271059D01*
Y81003D01*
X271093D01*
Y81020D01*
X271128D01*
Y81038D01*
X271162D01*
Y81055D01*
X271180D01*
Y70157D01*
X271162D01*
Y70140D01*
X271128D01*
Y70123D01*
X271110D01*
Y70106D01*
X271076D01*
Y70088D01*
X271041D01*
Y70071D01*
X271007D01*
Y70054D01*
X270989D01*
Y70036D01*
X270955D01*
Y70019D01*
X270920D01*
Y70002D01*
X270886D01*
Y69984D01*
X270868D01*
Y69967D01*
X270834D01*
Y69950D01*
X270799D01*
Y69933D01*
X270765D01*
Y69915D01*
X270747D01*
Y69898D01*
X270713D01*
Y69881D01*
X270678D01*
Y69863D01*
X270643D01*
Y69846D01*
X270626D01*
Y69829D01*
X270592D01*
Y69812D01*
X270557D01*
Y69794D01*
X270522D01*
Y69777D01*
X270505D01*
Y69760D01*
X270470D01*
Y69742D01*
X270436D01*
Y69725D01*
X270401D01*
Y69708D01*
X270384D01*
Y69690D01*
X270349D01*
Y69673D01*
X270315D01*
Y69656D01*
X270280D01*
Y69639D01*
X270263D01*
Y69621D01*
X270228D01*
Y69604D01*
X270194D01*
Y69587D01*
X270159D01*
Y69569D01*
X270142D01*
Y69552D01*
X270107D01*
Y69535D01*
X270072D01*
Y69517D01*
X270038D01*
Y69500D01*
X270021D01*
Y69483D01*
X269986D01*
Y69465D01*
X269951D01*
Y69448D01*
X269917D01*
Y69431D01*
X269882D01*
Y69414D01*
X269865D01*
Y69396D01*
X269830D01*
Y69379D01*
X269796D01*
Y69362D01*
X269761D01*
Y69345D01*
X269744D01*
Y69327D01*
X269709D01*
Y69310D01*
X269675D01*
Y69293D01*
X269640D01*
Y69275D01*
X269623D01*
Y69258D01*
X269588D01*
Y69241D01*
X269554D01*
Y69223D01*
X269519D01*
Y69206D01*
X269502D01*
Y69189D01*
X269467D01*
Y69172D01*
X269433D01*
Y69154D01*
X269398D01*
Y69137D01*
X269381D01*
Y69120D01*
X269346D01*
Y69102D01*
X269311D01*
Y69085D01*
X269277D01*
Y69068D01*
X269259D01*
Y69050D01*
X269225D01*
Y69033D01*
X269190D01*
Y69016D01*
X269156D01*
Y68998D01*
X269139D01*
Y68981D01*
X269104D01*
Y68964D01*
X269069D01*
Y68947D01*
X269035D01*
Y68929D01*
X269017D01*
Y68912D01*
X268983D01*
Y68895D01*
X268948D01*
Y68877D01*
X268914D01*
Y68860D01*
X268896D01*
Y68843D01*
X268862D01*
Y68825D01*
X268827D01*
Y68808D01*
X268792D01*
Y68791D01*
X268775D01*
Y68774D01*
X268741D01*
Y68756D01*
X268706D01*
Y68739D01*
X268671D01*
Y68722D01*
X268654D01*
Y68704D01*
X268619D01*
Y68687D01*
X268585D01*
Y68670D01*
X268550D01*
Y68653D01*
X268533D01*
Y68635D01*
X268498D01*
Y68618D01*
X268464D01*
Y68601D01*
X268429D01*
Y68583D01*
X268412D01*
Y68566D01*
X268377D01*
Y68549D01*
X268343D01*
Y68531D01*
X268308D01*
Y68514D01*
X268291D01*
Y68497D01*
X268256D01*
Y68480D01*
X268222D01*
Y68462D01*
X268187D01*
Y68445D01*
X268170D01*
Y68428D01*
X268135D01*
Y68410D01*
X268101D01*
Y68393D01*
X268066D01*
Y68376D01*
X268031D01*
Y68358D01*
X268014D01*
Y68341D01*
X267980D01*
Y68324D01*
X267945D01*
Y68307D01*
X267910D01*
Y68289D01*
X267893D01*
Y68272D01*
X267858D01*
Y68255D01*
X267824D01*
Y68237D01*
X267789D01*
Y68220D01*
X267772D01*
Y68203D01*
X267737D01*
Y68186D01*
X267703D01*
Y68168D01*
X267668D01*
Y68151D01*
X267651D01*
Y68134D01*
X267616D01*
Y68116D01*
X267582D01*
Y68099D01*
X267547D01*
Y68082D01*
X267530D01*
Y68064D01*
X267495D01*
Y68047D01*
X267461D01*
Y68030D01*
X267426D01*
Y68012D01*
X267409D01*
Y67995D01*
X267374D01*
Y67978D01*
X267339D01*
Y67961D01*
X267305D01*
Y67943D01*
X267288D01*
Y67926D01*
X267253D01*
Y67909D01*
X267218D01*
Y67891D01*
X267184D01*
Y67874D01*
X267167D01*
Y67857D01*
X267132D01*
Y67839D01*
X267097D01*
Y67822D01*
X267063D01*
Y67805D01*
X267045D01*
Y67788D01*
X267011D01*
Y67770D01*
X266976D01*
Y67753D01*
X266942D01*
Y67736D01*
X266924D01*
Y67719D01*
X266890D01*
Y67701D01*
X266855D01*
Y67684D01*
X266821D01*
Y67667D01*
X266803D01*
Y67649D01*
X266769D01*
Y67632D01*
X266734D01*
Y67615D01*
X266699D01*
Y67597D01*
X266682D01*
Y67580D01*
X266647D01*
Y67563D01*
X266613D01*
Y67545D01*
X266578D01*
Y67528D01*
X266561D01*
Y67511D01*
X266527D01*
Y67494D01*
X266492D01*
Y67476D01*
X266457D01*
Y67459D01*
X266440D01*
Y67442D01*
X266405D01*
Y67424D01*
X266371D01*
Y67407D01*
X266336D01*
Y67390D01*
X266319D01*
Y67372D01*
X266284D01*
Y67355D01*
X266250D01*
Y67338D01*
X266215D01*
Y67321D01*
X266180D01*
Y67303D01*
X266163D01*
Y67286D01*
X266129D01*
Y67269D01*
X266094D01*
Y67251D01*
X266059D01*
Y67234D01*
X266042D01*
Y67217D01*
X266007D01*
Y67200D01*
X265973D01*
Y67182D01*
X265938D01*
Y67165D01*
X265921D01*
Y67148D01*
X265886D01*
Y67130D01*
X265852D01*
Y67113D01*
X265817D01*
Y67096D01*
X265800D01*
Y67078D01*
X265765D01*
Y67061D01*
X265731D01*
Y67044D01*
X265696D01*
Y67027D01*
X265679D01*
Y67009D01*
X265644D01*
Y66992D01*
X265610D01*
Y66975D01*
X265575D01*
Y66957D01*
X265558D01*
Y66940D01*
X265523D01*
Y66923D01*
X265489D01*
Y66905D01*
X265454D01*
Y66888D01*
X265437D01*
Y66871D01*
X265402D01*
Y66854D01*
X265368D01*
Y66836D01*
X265333D01*
Y66819D01*
X265316D01*
Y66802D01*
X265281D01*
Y66784D01*
X265246D01*
Y66767D01*
X265212D01*
Y66750D01*
X265194D01*
Y66733D01*
X265160D01*
Y66715D01*
X265125D01*
Y66698D01*
X265091D01*
Y66681D01*
X265073D01*
Y66663D01*
X265039D01*
Y66646D01*
X265004D01*
Y66629D01*
X264970D01*
Y66611D01*
X264952D01*
Y66594D01*
X264918D01*
Y66577D01*
X264883D01*
Y66560D01*
X264849D01*
Y66542D01*
X264831D01*
Y66525D01*
X264797D01*
Y66508D01*
X264762D01*
Y66490D01*
X264727D01*
Y66473D01*
X264710D01*
Y66456D01*
X264676D01*
Y66438D01*
X264641D01*
Y66421D01*
X264606D01*
Y66404D01*
X264589D01*
Y66386D01*
X264555D01*
Y66369D01*
X264520D01*
Y66352D01*
X264485D01*
Y66335D01*
X264468D01*
Y66317D01*
X264433D01*
Y66300D01*
X264399D01*
Y66283D01*
X264364D01*
Y66265D01*
X264330D01*
Y66248D01*
X264312D01*
Y66231D01*
X264278D01*
Y66213D01*
X264243D01*
Y66196D01*
X264209D01*
Y66179D01*
X264191D01*
Y66162D01*
X264157D01*
Y66144D01*
X264122D01*
Y66127D01*
X264088D01*
Y66110D01*
X264070D01*
Y66093D01*
X264036D01*
Y66075D01*
X264001D01*
Y66058D01*
X263966D01*
Y66041D01*
X263949D01*
Y66023D01*
X263915D01*
Y66006D01*
X263880D01*
Y65989D01*
X263845D01*
Y65971D01*
X263828D01*
Y65954D01*
X263793D01*
Y65937D01*
X263759D01*
Y65919D01*
X263724D01*
Y65902D01*
X263707D01*
Y65885D01*
X263672D01*
Y65868D01*
X263638D01*
Y65850D01*
X263603D01*
Y65833D01*
X263586D01*
Y65816D01*
X263551D01*
Y65798D01*
X263517D01*
Y65781D01*
X263482D01*
Y65764D01*
X263465D01*
Y65746D01*
X263430D01*
Y65729D01*
X263396D01*
Y65712D01*
X263361D01*
Y65695D01*
X263344D01*
Y65677D01*
X263309D01*
Y65660D01*
X263274D01*
Y65643D01*
X263240D01*
Y65625D01*
X263223D01*
Y65608D01*
X263188D01*
Y65591D01*
X263153D01*
Y65574D01*
X263119D01*
Y65556D01*
X263102D01*
Y65539D01*
X263067D01*
Y65522D01*
X263032D01*
Y65504D01*
X262998D01*
Y65487D01*
X262980D01*
Y65470D01*
X262946D01*
Y65452D01*
X262911D01*
Y65435D01*
X262877D01*
Y65418D01*
X262859D01*
Y65401D01*
X262825D01*
Y65383D01*
X262790D01*
Y65366D01*
X262756D01*
Y65349D01*
X262738D01*
Y65331D01*
X262704D01*
Y65314D01*
X262669D01*
Y65297D01*
X262634D01*
Y65279D01*
X262617D01*
Y65262D01*
X262582D01*
Y65245D01*
X262548D01*
Y65228D01*
X262513D01*
Y65210D01*
X262479D01*
Y65193D01*
X262461D01*
Y65176D01*
X262427D01*
Y65158D01*
X262392D01*
Y65141D01*
X262358D01*
Y65124D01*
X262340D01*
Y65107D01*
X262306D01*
Y65089D01*
X262271D01*
Y65072D01*
X262237D01*
Y65055D01*
X262219D01*
Y65037D01*
X262185D01*
Y65020D01*
X262150D01*
Y65003D01*
X262115D01*
Y64985D01*
X262098D01*
Y64968D01*
X262064D01*
Y64951D01*
X262029D01*
Y64934D01*
X261994D01*
Y64916D01*
X261977D01*
Y64899D01*
X261943D01*
Y64882D01*
X261908D01*
Y64864D01*
X261873D01*
Y64847D01*
X261856D01*
Y64830D01*
X261821D01*
Y64812D01*
X261787D01*
Y64795D01*
X261752D01*
Y64778D01*
X261735D01*
Y64760D01*
X261700D01*
Y72095D01*
Y72112D01*
D02*
G37*
G36*
X631840Y144000D02*
Y136500D01*
X617840D01*
Y150500D01*
X625340D01*
X631840Y144000D01*
D02*
G37*
G36*
X276732Y64501D02*
X276715D01*
Y64466D01*
X276698D01*
Y64449D01*
X276680D01*
Y64432D01*
X276663D01*
Y64415D01*
X276646D01*
Y64380D01*
X276628D01*
Y64363D01*
X276611D01*
Y64345D01*
X276594D01*
Y64328D01*
X276576D01*
Y64293D01*
X276559D01*
Y64276D01*
X276542D01*
Y64259D01*
X276525D01*
Y64242D01*
X276507D01*
Y64207D01*
X276490D01*
Y64190D01*
X276473D01*
Y64172D01*
X276455D01*
Y64155D01*
X276438D01*
Y64120D01*
X276421D01*
Y64103D01*
X276404D01*
Y64086D01*
X276386D01*
Y64069D01*
X276369D01*
Y64034D01*
X276352D01*
Y64017D01*
X276334D01*
Y63999D01*
X276317D01*
Y63982D01*
X276300D01*
Y63948D01*
X276283D01*
Y63930D01*
X276265D01*
Y63913D01*
X276248D01*
Y63896D01*
X276231D01*
Y63861D01*
X276213D01*
Y63844D01*
X276196D01*
Y63826D01*
X276179D01*
Y63809D01*
X276161D01*
Y63774D01*
X276144D01*
Y63757D01*
X276127D01*
Y63740D01*
X276110D01*
Y63705D01*
X276092D01*
Y63688D01*
X276075D01*
Y63671D01*
X276058D01*
Y63653D01*
X276040D01*
Y63619D01*
X276023D01*
Y63601D01*
X276006D01*
Y63584D01*
X275988D01*
Y63567D01*
X275971D01*
Y63532D01*
X275954D01*
Y63515D01*
X275937D01*
Y63498D01*
X275919D01*
Y63481D01*
X275902D01*
Y63446D01*
X275885D01*
Y63429D01*
X275867D01*
Y63411D01*
X275850D01*
Y63394D01*
X275833D01*
Y63359D01*
X275815D01*
Y63342D01*
X275798D01*
Y63325D01*
X275781D01*
Y63307D01*
X275763D01*
Y63273D01*
X275746D01*
Y63256D01*
X275729D01*
Y63238D01*
X275712D01*
Y63221D01*
X275694D01*
Y63186D01*
X275677D01*
Y63169D01*
X275660D01*
Y63152D01*
X275643D01*
Y63134D01*
X275625D01*
Y63100D01*
X275608D01*
Y63083D01*
X275591D01*
Y63065D01*
X275573D01*
Y63048D01*
X275556D01*
Y63013D01*
X275539D01*
Y62996D01*
X275521D01*
Y62979D01*
X275504D01*
Y62962D01*
X275487D01*
Y62927D01*
X275469D01*
Y62910D01*
X275452D01*
Y62892D01*
X275435D01*
Y62875D01*
X275418D01*
Y62840D01*
X275400D01*
Y62823D01*
X275383D01*
Y62806D01*
X275366D01*
Y62789D01*
X275348D01*
Y62754D01*
X275331D01*
Y62737D01*
X275314D01*
Y62719D01*
X275296D01*
Y62702D01*
X275279D01*
Y62667D01*
X275262D01*
Y62650D01*
X275245D01*
Y62633D01*
X275227D01*
Y62616D01*
X275210D01*
Y62581D01*
X275193D01*
Y62564D01*
X275175D01*
Y62546D01*
X275158D01*
Y62529D01*
X275141D01*
Y62495D01*
X275124D01*
Y62477D01*
X275106D01*
Y62460D01*
X275089D01*
Y62443D01*
X275072D01*
Y62408D01*
X275054D01*
Y62391D01*
X275037D01*
Y62373D01*
X275020D01*
Y62339D01*
X275002D01*
Y62322D01*
X274985D01*
Y62304D01*
X274968D01*
Y62287D01*
X274951D01*
Y62252D01*
X274933D01*
Y62235D01*
X274916D01*
Y62218D01*
X274899D01*
Y62200D01*
X274881D01*
Y62166D01*
X274864D01*
Y62148D01*
X274847D01*
Y62131D01*
X274829D01*
Y62114D01*
X274812D01*
Y62079D01*
X274795D01*
Y62062D01*
X274778D01*
Y62045D01*
X274760D01*
Y62027D01*
X274743D01*
Y61993D01*
X274726D01*
Y61975D01*
X274708D01*
Y61958D01*
X274691D01*
Y61941D01*
X274674D01*
Y61906D01*
X274657D01*
Y61889D01*
X274639D01*
Y61872D01*
X274622D01*
Y61855D01*
X274605D01*
Y61820D01*
X274587D01*
Y61803D01*
X274570D01*
Y61785D01*
X274553D01*
Y61768D01*
X274535D01*
Y61733D01*
X274518D01*
Y61716D01*
X274501D01*
Y61699D01*
X274484D01*
Y61681D01*
X274466D01*
Y61647D01*
X274449D01*
Y61630D01*
X274432D01*
Y61612D01*
X274414D01*
Y61595D01*
X274397D01*
Y61560D01*
X274380D01*
Y61543D01*
X274362D01*
Y61526D01*
X274345D01*
Y61508D01*
X274328D01*
Y61474D01*
X274310D01*
Y61457D01*
X274293D01*
Y61439D01*
X274276D01*
Y61422D01*
X274259D01*
Y61387D01*
X274241D01*
Y61370D01*
X274224D01*
Y61353D01*
X274207D01*
Y61336D01*
X274189D01*
Y61301D01*
X274172D01*
Y61266D01*
X274189D01*
Y61249D01*
X274207D01*
Y61232D01*
X274224D01*
Y61214D01*
X274241D01*
Y61180D01*
X274259D01*
Y61163D01*
X274276D01*
Y61145D01*
X274293D01*
Y61111D01*
X274310D01*
Y61093D01*
X274328D01*
Y61076D01*
X274345D01*
Y61041D01*
X274362D01*
Y61024D01*
X274380D01*
Y61007D01*
X274397D01*
Y60990D01*
X274414D01*
Y60955D01*
X274432D01*
Y60938D01*
X274449D01*
Y60920D01*
X274466D01*
Y60886D01*
X274484D01*
Y60869D01*
X274501D01*
Y60851D01*
X274518D01*
Y60834D01*
X274535D01*
Y60799D01*
X274553D01*
Y60782D01*
X274570D01*
Y60765D01*
X274587D01*
Y60730D01*
X274605D01*
Y60713D01*
X274622D01*
Y60696D01*
X274639D01*
Y60661D01*
X274657D01*
Y60644D01*
X274674D01*
Y60626D01*
X274691D01*
Y60609D01*
X274708D01*
Y60574D01*
X274726D01*
Y60557D01*
X274743D01*
Y60540D01*
X274760D01*
Y60505D01*
X274778D01*
Y60488D01*
X274795D01*
Y60471D01*
X274812D01*
Y60436D01*
X274829D01*
Y60419D01*
X274847D01*
Y60402D01*
X274864D01*
Y60384D01*
X274881D01*
Y60350D01*
X274899D01*
Y60332D01*
X274916D01*
Y60315D01*
X274933D01*
Y60280D01*
X274951D01*
Y60263D01*
X274968D01*
Y60246D01*
X274985D01*
Y60211D01*
X275002D01*
Y60194D01*
X275020D01*
Y60177D01*
X275037D01*
Y60159D01*
X275054D01*
Y60125D01*
X275072D01*
Y60107D01*
X275089D01*
Y60090D01*
X275106D01*
Y60055D01*
X275124D01*
Y60038D01*
X275141D01*
Y60021D01*
X275158D01*
Y60004D01*
X275175D01*
Y59969D01*
X275193D01*
Y59952D01*
X275210D01*
Y59934D01*
X275227D01*
Y59900D01*
X275245D01*
Y59882D01*
X275262D01*
Y59865D01*
X275279D01*
Y59831D01*
X275296D01*
Y59813D01*
X275314D01*
Y59796D01*
X275331D01*
Y59779D01*
X275348D01*
Y59744D01*
X275366D01*
Y59727D01*
X275383D01*
Y59710D01*
X275400D01*
Y59675D01*
X275418D01*
Y59658D01*
X275435D01*
Y59640D01*
X275452D01*
Y59606D01*
X275469D01*
Y59588D01*
X275487D01*
Y59571D01*
X275504D01*
Y59554D01*
X275521D01*
Y59519D01*
X275539D01*
Y59502D01*
X275556D01*
Y59485D01*
X275573D01*
Y59450D01*
X275591D01*
Y59433D01*
X275608D01*
Y59415D01*
X275625D01*
Y59381D01*
X275643D01*
Y59364D01*
X275660D01*
Y59346D01*
X275677D01*
Y59329D01*
X275694D01*
Y59294D01*
X275712D01*
Y59277D01*
X275729D01*
Y59260D01*
X275746D01*
Y59225D01*
X275763D01*
Y59208D01*
X275781D01*
Y59191D01*
X275798D01*
Y59173D01*
X275815D01*
Y59139D01*
X275833D01*
Y59121D01*
X275850D01*
Y59104D01*
X275867D01*
Y59069D01*
X275885D01*
Y59052D01*
X275902D01*
Y59035D01*
X275919D01*
Y59000D01*
X275937D01*
Y58983D01*
X275954D01*
Y58966D01*
X275971D01*
Y58948D01*
X275988D01*
Y58914D01*
X276006D01*
Y58896D01*
X276023D01*
Y58879D01*
X276040D01*
Y58845D01*
X276058D01*
Y58827D01*
X276075D01*
Y58810D01*
X276092D01*
Y58775D01*
X276110D01*
Y58758D01*
X276127D01*
Y58741D01*
X276144D01*
Y58724D01*
X276161D01*
Y58689D01*
X276179D01*
Y58672D01*
X276196D01*
Y58654D01*
X276213D01*
Y58620D01*
X276231D01*
Y58602D01*
X276248D01*
Y58585D01*
X276265D01*
Y58551D01*
X276283D01*
Y58533D01*
X276300D01*
Y58516D01*
X276317D01*
Y58499D01*
X276334D01*
Y58464D01*
X276352D01*
Y58447D01*
X276369D01*
Y58429D01*
X276386D01*
Y58395D01*
X276404D01*
Y58378D01*
X276421D01*
Y58360D01*
X276438D01*
Y58343D01*
X276455D01*
Y58308D01*
X276473D01*
Y58291D01*
X276490D01*
Y58274D01*
X276507D01*
Y58239D01*
X276525D01*
Y58222D01*
X276542D01*
Y58205D01*
X276559D01*
Y58170D01*
X276576D01*
Y58153D01*
X276594D01*
Y58135D01*
X276611D01*
Y58118D01*
X276628D01*
Y58084D01*
X276646D01*
Y58066D01*
X276663D01*
Y58049D01*
X276680D01*
Y58014D01*
X276698D01*
Y57997D01*
X276715D01*
Y57980D01*
X276732D01*
Y57945D01*
X275245D01*
Y57962D01*
X275227D01*
Y57980D01*
X275210D01*
Y58014D01*
X275193D01*
Y58032D01*
X275175D01*
Y58049D01*
X275158D01*
Y58084D01*
X275141D01*
Y58101D01*
X275124D01*
Y58118D01*
X275106D01*
Y58153D01*
X275089D01*
Y58170D01*
X275072D01*
Y58187D01*
X275054D01*
Y58222D01*
X275037D01*
Y58239D01*
X275020D01*
Y58257D01*
X275002D01*
Y58291D01*
X274985D01*
Y58308D01*
X274968D01*
Y58343D01*
X274951D01*
Y58360D01*
X274933D01*
Y58378D01*
X274916D01*
Y58412D01*
X274899D01*
Y58429D01*
X274881D01*
Y58447D01*
X274864D01*
Y58481D01*
X274847D01*
Y58499D01*
X274829D01*
Y58516D01*
X274812D01*
Y58551D01*
X274795D01*
Y58568D01*
X274778D01*
Y58602D01*
X274760D01*
Y58620D01*
X274743D01*
Y58637D01*
X274726D01*
Y58672D01*
X274708D01*
Y58689D01*
X274691D01*
Y58706D01*
X274674D01*
Y58741D01*
X274657D01*
Y58758D01*
X274639D01*
Y58775D01*
X274622D01*
Y58810D01*
X274605D01*
Y58827D01*
X274587D01*
Y58862D01*
X274570D01*
Y58879D01*
X274553D01*
Y58896D01*
X274535D01*
Y58931D01*
X274518D01*
Y58948D01*
X274501D01*
Y58966D01*
X274484D01*
Y59000D01*
X274466D01*
Y59018D01*
X274449D01*
Y59035D01*
X274432D01*
Y59069D01*
X274414D01*
Y59087D01*
X274397D01*
Y59121D01*
X274380D01*
Y59139D01*
X274362D01*
Y59156D01*
X274345D01*
Y59191D01*
X274328D01*
Y59208D01*
X274310D01*
Y59225D01*
X274293D01*
Y59260D01*
X274276D01*
Y59277D01*
X274259D01*
Y59294D01*
X274241D01*
Y59329D01*
X274224D01*
Y59346D01*
X274207D01*
Y59364D01*
X274189D01*
Y59398D01*
X274172D01*
Y59415D01*
X274155D01*
Y59450D01*
X274137D01*
Y59467D01*
X274120D01*
Y59485D01*
X274103D01*
Y59519D01*
X274086D01*
Y59537D01*
X274068D01*
Y59554D01*
X274051D01*
Y59588D01*
X274034D01*
Y59606D01*
X274016D01*
Y59623D01*
X273999D01*
Y59658D01*
X273982D01*
Y59675D01*
X273965D01*
Y59710D01*
X273947D01*
Y59727D01*
X273930D01*
Y59744D01*
X273913D01*
Y59779D01*
X273895D01*
Y59796D01*
X273878D01*
Y59813D01*
X273861D01*
Y59848D01*
X273843D01*
Y59865D01*
X273826D01*
Y59882D01*
X273809D01*
Y59917D01*
X273792D01*
Y59934D01*
X273774D01*
Y59969D01*
X273757D01*
Y59986D01*
X273740D01*
Y60004D01*
X273722D01*
Y60038D01*
X273705D01*
Y60055D01*
X273688D01*
Y60073D01*
X273671D01*
Y60107D01*
X273653D01*
Y60125D01*
X273636D01*
Y60142D01*
X273619D01*
Y60177D01*
X273601D01*
Y60194D01*
X273584D01*
Y60229D01*
X273567D01*
Y60246D01*
X273549D01*
Y60263D01*
X273532D01*
Y60298D01*
X273515D01*
Y60315D01*
X273498D01*
Y60332D01*
X273480D01*
Y60367D01*
X273463D01*
Y60384D01*
X273446D01*
Y60402D01*
X273428D01*
Y60436D01*
X273411D01*
Y60453D01*
X273394D01*
Y60471D01*
X273376D01*
Y60505D01*
X273359D01*
Y60522D01*
X273342D01*
Y60557D01*
X273325D01*
Y60574D01*
X273307D01*
Y60592D01*
X273290D01*
Y60626D01*
X273273D01*
Y60644D01*
X273255D01*
Y60661D01*
X273238D01*
Y60696D01*
X273221D01*
Y60713D01*
X273203D01*
Y60730D01*
X273186D01*
Y60765D01*
X273169D01*
Y60782D01*
X273151D01*
Y60817D01*
X273117D01*
Y57945D01*
X271854D01*
Y64518D01*
X273117D01*
Y61681D01*
X273134D01*
Y61699D01*
X273151D01*
Y61716D01*
X273169D01*
Y61751D01*
X273186D01*
Y61768D01*
X273203D01*
Y61785D01*
X273221D01*
Y61820D01*
X273238D01*
Y61837D01*
X273255D01*
Y61855D01*
X273273D01*
Y61889D01*
X273290D01*
Y61906D01*
X273307D01*
Y61941D01*
X273325D01*
Y61958D01*
X273342D01*
Y61975D01*
X273359D01*
Y62010D01*
X273376D01*
Y62027D01*
X273394D01*
Y62045D01*
X273411D01*
Y62079D01*
X273428D01*
Y62097D01*
X273446D01*
Y62114D01*
X273463D01*
Y62148D01*
X273480D01*
Y62166D01*
X273498D01*
Y62183D01*
X273515D01*
Y62218D01*
X273532D01*
Y62235D01*
X273549D01*
Y62252D01*
X273567D01*
Y62287D01*
X273584D01*
Y62304D01*
X273601D01*
Y62322D01*
X273619D01*
Y62356D01*
X273636D01*
Y62373D01*
X273653D01*
Y62391D01*
X273671D01*
Y62425D01*
X273688D01*
Y62443D01*
X273705D01*
Y62460D01*
X273722D01*
Y62495D01*
X273740D01*
Y62512D01*
X273757D01*
Y62529D01*
X273774D01*
Y62564D01*
X273792D01*
Y62581D01*
X273809D01*
Y62598D01*
X273826D01*
Y62633D01*
X273843D01*
Y62650D01*
X273861D01*
Y62667D01*
X273878D01*
Y62702D01*
X273895D01*
Y62719D01*
X273913D01*
Y62754D01*
X273930D01*
Y62771D01*
X273947D01*
Y62789D01*
X273965D01*
Y62823D01*
X273982D01*
Y62840D01*
X273999D01*
Y62858D01*
X274016D01*
Y62892D01*
X274034D01*
Y62910D01*
X274051D01*
Y62927D01*
X274068D01*
Y62962D01*
X274086D01*
Y62979D01*
X274103D01*
Y62996D01*
X274120D01*
Y63031D01*
X274137D01*
Y63048D01*
X274155D01*
Y63065D01*
X274172D01*
Y63100D01*
X274189D01*
Y63117D01*
X274207D01*
Y63134D01*
X274224D01*
Y63169D01*
X274241D01*
Y63186D01*
X274259D01*
Y63204D01*
X274276D01*
Y63238D01*
X274293D01*
Y63256D01*
X274310D01*
Y63273D01*
X274328D01*
Y63307D01*
X274345D01*
Y63325D01*
X274362D01*
Y63342D01*
X274380D01*
Y63377D01*
X274397D01*
Y63394D01*
X274414D01*
Y63411D01*
X274432D01*
Y63446D01*
X274449D01*
Y63463D01*
X274466D01*
Y63481D01*
X274484D01*
Y63515D01*
X274501D01*
Y63532D01*
X274518D01*
Y63550D01*
X274535D01*
Y63584D01*
X274553D01*
Y63601D01*
X274570D01*
Y63636D01*
X274587D01*
Y63653D01*
X274605D01*
Y63671D01*
X274622D01*
Y63705D01*
X274639D01*
Y63723D01*
X274657D01*
Y63740D01*
X274674D01*
Y63774D01*
X274691D01*
Y63792D01*
X274708D01*
Y63809D01*
X274726D01*
Y63844D01*
X274743D01*
Y63861D01*
X274760D01*
Y63878D01*
X274778D01*
Y63913D01*
X274795D01*
Y63930D01*
X274812D01*
Y63948D01*
X274829D01*
Y63982D01*
X274847D01*
Y63999D01*
X274864D01*
Y64017D01*
X274881D01*
Y64051D01*
X274899D01*
Y64069D01*
X274916D01*
Y64086D01*
X274933D01*
Y64120D01*
X274951D01*
Y64138D01*
X274968D01*
Y64155D01*
X274985D01*
Y64190D01*
X275002D01*
Y64207D01*
X275020D01*
Y64224D01*
X275037D01*
Y64259D01*
X275054D01*
Y64276D01*
X275072D01*
Y64293D01*
X275089D01*
Y64328D01*
X275106D01*
Y64345D01*
X275124D01*
Y64363D01*
X275141D01*
Y64397D01*
X275158D01*
Y64415D01*
X275175D01*
Y64432D01*
X275193D01*
Y64466D01*
X275210D01*
Y64484D01*
X275227D01*
Y64518D01*
X276732D01*
Y64501D01*
D02*
G37*
G36*
X280590Y64657D02*
X280624D01*
Y64639D01*
X280642D01*
Y64622D01*
X280676D01*
Y64605D01*
X280711D01*
Y64587D01*
X280745D01*
Y64570D01*
X280763D01*
Y64553D01*
X280797D01*
Y64536D01*
X280832D01*
Y64518D01*
X280849D01*
Y64501D01*
X280884D01*
Y64484D01*
X280918D01*
Y64466D01*
X280953D01*
Y64449D01*
X280970D01*
Y64432D01*
X281005D01*
Y64415D01*
X281039D01*
Y64397D01*
X281074D01*
Y64380D01*
X281091D01*
Y64363D01*
X281126D01*
Y64345D01*
X281161D01*
Y64328D01*
X281178D01*
Y64311D01*
X281212D01*
Y64293D01*
X281247D01*
Y64276D01*
X281282D01*
Y64259D01*
X281299D01*
Y64242D01*
X281333D01*
Y64224D01*
X281368D01*
Y64207D01*
X281403D01*
Y64190D01*
X281420D01*
Y64172D01*
X281455D01*
Y64155D01*
X281489D01*
Y64138D01*
X281524D01*
Y64120D01*
X281541D01*
Y64103D01*
X281576D01*
Y64086D01*
X281610D01*
Y64069D01*
X281628D01*
Y64051D01*
X281662D01*
Y64034D01*
X281697D01*
Y64017D01*
X281731D01*
Y63999D01*
X281749D01*
Y63982D01*
X281783D01*
Y63965D01*
X281818D01*
Y63948D01*
X281852D01*
Y63930D01*
X281870D01*
Y63913D01*
X281904D01*
Y63896D01*
X281939D01*
Y63878D01*
X281973D01*
Y63861D01*
X281991D01*
Y63844D01*
X282025D01*
Y63826D01*
X282060D01*
Y63809D01*
X282077D01*
Y63792D01*
X282112D01*
Y63774D01*
X282146D01*
Y63757D01*
X282181D01*
Y63740D01*
X282198D01*
Y63723D01*
X282233D01*
Y63705D01*
X282267D01*
Y63688D01*
X282302D01*
Y63671D01*
X282319D01*
Y63653D01*
X282354D01*
Y63636D01*
X282389D01*
Y63619D01*
X282423D01*
Y63601D01*
X282440D01*
Y63584D01*
X282475D01*
Y63567D01*
X282510D01*
Y63550D01*
X282527D01*
Y63532D01*
X282562D01*
Y63515D01*
X282596D01*
Y63498D01*
X282631D01*
Y63481D01*
X282648D01*
Y63463D01*
X282683D01*
Y63446D01*
X282717D01*
Y63429D01*
X282752D01*
Y63411D01*
X282769D01*
Y63394D01*
X282804D01*
Y63377D01*
X282838D01*
Y63359D01*
X282856D01*
Y63342D01*
X282890D01*
Y63325D01*
X282925D01*
Y63307D01*
X282959D01*
Y63290D01*
X282977D01*
Y63273D01*
X283011D01*
Y63256D01*
X283046D01*
Y63238D01*
X283081D01*
Y63221D01*
X283098D01*
Y63204D01*
X283132D01*
Y63186D01*
X283167D01*
Y63169D01*
X283202D01*
Y63152D01*
X283219D01*
Y63134D01*
X283253D01*
Y63117D01*
X283288D01*
Y63100D01*
X283305D01*
Y63083D01*
X283340D01*
Y63065D01*
X283375D01*
Y63048D01*
X283409D01*
Y63031D01*
X283426D01*
Y63013D01*
X283461D01*
Y62996D01*
X283496D01*
Y62979D01*
X283530D01*
Y62962D01*
X283548D01*
Y62944D01*
X283582D01*
Y62927D01*
X283617D01*
Y62910D01*
X283651D01*
Y62892D01*
X283669D01*
Y62875D01*
X283703D01*
Y62858D01*
X283738D01*
Y62840D01*
X283755D01*
Y62823D01*
X283790D01*
Y62806D01*
X283824D01*
Y62789D01*
X283859D01*
Y62771D01*
X283876D01*
Y62754D01*
X283911D01*
Y62737D01*
X283945D01*
Y62719D01*
X283980D01*
Y62702D01*
X283997D01*
Y62685D01*
X284032D01*
Y62667D01*
X284067D01*
Y62650D01*
X284084D01*
Y62633D01*
X284118D01*
Y62616D01*
X284153D01*
Y62598D01*
X284188D01*
Y62581D01*
X284205D01*
Y62564D01*
X284240D01*
Y62546D01*
X284274D01*
Y62529D01*
X284309D01*
Y62512D01*
X284326D01*
Y62495D01*
X284361D01*
Y62477D01*
X284395D01*
Y62460D01*
X284430D01*
Y62443D01*
X284447D01*
Y62425D01*
X284482D01*
Y62408D01*
X284516D01*
Y62391D01*
X284534D01*
Y62373D01*
X284568D01*
Y62356D01*
X284603D01*
Y62339D01*
X284637D01*
Y62322D01*
X284655D01*
Y62304D01*
X284689D01*
Y62287D01*
X284724D01*
Y62270D01*
X284758D01*
Y62252D01*
X284776D01*
Y62235D01*
X284810D01*
Y62218D01*
X284845D01*
Y62200D01*
X284879D01*
Y62183D01*
X284897D01*
Y62166D01*
X284931D01*
Y62148D01*
X284966D01*
Y62131D01*
X284983D01*
Y62114D01*
X285018D01*
Y62097D01*
X285053D01*
Y62079D01*
X285087D01*
Y62062D01*
X285104D01*
Y62045D01*
X285139D01*
Y62027D01*
X285174D01*
Y62010D01*
X285208D01*
Y61993D01*
X285226D01*
Y61975D01*
X285260D01*
Y61958D01*
X285295D01*
Y61941D01*
X285329D01*
Y61924D01*
X285347D01*
Y61906D01*
X285381D01*
Y61889D01*
X285416D01*
Y61872D01*
X285433D01*
Y61855D01*
X285468D01*
Y61837D01*
X285502D01*
Y61820D01*
X285537D01*
Y61803D01*
X285554D01*
Y61785D01*
X285589D01*
Y61768D01*
X285623D01*
Y61751D01*
X285658D01*
Y61733D01*
X285675D01*
Y61716D01*
X285710D01*
Y61699D01*
X285744D01*
Y61681D01*
X285762D01*
Y61664D01*
X285796D01*
Y61647D01*
X285831D01*
Y61630D01*
X285865D01*
Y61612D01*
X285883D01*
Y61595D01*
X285917D01*
Y61578D01*
X285952D01*
Y61560D01*
X285987D01*
Y61543D01*
X286004D01*
Y61526D01*
X286038D01*
Y61508D01*
X286073D01*
Y61491D01*
X286108D01*
Y61474D01*
X286125D01*
Y61457D01*
X286160D01*
Y61439D01*
X286194D01*
Y61422D01*
X286211D01*
Y61405D01*
X286246D01*
Y61387D01*
X286281D01*
Y61370D01*
X286315D01*
Y61353D01*
X286332D01*
Y61336D01*
X286367D01*
Y61318D01*
X286402D01*
Y61301D01*
X286436D01*
Y61284D01*
X286454D01*
Y61266D01*
X286488D01*
Y61249D01*
X286523D01*
Y61232D01*
X286557D01*
Y61214D01*
X286575D01*
Y61197D01*
X286609D01*
Y61180D01*
X286644D01*
Y61163D01*
X286661D01*
Y61145D01*
X286696D01*
Y61128D01*
X286730D01*
Y61111D01*
X286765D01*
Y61093D01*
X286782D01*
Y61076D01*
X286817D01*
Y61059D01*
X286852D01*
Y61041D01*
X286886D01*
Y61024D01*
X286903D01*
Y61007D01*
X286938D01*
Y60990D01*
X286973D01*
Y60972D01*
X287007D01*
Y60955D01*
X287024D01*
Y60938D01*
X287059D01*
Y60920D01*
X287094D01*
Y60903D01*
X287111D01*
Y60886D01*
X287146D01*
Y60869D01*
X287180D01*
Y60851D01*
X287215D01*
Y60834D01*
X287232D01*
Y60817D01*
X287267D01*
Y60799D01*
X287301D01*
Y60782D01*
X287336D01*
Y60765D01*
X287353D01*
Y60747D01*
X287388D01*
Y60730D01*
X287422D01*
Y60713D01*
X287440D01*
Y60696D01*
X287474D01*
Y60678D01*
X287509D01*
Y60661D01*
X287543D01*
Y60644D01*
X287561D01*
Y60626D01*
X287595D01*
Y60609D01*
X287630D01*
Y60592D01*
X287665D01*
Y60574D01*
X287682D01*
Y60557D01*
X287716D01*
Y60540D01*
X287751D01*
Y60522D01*
X287786D01*
Y60505D01*
X287803D01*
Y60488D01*
X287838D01*
Y60471D01*
X287872D01*
Y60453D01*
X287889D01*
Y60436D01*
X287924D01*
Y60419D01*
X287959D01*
Y60402D01*
X287993D01*
Y60384D01*
X288010D01*
Y60367D01*
X288045D01*
Y60350D01*
X288080D01*
Y60332D01*
X288114D01*
Y60315D01*
X288132D01*
Y60298D01*
X288166D01*
Y60280D01*
X288201D01*
Y60263D01*
X288235D01*
Y60246D01*
X288253D01*
Y60229D01*
X288287D01*
Y60211D01*
X288322D01*
Y60194D01*
X288339D01*
Y60177D01*
X288374D01*
Y60159D01*
X288408D01*
Y60142D01*
X288443D01*
Y60125D01*
X288460D01*
Y60107D01*
X288495D01*
Y60090D01*
X288529D01*
Y60073D01*
X288564D01*
Y60055D01*
X288581D01*
Y60038D01*
X288616D01*
Y60021D01*
X288650D01*
Y60004D01*
X288685D01*
Y59986D01*
X288702D01*
Y59969D01*
X288737D01*
Y59952D01*
X288772D01*
Y59934D01*
X288789D01*
Y59917D01*
X288824D01*
Y59900D01*
X288858D01*
Y59882D01*
X288893D01*
Y59865D01*
X288910D01*
Y59848D01*
X288944D01*
Y59831D01*
X288979D01*
Y59813D01*
X289014D01*
Y59796D01*
X289031D01*
Y59779D01*
X289066D01*
Y59761D01*
X289100D01*
Y59744D01*
X289118D01*
Y59727D01*
X289152D01*
Y59710D01*
X289187D01*
Y59692D01*
X289221D01*
Y59675D01*
X289239D01*
Y59658D01*
X289273D01*
Y59640D01*
X289308D01*
Y59623D01*
X289342D01*
Y59606D01*
X289360D01*
Y59588D01*
X289394D01*
Y59571D01*
X289429D01*
Y59554D01*
X289464D01*
Y59537D01*
X289481D01*
Y59519D01*
X289515D01*
Y59502D01*
X289550D01*
Y59485D01*
X289567D01*
Y59467D01*
X289602D01*
Y59450D01*
X289636D01*
Y59433D01*
X289671D01*
Y59415D01*
X289688D01*
Y59398D01*
X289723D01*
Y59381D01*
X289757D01*
Y59364D01*
X289792D01*
Y59346D01*
X289809D01*
Y59329D01*
X289844D01*
Y59312D01*
X289879D01*
Y59294D01*
X289913D01*
Y59277D01*
X289930D01*
Y59260D01*
X289965D01*
Y59243D01*
X290000D01*
Y59225D01*
X290017D01*
Y59208D01*
X290052D01*
Y59191D01*
X290086D01*
Y59173D01*
X290103D01*
Y58654D01*
X290086D01*
Y56803D01*
X290069D01*
Y54970D01*
X290052D01*
Y53119D01*
X290034D01*
Y51285D01*
X290017D01*
Y49435D01*
X290000D01*
Y48276D01*
X289965D01*
Y48293D01*
X289930D01*
Y48310D01*
X289896D01*
Y48327D01*
X289861D01*
Y48345D01*
X289844D01*
Y48362D01*
X289809D01*
Y48379D01*
X289775D01*
Y48397D01*
X289757D01*
Y48414D01*
X289723D01*
Y48431D01*
X289688D01*
Y48449D01*
X289654D01*
Y48466D01*
X289636D01*
Y48483D01*
X289602D01*
Y48500D01*
X289567D01*
Y48518D01*
X289533D01*
Y48535D01*
X289515D01*
Y48552D01*
X289481D01*
Y48570D01*
X289446D01*
Y48587D01*
X289429D01*
Y48604D01*
X289394D01*
Y48622D01*
X289360D01*
Y48639D01*
X289325D01*
Y48656D01*
X289308D01*
Y48674D01*
X289273D01*
Y48691D01*
X289239D01*
Y48708D01*
X289204D01*
Y48725D01*
X289187D01*
Y48743D01*
X289152D01*
Y48760D01*
X289118D01*
Y48777D01*
X289083D01*
Y48795D01*
X289066D01*
Y48812D01*
X289031D01*
Y48829D01*
X288996D01*
Y48847D01*
X288979D01*
Y48864D01*
X288944D01*
Y48881D01*
X288910D01*
Y48898D01*
X288875D01*
Y48916D01*
X288858D01*
Y48933D01*
X288824D01*
Y48950D01*
X288789D01*
Y48967D01*
X288754D01*
Y48985D01*
X288737D01*
Y49002D01*
X288702D01*
Y49019D01*
X288668D01*
Y49037D01*
X288633D01*
Y49054D01*
X288616D01*
Y49071D01*
X288581D01*
Y49089D01*
X288547D01*
Y49106D01*
X288529D01*
Y49123D01*
X288495D01*
Y49141D01*
X288460D01*
Y49158D01*
X288426D01*
Y49175D01*
X288408D01*
Y49192D01*
X288374D01*
Y49210D01*
X288339D01*
Y49227D01*
X288305D01*
Y49244D01*
X288287D01*
Y49262D01*
X288253D01*
Y49279D01*
X288218D01*
Y49296D01*
X288183D01*
Y49314D01*
X288166D01*
Y49331D01*
X288132D01*
Y49348D01*
X288097D01*
Y49365D01*
X288080D01*
Y49383D01*
X288045D01*
Y49400D01*
X288010D01*
Y49417D01*
X287976D01*
Y49435D01*
X287959D01*
Y49452D01*
X287924D01*
Y49469D01*
X287889D01*
Y49486D01*
X287855D01*
Y49504D01*
X287838D01*
Y49521D01*
X287803D01*
Y49538D01*
X287768D01*
Y49556D01*
X287751D01*
Y49573D01*
X287716D01*
Y49590D01*
X287682D01*
Y49608D01*
X287647D01*
Y49625D01*
X287630D01*
Y49642D01*
X287595D01*
Y49660D01*
X287561D01*
Y49677D01*
X287526D01*
Y49694D01*
X287509D01*
Y49711D01*
X287474D01*
Y49729D01*
X287440D01*
Y49746D01*
X287405D01*
Y49763D01*
X287388D01*
Y49781D01*
X287353D01*
Y49798D01*
X287318D01*
Y49815D01*
X287301D01*
Y49832D01*
X287267D01*
Y49850D01*
X287232D01*
Y49867D01*
X287197D01*
Y49884D01*
X287180D01*
Y49902D01*
X287146D01*
Y49919D01*
X287111D01*
Y49936D01*
X287076D01*
Y49953D01*
X287059D01*
Y49971D01*
X287024D01*
Y49988D01*
X286990D01*
Y50005D01*
X286955D01*
Y50023D01*
X286938D01*
Y50040D01*
X286903D01*
Y50057D01*
X286869D01*
Y50075D01*
X286852D01*
Y50092D01*
X286817D01*
Y50109D01*
X286782D01*
Y50127D01*
X286748D01*
Y50144D01*
X286730D01*
Y50161D01*
X286696D01*
Y50178D01*
X286661D01*
Y50196D01*
X286627D01*
Y50213D01*
X286609D01*
Y50230D01*
X286575D01*
Y50248D01*
X286540D01*
Y50265D01*
X286506D01*
Y50282D01*
X286488D01*
Y50300D01*
X286454D01*
Y50317D01*
X286419D01*
Y50334D01*
X286402D01*
Y50351D01*
X286367D01*
Y50369D01*
X286332D01*
Y50386D01*
X286298D01*
Y50403D01*
X286281D01*
Y50421D01*
X286246D01*
Y50438D01*
X286211D01*
Y50455D01*
X286177D01*
Y50472D01*
X286160D01*
Y50490D01*
X286125D01*
Y50507D01*
X286090D01*
Y50524D01*
X286073D01*
Y50542D01*
X286038D01*
Y50559D01*
X286004D01*
Y50576D01*
X285969D01*
Y50594D01*
X285952D01*
Y50611D01*
X285917D01*
Y50628D01*
X285883D01*
Y50645D01*
X285848D01*
Y50663D01*
X285831D01*
Y50680D01*
X285796D01*
Y50697D01*
X285762D01*
Y50715D01*
X285727D01*
Y50732D01*
X285710D01*
Y50749D01*
X285675D01*
Y50767D01*
X285641D01*
Y50784D01*
X285623D01*
Y50801D01*
X285589D01*
Y50818D01*
X285554D01*
Y50836D01*
X285520D01*
Y50853D01*
X285502D01*
Y50870D01*
X285468D01*
Y50888D01*
X285433D01*
Y50905D01*
X285399D01*
Y50922D01*
X285381D01*
Y50939D01*
X285347D01*
Y50957D01*
X285312D01*
Y50974D01*
X285277D01*
Y50991D01*
X285260D01*
Y51009D01*
X285226D01*
Y51026D01*
X285191D01*
Y51043D01*
X285174D01*
Y51061D01*
X285139D01*
Y51078D01*
X285104D01*
Y51095D01*
X285070D01*
Y51112D01*
X285053D01*
Y51130D01*
X285018D01*
Y51147D01*
X284983D01*
Y51164D01*
X284949D01*
Y51182D01*
X284931D01*
Y51199D01*
X284897D01*
Y51216D01*
X284862D01*
Y51234D01*
X284845D01*
Y51251D01*
X284810D01*
Y51268D01*
X284776D01*
Y51285D01*
X284741D01*
Y51303D01*
X284724D01*
Y51320D01*
X284689D01*
Y51337D01*
X284655D01*
Y51355D01*
X284620D01*
Y51372D01*
X284603D01*
Y51389D01*
X284568D01*
Y51407D01*
X284534D01*
Y51424D01*
X284499D01*
Y51441D01*
X284482D01*
Y51458D01*
X284447D01*
Y51476D01*
X284412D01*
Y51493D01*
X284395D01*
Y51510D01*
X284361D01*
Y51528D01*
X284326D01*
Y51545D01*
X284291D01*
Y51562D01*
X284274D01*
Y51579D01*
X284240D01*
Y51597D01*
X284205D01*
Y51614D01*
X284170D01*
Y51631D01*
X284153D01*
Y51649D01*
X284118D01*
Y51666D01*
X284084D01*
Y51683D01*
X284049D01*
Y51701D01*
X284032D01*
Y51718D01*
X283997D01*
Y51735D01*
X283963D01*
Y51753D01*
X283945D01*
Y51770D01*
X283911D01*
Y51787D01*
X283876D01*
Y51804D01*
X283842D01*
Y51822D01*
X283824D01*
Y51839D01*
X283790D01*
Y51856D01*
X283755D01*
Y51874D01*
X283721D01*
Y51891D01*
X283703D01*
Y51908D01*
X283669D01*
Y51926D01*
X283634D01*
Y51943D01*
X283599D01*
Y51960D01*
X283582D01*
Y51977D01*
X283548D01*
Y51995D01*
X283513D01*
Y52012D01*
X283496D01*
Y52029D01*
X283461D01*
Y52047D01*
X283426D01*
Y52064D01*
X283392D01*
Y52081D01*
X283375D01*
Y52098D01*
X283340D01*
Y52116D01*
X283305D01*
Y52133D01*
X283271D01*
Y52150D01*
X283253D01*
Y52168D01*
X283219D01*
Y52185D01*
X283184D01*
Y52202D01*
X283167D01*
Y52220D01*
X283132D01*
Y52237D01*
X283098D01*
Y52254D01*
X283063D01*
Y52271D01*
X283046D01*
Y52289D01*
X283011D01*
Y52306D01*
X282977D01*
Y52323D01*
X282942D01*
Y52341D01*
X282925D01*
Y52358D01*
X282890D01*
Y52375D01*
X282856D01*
Y52393D01*
X282821D01*
Y52410D01*
X282804D01*
Y52427D01*
X282769D01*
Y52444D01*
X282735D01*
Y52462D01*
X282717D01*
Y52479D01*
X282683D01*
Y52496D01*
X282648D01*
Y52514D01*
X282614D01*
Y52531D01*
X282596D01*
Y52548D01*
X282562D01*
Y52565D01*
X282527D01*
Y52583D01*
X282492D01*
Y52600D01*
X282475D01*
Y52617D01*
X282440D01*
Y52635D01*
X282406D01*
Y52652D01*
X282371D01*
Y52669D01*
X282354D01*
Y52687D01*
X282319D01*
Y52704D01*
X282285D01*
Y52721D01*
X282267D01*
Y52738D01*
X282233D01*
Y52756D01*
X282198D01*
Y52773D01*
X282164D01*
Y52790D01*
X282146D01*
Y52808D01*
X282112D01*
Y52825D01*
X282077D01*
Y52842D01*
X282043D01*
Y52860D01*
X282025D01*
Y52877D01*
X281991D01*
Y52894D01*
X281956D01*
Y52912D01*
X281922D01*
Y52929D01*
X281904D01*
Y52946D01*
X281870D01*
Y52963D01*
X281835D01*
Y52981D01*
X281818D01*
Y52998D01*
X281783D01*
Y53015D01*
X281749D01*
Y53032D01*
X281714D01*
Y53050D01*
X281697D01*
Y53067D01*
X281662D01*
Y53084D01*
X281628D01*
Y53102D01*
X281593D01*
Y53119D01*
X281576D01*
Y53136D01*
X281541D01*
Y53154D01*
X281506D01*
Y53171D01*
X281489D01*
Y53188D01*
X281455D01*
Y53205D01*
X281420D01*
Y53223D01*
X281385D01*
Y53240D01*
X281368D01*
Y53257D01*
X281333D01*
Y53275D01*
X281299D01*
Y53292D01*
X281264D01*
Y53309D01*
X281247D01*
Y53327D01*
X281212D01*
Y53344D01*
X281178D01*
Y53361D01*
X281143D01*
Y53379D01*
X281126D01*
Y53396D01*
X281091D01*
Y53413D01*
X281057D01*
Y53430D01*
X281039D01*
Y53448D01*
X281005D01*
Y53465D01*
X280970D01*
Y53482D01*
X280936D01*
Y53500D01*
X280918D01*
Y53517D01*
X280884D01*
Y53534D01*
X280849D01*
Y53552D01*
X280814D01*
Y53569D01*
X280797D01*
Y53586D01*
X280763D01*
Y53603D01*
X280728D01*
Y53621D01*
X280693D01*
Y53638D01*
X280676D01*
Y53655D01*
X280642D01*
Y53673D01*
X280607D01*
Y53690D01*
X280590D01*
Y53707D01*
X280572D01*
Y53724D01*
X280555D01*
Y53742D01*
X280538D01*
Y55022D01*
X280555D01*
Y58205D01*
X280572D01*
Y61387D01*
X280590D01*
Y64570D01*
X280607D01*
Y64639D01*
X280590D01*
Y64657D01*
X280572D01*
Y64674D01*
X280590D01*
Y64657D01*
D02*
G37*
%LPC*%
G36*
X268533Y60817D02*
X267685D01*
Y59121D01*
X268256D01*
Y59139D01*
X268585D01*
Y59156D01*
X268723D01*
Y59173D01*
X268810D01*
Y59191D01*
X268896D01*
Y59208D01*
X268948D01*
Y59225D01*
X269000D01*
Y59243D01*
X269035D01*
Y59260D01*
X269087D01*
Y59277D01*
X269121D01*
Y59294D01*
X269156D01*
Y59312D01*
X269173D01*
Y59329D01*
X269208D01*
Y59346D01*
X269242D01*
Y59364D01*
X269259D01*
Y59381D01*
X269294D01*
Y59398D01*
X269311D01*
Y59415D01*
X269329D01*
Y59433D01*
X269346D01*
Y59450D01*
X269381D01*
Y59467D01*
X269398D01*
Y59502D01*
X269415D01*
Y59519D01*
X269433D01*
Y59537D01*
X269450D01*
Y59554D01*
X269467D01*
Y59588D01*
X269484D01*
Y59623D01*
X269502D01*
Y59658D01*
X269519D01*
Y59692D01*
X269536D01*
Y59744D01*
X269554D01*
Y59796D01*
X269571D01*
Y59900D01*
X269588D01*
Y60090D01*
X269571D01*
Y60194D01*
X269554D01*
Y60263D01*
X269536D01*
Y60298D01*
X269519D01*
Y60332D01*
X269502D01*
Y60367D01*
X269484D01*
Y60402D01*
X269467D01*
Y60419D01*
X269450D01*
Y60436D01*
X269433D01*
Y60453D01*
X269415D01*
Y60488D01*
X269398D01*
Y60505D01*
X269381D01*
Y60522D01*
X269346D01*
Y60540D01*
X269329D01*
Y60557D01*
X269311D01*
Y60574D01*
X269294D01*
Y60592D01*
X269259D01*
Y60609D01*
X269242D01*
Y60626D01*
X269208D01*
Y60644D01*
X269190D01*
Y60661D01*
X269156D01*
Y60678D01*
X269121D01*
Y60696D01*
X269087D01*
Y60713D01*
X269052D01*
Y60730D01*
X269000D01*
Y60747D01*
X268948D01*
Y60765D01*
X268862D01*
Y60782D01*
X268741D01*
Y60799D01*
X268533D01*
Y60817D01*
D02*
G37*
G36*
X268481Y63342D02*
X267685D01*
Y61975D01*
X268325D01*
Y61993D01*
X268464D01*
Y62010D01*
X268568D01*
Y62027D01*
X268637D01*
Y62045D01*
X268706D01*
Y62062D01*
X268741D01*
Y62079D01*
X268792D01*
Y62097D01*
X268827D01*
Y62114D01*
X268844D01*
Y62131D01*
X268879D01*
Y62148D01*
X268914D01*
Y62166D01*
X268931D01*
Y62183D01*
X268948D01*
Y62200D01*
X268965D01*
Y62218D01*
X268983D01*
Y62235D01*
X269000D01*
Y62252D01*
X269017D01*
Y62270D01*
X269035D01*
Y62287D01*
X269052D01*
Y62322D01*
X269069D01*
Y62339D01*
X269087D01*
Y62373D01*
X269104D01*
Y62408D01*
X269121D01*
Y62460D01*
X269139D01*
Y62529D01*
X269156D01*
Y62840D01*
X269139D01*
Y62892D01*
X269121D01*
Y62944D01*
X269104D01*
Y62962D01*
Y62979D01*
X269087D01*
Y63013D01*
X269069D01*
Y63031D01*
X269052D01*
Y63065D01*
X269035D01*
Y63083D01*
X269017D01*
Y63100D01*
X269000D01*
Y63117D01*
X268983D01*
Y63134D01*
X268965D01*
Y63152D01*
X268948D01*
Y63169D01*
X268914D01*
Y63186D01*
X268896D01*
Y63204D01*
X268879D01*
Y63221D01*
X268844D01*
Y63238D01*
X268810D01*
Y63256D01*
X268775D01*
Y63273D01*
X268741D01*
Y63290D01*
X268689D01*
Y63307D01*
X268619D01*
Y63325D01*
X268481D01*
Y63342D01*
D02*
G37*
%LPD*%
D16*
X199495Y205580D02*
D03*
Y200580D02*
D03*
Y195580D02*
D03*
Y190580D02*
D03*
Y185580D02*
D03*
X161185D02*
D03*
Y190580D02*
D03*
Y195580D02*
D03*
Y200580D02*
D03*
Y205580D02*
D03*
D17*
X190340Y176425D02*
D03*
X185340D02*
D03*
X180340D02*
D03*
X175340D02*
D03*
X170340D02*
D03*
Y214735D02*
D03*
X175340D02*
D03*
X180340D02*
D03*
X185340D02*
D03*
D18*
X190340D02*
D03*
D26*
X62900Y166100D02*
D03*
Y230100D02*
D03*
Y222100D02*
D03*
Y174100D02*
D03*
Y31900D02*
D03*
Y79900D02*
D03*
Y87900D02*
D03*
Y23900D02*
D03*
D27*
Y180600D02*
D03*
Y185600D02*
D03*
Y190600D02*
D03*
Y195600D02*
D03*
Y200600D02*
D03*
Y205600D02*
D03*
Y210600D02*
D03*
Y215600D02*
D03*
Y73400D02*
D03*
Y68400D02*
D03*
Y63400D02*
D03*
Y58400D02*
D03*
Y53400D02*
D03*
Y48400D02*
D03*
Y43400D02*
D03*
Y38400D02*
D03*
D30*
X315850Y86000D02*
D03*
X395350D02*
D03*
X315850Y41000D02*
D03*
X395350D02*
D03*
X315850Y213000D02*
D03*
X395350D02*
D03*
X315850Y168000D02*
D03*
X395350D02*
D03*
D33*
X286366Y205740D02*
D03*
X267355Y196240D02*
D03*
X286366Y168910D02*
D03*
X267355Y159410D02*
D03*
D34*
Y215240D02*
D03*
Y178410D02*
D03*
D37*
X180340Y195580D02*
D03*
D38*
X102870Y183366D02*
D03*
Y174266D02*
D03*
X151130Y146580D02*
D03*
Y155680D02*
D03*
X453390Y207750D02*
D03*
Y198650D02*
D03*
X104140Y33550D02*
D03*
Y42650D02*
D03*
Y70590D02*
D03*
Y61490D02*
D03*
X452374Y59204D02*
D03*
Y68304D02*
D03*
X247650Y205000D02*
D03*
Y214100D02*
D03*
X251460Y168888D02*
D03*
Y159788D02*
D03*
X103378Y219180D02*
D03*
Y210080D02*
D03*
X421640Y72920D02*
D03*
Y82020D02*
D03*
D39*
X497310Y133096D02*
D03*
X488210D02*
D03*
X497354D02*
D03*
X506454D02*
D03*
X497354Y112776D02*
D03*
X506454D02*
D03*
X127530Y189230D02*
D03*
X136630D02*
D03*
X127530Y201930D02*
D03*
X136630D02*
D03*
X228070Y215138D02*
D03*
X218970D02*
D03*
X228070Y156210D02*
D03*
X218970D02*
D03*
Y168910D02*
D03*
X228070D02*
D03*
X218970Y143510D02*
D03*
X228070D02*
D03*
X500656Y212090D02*
D03*
X509756D02*
D03*
X545570Y36830D02*
D03*
X536470D02*
D03*
X521440D02*
D03*
X512340D02*
D03*
X195050Y128270D02*
D03*
X185950D02*
D03*
X177060D02*
D03*
X186160D02*
D03*
X488254Y112776D02*
D03*
X497354D02*
D03*
X500910Y199898D02*
D03*
X510010D02*
D03*
D40*
X114880Y93980D02*
D03*
X106100D02*
D03*
X629230Y214630D02*
D03*
X620450D02*
D03*
X136470Y215900D02*
D03*
X127690D02*
D03*
X219384Y200914D02*
D03*
X228164D02*
D03*
X136470Y175260D02*
D03*
X127690D02*
D03*
X184840Y140970D02*
D03*
X193620D02*
D03*
X673680Y35306D02*
D03*
X664900D02*
D03*
X667440Y214630D02*
D03*
X676220D02*
D03*
X644580D02*
D03*
X653360D02*
D03*
X104830Y160020D02*
D03*
X113610D02*
D03*
X184840Y154940D02*
D03*
X193620D02*
D03*
D41*
X678340Y197000D02*
D03*
X538340D02*
D03*
X678340Y57000D02*
D03*
X538340D02*
D03*
D42*
X667840Y197000D02*
D03*
X659340D02*
D03*
X650840D02*
D03*
X642340D02*
D03*
X633840D02*
D03*
X625340D02*
D03*
X616840D02*
D03*
X608340D02*
D03*
X599840D02*
D03*
X591340D02*
D03*
X582840D02*
D03*
X574340D02*
D03*
X565840D02*
D03*
X557340D02*
D03*
X548840D02*
D03*
Y57000D02*
D03*
X557340D02*
D03*
X565840D02*
D03*
X574340D02*
D03*
X582840D02*
D03*
X591340D02*
D03*
X599840D02*
D03*
X608340D02*
D03*
X616840D02*
D03*
X625340D02*
D03*
X633840D02*
D03*
X642340D02*
D03*
X650840D02*
D03*
X659340D02*
D03*
X667840D02*
D03*
D43*
X538340Y186500D02*
D03*
Y178000D02*
D03*
Y169500D02*
D03*
Y161000D02*
D03*
Y152500D02*
D03*
Y144000D02*
D03*
Y135500D02*
D03*
Y127000D02*
D03*
Y118500D02*
D03*
Y110000D02*
D03*
Y101500D02*
D03*
Y93000D02*
D03*
Y84500D02*
D03*
Y76000D02*
D03*
Y67500D02*
D03*
X678340D02*
D03*
Y76000D02*
D03*
Y84500D02*
D03*
Y93000D02*
D03*
Y101500D02*
D03*
Y110000D02*
D03*
Y118500D02*
D03*
Y127000D02*
D03*
Y135500D02*
D03*
Y144000D02*
D03*
Y152500D02*
D03*
Y161000D02*
D03*
Y169500D02*
D03*
Y178000D02*
D03*
Y186500D02*
D03*
D44*
X608340Y127000D02*
D03*
X624840D02*
D03*
Y110500D02*
D03*
X608340D02*
D03*
X591840D02*
D03*
Y127000D02*
D03*
Y143500D02*
D03*
X608340D02*
D03*
D45*
X229370Y73660D02*
D03*
D46*
X166870Y50660D02*
D03*
Y73660D02*
D03*
Y96660D02*
D03*
D47*
X421640Y59000D02*
D03*
Y50220D02*
D03*
X146050Y94560D02*
D03*
Y85780D02*
D03*
Y52760D02*
D03*
Y61540D02*
D03*
X132080Y52760D02*
D03*
Y61540D02*
D03*
X165100Y155520D02*
D03*
Y146740D02*
D03*
X421640Y170760D02*
D03*
Y161980D02*
D03*
D48*
X439420Y198450D02*
D03*
Y207950D02*
D03*
X438404Y69266D02*
D03*
Y59766D02*
D03*
D49*
X90880Y93980D02*
D03*
X84380D02*
D03*
X89610Y160020D02*
D03*
X83110D02*
D03*
D50*
X82692Y58128D02*
D03*
Y64628D02*
D03*
X82804Y46990D02*
D03*
Y40490D02*
D03*
X84074Y205792D02*
D03*
Y212292D02*
D03*
X84328Y190448D02*
D03*
Y183948D02*
D03*
D51*
X17150Y241300D02*
D03*
Y154900D02*
D03*
Y12700D02*
D03*
Y99100D02*
D03*
D52*
X57150Y241300D02*
D03*
Y154900D02*
D03*
Y12700D02*
D03*
Y99100D02*
D03*
D53*
X95250Y139700D02*
D03*
D54*
Y114300D02*
D03*
Y127000D02*
D03*
X361950D02*
D03*
D55*
X349250D02*
D03*
D56*
X342900Y241300D02*
D03*
X647700D02*
D03*
X622300D02*
D03*
X596900D02*
D03*
X571500D02*
D03*
X546100D02*
D03*
X520700D02*
D03*
X495300D02*
D03*
X469900D02*
D03*
X444500D02*
D03*
X419100D02*
D03*
X393700D02*
D03*
X368300D02*
D03*
X317500D02*
D03*
X292100D02*
D03*
X266700D02*
D03*
X241300D02*
D03*
X215900D02*
D03*
X190500D02*
D03*
X165100D02*
D03*
X139700D02*
D03*
X114300D02*
D03*
X88900D02*
D03*
X342900Y12700D02*
D03*
X647700D02*
D03*
X622300D02*
D03*
X596900D02*
D03*
X571500D02*
D03*
X546100D02*
D03*
X520700D02*
D03*
X495300D02*
D03*
X469900D02*
D03*
X444500D02*
D03*
X419100D02*
D03*
X393700D02*
D03*
X368300D02*
D03*
X317500D02*
D03*
X292100D02*
D03*
X266700D02*
D03*
X241300D02*
D03*
X215900D02*
D03*
X190500D02*
D03*
X165100D02*
D03*
X139700D02*
D03*
X114300D02*
D03*
X88900D02*
D03*
D57*
X673100Y241300D02*
D03*
Y12700D02*
D03*
M02*
