G04*
G04 #@! TF.GenerationSoftware,Altium Limited,Altium Designer,24.9.1 (31)*
G04*
G04 Layer_Physical_Order=2*
G04 Layer_Color=36540*
%FSLAX44Y44*%
%MOMM*%
G71*
G04*
G04 #@! TF.SameCoordinates,9342EB83-EE33-4B72-AB8E-5D22900AAE0C*
G04*
G04*
G04 #@! TF.FilePolarity,Positive*
G04*
G01*
G75*
G04:AMPARAMS|DCode=51|XSize=1mm|YSize=2.2mm|CornerRadius=0.5mm|HoleSize=0mm|Usage=FLASHONLY|Rotation=270.000|XOffset=0mm|YOffset=0mm|HoleType=Round|Shape=RoundedRectangle|*
%AMROUNDEDRECTD51*
21,1,1.0000,1.2000,0,0,270.0*
21,1,0.0000,2.2000,0,0,270.0*
1,1,1.0000,-0.6000,0.0000*
1,1,1.0000,-0.6000,0.0000*
1,1,1.0000,0.6000,0.0000*
1,1,1.0000,0.6000,0.0000*
%
%ADD51ROUNDEDRECTD51*%
G04:AMPARAMS|DCode=52|XSize=1mm|YSize=1.8mm|CornerRadius=0.5mm|HoleSize=0mm|Usage=FLASHONLY|Rotation=270.000|XOffset=0mm|YOffset=0mm|HoleType=Round|Shape=RoundedRectangle|*
%AMROUNDEDRECTD52*
21,1,1.0000,0.8000,0,0,270.0*
21,1,0.0000,1.8000,0,0,270.0*
1,1,1.0000,-0.4000,0.0000*
1,1,1.0000,-0.4000,0.0000*
1,1,1.0000,0.4000,0.0000*
1,1,1.0000,0.4000,0.0000*
%
%ADD52ROUNDEDRECTD52*%
%ADD60C,0.3810*%
%ADD61C,0.5080*%
%ADD69R,1.0160X1.0160*%
%ADD70C,1.0160*%
%ADD71R,1.0160X1.0160*%
%ADD72C,1.6256*%
%ADD73R,1.6256X1.6256*%
%ADD74C,0.6096*%
%ADD75C,0.5588*%
%ADD76C,0.8890*%
%ADD77C,1.5240*%
G36*
X680720Y233222D02*
X665022D01*
Y248920D01*
X680720D01*
Y233222D01*
D02*
G37*
G36*
X231915Y246380D02*
X231359Y245418D01*
X230632Y242705D01*
Y239895D01*
X231359Y237182D01*
X232423Y235339D01*
X232034Y233264D01*
X231580Y232341D01*
X231454Y232288D01*
X229995Y231169D01*
X216658Y217832D01*
X216204Y217922D01*
X213912Y218678D01*
X212715Y219875D01*
X210662Y220726D01*
X208438D01*
X206385Y219875D01*
X204813Y218303D01*
X203962Y216250D01*
Y214027D01*
X204813Y211973D01*
X206385Y210401D01*
X208438Y209550D01*
X210662D01*
X212561Y208281D01*
Y186674D01*
X210685Y185420D01*
X208462D01*
X206408Y184569D01*
X204836Y182997D01*
X203985Y180944D01*
Y178720D01*
X204836Y176667D01*
X206408Y175095D01*
X208462Y174244D01*
X210685D01*
X212561Y172990D01*
Y145563D01*
X204600Y137601D01*
X203200D01*
X201377Y137361D01*
X199677Y136657D01*
X198218Y135538D01*
X197099Y134079D01*
X196395Y132379D01*
X196155Y130556D01*
X196395Y128733D01*
X197099Y127033D01*
X198218Y125574D01*
X199677Y124455D01*
X201377Y123751D01*
X203200Y123511D01*
X207518D01*
X209341Y123751D01*
X211041Y124455D01*
X212500Y125574D01*
X224588Y137663D01*
X225708Y139122D01*
X226411Y140821D01*
X226652Y142644D01*
Y207898D01*
X237895Y219142D01*
X241250D01*
Y218440D01*
X241447Y217449D01*
X242009Y216609D01*
X242849Y216047D01*
X243840Y215850D01*
X258007D01*
X292809Y181049D01*
X293649Y180487D01*
X294640Y180290D01*
X332690D01*
Y152400D01*
X332887Y151409D01*
X333449Y150569D01*
X347051Y136967D01*
X346079Y134620D01*
X341630D01*
Y129344D01*
X337280Y124993D01*
X336804Y125056D01*
X334152Y124706D01*
X331680Y123683D01*
X329558Y122054D01*
X321938Y114434D01*
X320309Y112312D01*
X319286Y109840D01*
X318936Y107188D01*
X318936Y107188D01*
Y96564D01*
X304502Y82130D01*
X183134D01*
X183134Y82130D01*
X180482Y81781D01*
X178010Y80757D01*
X175888Y79128D01*
X175888Y79128D01*
X159886Y63126D01*
X158257Y61004D01*
X157233Y58532D01*
X156884Y55880D01*
X156917Y55629D01*
X150868Y49580D01*
X123190D01*
X122595Y49461D01*
X122037Y50809D01*
X121909Y51119D01*
X121907Y51120D01*
X120491Y52559D01*
X121907Y53998D01*
X121909Y53999D01*
X122037Y54309D01*
X122682Y55866D01*
Y57887D01*
X121909Y59755D01*
X120480Y61184D01*
X118612Y61957D01*
X116592D01*
X114724Y61184D01*
X113295Y59755D01*
X112522Y57887D01*
Y55866D01*
X113167Y54309D01*
X113295Y53999D01*
X113297Y53998D01*
X114713Y52559D01*
X113297Y51120D01*
X113295Y51119D01*
X113167Y50809D01*
X112522Y49251D01*
Y47231D01*
X113295Y45363D01*
X114724Y43934D01*
X116592Y43161D01*
X118612D01*
X120600Y41235D01*
Y31750D01*
X120797Y30759D01*
X121359Y29919D01*
X122199Y29357D01*
X123190Y29160D01*
X163830D01*
X164821Y29357D01*
X165661Y29919D01*
X166223Y30759D01*
X166420Y31750D01*
Y43222D01*
X167132Y45632D01*
X169784Y45981D01*
X172256Y47005D01*
X174378Y48634D01*
X187379Y61634D01*
X308747D01*
X308747Y61634D01*
X311399Y61983D01*
X313871Y63007D01*
X315993Y64636D01*
X336430Y85073D01*
X338059Y87195D01*
X339082Y89667D01*
X339432Y92319D01*
X339432Y92319D01*
Y102943D01*
X344050Y107562D01*
X345679Y109684D01*
X346702Y112156D01*
X347052Y114808D01*
X347048Y114835D01*
X351594Y119380D01*
X356620D01*
X356870Y119330D01*
X365065D01*
X366056Y119527D01*
X368467Y118326D01*
X368549Y118233D01*
X368643Y118008D01*
X370215Y116436D01*
X372268Y115585D01*
X374492D01*
X376545Y116436D01*
X378117Y118008D01*
X378968Y120062D01*
Y122285D01*
X378117Y124339D01*
X376545Y125911D01*
X374492Y126761D01*
X373626D01*
X373430Y127000D01*
Y137160D01*
X373233Y138151D01*
X372671Y138991D01*
X366925Y144737D01*
X367521Y147734D01*
X367870Y147878D01*
X369370Y149378D01*
X370126Y149529D01*
X370723Y148933D01*
X372776Y148082D01*
X375000D01*
X377053Y148933D01*
X378625Y150505D01*
X379476Y152558D01*
Y154782D01*
X378625Y156835D01*
X377053Y158407D01*
X375000Y159258D01*
X372776D01*
X370723Y158407D01*
X369151Y156835D01*
X366647Y157428D01*
X365909Y157734D01*
X363787D01*
X361827Y156922D01*
X360326Y155421D01*
X360182Y155073D01*
X357186Y154477D01*
X353110Y158553D01*
Y180290D01*
X477151D01*
X478204Y177750D01*
X477863Y177409D01*
X477012Y175356D01*
Y173133D01*
X477863Y171079D01*
X479435Y169507D01*
X481488Y168656D01*
X483712D01*
X484825Y169118D01*
X485025Y169065D01*
X487108Y167639D01*
X487172Y167549D01*
Y166275D01*
X488023Y164221D01*
X489595Y162649D01*
X491648Y161798D01*
X493871D01*
X495925Y162649D01*
X497497Y164221D01*
X498348Y166275D01*
Y168498D01*
X497497Y170551D01*
X495925Y172123D01*
X493871Y172974D01*
X491648D01*
X490535Y172513D01*
X490335Y172566D01*
X488252Y173992D01*
X488188Y174081D01*
Y175356D01*
X487337Y177409D01*
X486996Y177750D01*
X488049Y180290D01*
X494939D01*
X495265Y179802D01*
Y177579D01*
X496116Y175525D01*
X497688Y173953D01*
X499742Y173102D01*
X501964D01*
X504018Y173953D01*
X505590Y175525D01*
X506441Y177579D01*
Y179802D01*
X505590Y181856D01*
X504018Y183428D01*
X503692Y185069D01*
X514153Y195530D01*
X628847D01*
X630960Y193417D01*
X630565Y191427D01*
X628993Y189855D01*
X628142Y187801D01*
Y185578D01*
X628993Y183525D01*
X630565Y181953D01*
X632618Y181102D01*
X634841D01*
X636895Y181953D01*
X638467Y183525D01*
X640457Y183920D01*
X652730Y171647D01*
Y71403D01*
X652927Y70412D01*
X653489Y69571D01*
X654052Y69008D01*
X654458Y68026D01*
Y66593D01*
X654052Y65612D01*
X653489Y65049D01*
X652927Y64208D01*
X652796Y63550D01*
X633350D01*
X631653Y66090D01*
X631698Y66199D01*
Y68422D01*
X630847Y70475D01*
X629275Y72047D01*
X627221Y72898D01*
X624999D01*
X622945Y72047D01*
X621373Y70475D01*
X620522Y68422D01*
Y66199D01*
X620567Y66090D01*
X618870Y63550D01*
X615570D01*
X614072Y65267D01*
X613823Y65969D01*
X613918Y66199D01*
Y68422D01*
X613067Y70475D01*
X611495Y72047D01*
X609441Y72898D01*
X607219D01*
X605165Y72047D01*
X603593Y70475D01*
X602742Y68422D01*
Y66199D01*
X603593Y64145D01*
X605165Y62573D01*
X607219Y61722D01*
X608187D01*
X609240Y59182D01*
X582369Y32311D01*
X581807Y31471D01*
X581610Y30480D01*
Y21269D01*
X579070Y20217D01*
X578050Y21237D01*
X575618Y22641D01*
X572905Y23368D01*
X570095D01*
X567382Y22641D01*
X564950Y21237D01*
X562963Y19250D01*
X561559Y16818D01*
X560832Y14104D01*
Y11295D01*
X561559Y8582D01*
X562115Y7620D01*
X560648Y5080D01*
X556952D01*
X555485Y7620D01*
X556041Y8582D01*
X556768Y11295D01*
Y14104D01*
X556041Y16818D01*
X554636Y19250D01*
X552650Y21237D01*
X550218Y22641D01*
X547505Y23368D01*
X544696D01*
X541982Y22641D01*
X539550Y21237D01*
X537564Y19250D01*
X536159Y16818D01*
X535432Y14104D01*
Y11295D01*
X536159Y8582D01*
X536715Y7620D01*
X535248Y5080D01*
X531552D01*
X530085Y7620D01*
X530641Y8582D01*
X531368Y11295D01*
Y14104D01*
X530641Y16818D01*
X529236Y19250D01*
X527250Y21237D01*
X524818Y22641D01*
X522104Y23368D01*
X519296D01*
X516582Y22641D01*
X514150Y21237D01*
X512164Y19250D01*
X510759Y16818D01*
X510032Y14104D01*
Y11295D01*
X510759Y8582D01*
X511315Y7620D01*
X509848Y5080D01*
X506152D01*
X504685Y7620D01*
X505241Y8582D01*
X505968Y11295D01*
Y14104D01*
X505241Y16818D01*
X503837Y19250D01*
X501850Y21237D01*
X499418Y22641D01*
X496704Y23368D01*
X493895D01*
X491182Y22641D01*
X488750Y21237D01*
X486763Y19250D01*
X485359Y16818D01*
X484632Y14104D01*
Y11295D01*
X485359Y8582D01*
X485915Y7620D01*
X484448Y5080D01*
X480752D01*
X479285Y7620D01*
X479841Y8582D01*
X480568Y11295D01*
Y14104D01*
X479841Y16818D01*
X478437Y19250D01*
X476450Y21237D01*
X474018Y22641D01*
X471305Y23368D01*
X468495D01*
X465782Y22641D01*
X463350Y21237D01*
X461363Y19250D01*
X459959Y16818D01*
X459232Y14104D01*
Y11295D01*
X459959Y8582D01*
X460515Y7620D01*
X459048Y5080D01*
X455352D01*
X453885Y7620D01*
X454441Y8582D01*
X455168Y11295D01*
Y14104D01*
X454441Y16818D01*
X453036Y19250D01*
X451050Y21237D01*
X448618Y22641D01*
X445905Y23368D01*
X443096D01*
X440382Y22641D01*
X437950Y21237D01*
X435964Y19250D01*
X434559Y16818D01*
X433832Y14104D01*
Y11295D01*
X434559Y8582D01*
X435115Y7620D01*
X433648Y5080D01*
X429952D01*
X428485Y7620D01*
X429041Y8582D01*
X429768Y11295D01*
Y14104D01*
X429041Y16818D01*
X427636Y19250D01*
X425650Y21237D01*
X423218Y22641D01*
X420504Y23368D01*
X417696D01*
X414982Y22641D01*
X412550Y21237D01*
X410564Y19250D01*
X409159Y16818D01*
X408432Y14104D01*
Y11295D01*
X409159Y8582D01*
X409715Y7620D01*
X408248Y5080D01*
X404552D01*
X403085Y7620D01*
X403641Y8582D01*
X404368Y11295D01*
Y14104D01*
X403641Y16818D01*
X402237Y19250D01*
X400250Y21237D01*
X397818Y22641D01*
X395104Y23368D01*
X392295D01*
X389582Y22641D01*
X387150Y21237D01*
X385163Y19250D01*
X383759Y16818D01*
X383032Y14104D01*
Y11295D01*
X383759Y8582D01*
X384315Y7620D01*
X382848Y5080D01*
X379152D01*
X377685Y7620D01*
X378241Y8582D01*
X378968Y11295D01*
Y14104D01*
X378241Y16818D01*
X376837Y19250D01*
X374850Y21237D01*
X372418Y22641D01*
X369705Y23368D01*
X366895D01*
X364182Y22641D01*
X361750Y21237D01*
X359763Y19250D01*
X358359Y16818D01*
X357632Y14104D01*
Y11295D01*
X358359Y8582D01*
X358915Y7620D01*
X357448Y5080D01*
X353752D01*
X352285Y7620D01*
X352841Y8582D01*
X353568Y11295D01*
Y14104D01*
X352841Y16818D01*
X351437Y19250D01*
X349450Y21237D01*
X347018Y22641D01*
X344305Y23368D01*
X341496D01*
X338782Y22641D01*
X336350Y21237D01*
X334364Y19250D01*
X332959Y16818D01*
X332232Y14104D01*
Y11295D01*
X332959Y8582D01*
X333515Y7620D01*
X332048Y5080D01*
X328352D01*
X326885Y7620D01*
X327441Y8582D01*
X328168Y11295D01*
Y14104D01*
X327441Y16818D01*
X326036Y19250D01*
X324050Y21237D01*
X321618Y22641D01*
X318904Y23368D01*
X316096D01*
X313382Y22641D01*
X310950Y21237D01*
X308964Y19250D01*
X307559Y16818D01*
X306832Y14104D01*
Y11295D01*
X307559Y8582D01*
X308115Y7620D01*
X306648Y5080D01*
X302952D01*
X301485Y7620D01*
X302041Y8582D01*
X302768Y11295D01*
Y14104D01*
X302041Y16818D01*
X300637Y19250D01*
X298650Y21237D01*
X296218Y22641D01*
X293505Y23368D01*
X290695D01*
X287982Y22641D01*
X285550Y21237D01*
X283563Y19250D01*
X282159Y16818D01*
X281432Y14104D01*
Y11295D01*
X282159Y8582D01*
X282715Y7620D01*
X281248Y5080D01*
X277552D01*
X276085Y7620D01*
X276641Y8582D01*
X277368Y11295D01*
Y14104D01*
X276641Y16818D01*
X275236Y19250D01*
X273250Y21237D01*
X270818Y22641D01*
X268104Y23368D01*
X265296D01*
X262582Y22641D01*
X260150Y21237D01*
X258164Y19250D01*
X256759Y16818D01*
X256032Y14104D01*
Y11295D01*
X256759Y8582D01*
X257315Y7620D01*
X255848Y5080D01*
X252152D01*
X250685Y7620D01*
X251241Y8582D01*
X251968Y11295D01*
Y14104D01*
X251241Y16818D01*
X249837Y19250D01*
X247850Y21237D01*
X245418Y22641D01*
X242705Y23368D01*
X239895D01*
X237182Y22641D01*
X234750Y21237D01*
X232764Y19250D01*
X231359Y16818D01*
X230632Y14104D01*
Y11295D01*
X231359Y8582D01*
X231915Y7620D01*
X230448Y5080D01*
X226752D01*
X225285Y7620D01*
X225841Y8582D01*
X226568Y11295D01*
Y14104D01*
X225841Y16818D01*
X224436Y19250D01*
X222450Y21237D01*
X220018Y22641D01*
X217304Y23368D01*
X214496D01*
X211782Y22641D01*
X209350Y21237D01*
X207363Y19250D01*
X205959Y16818D01*
X205232Y14104D01*
Y11295D01*
X205959Y8582D01*
X206515Y7620D01*
X205048Y5080D01*
X200684D01*
X199299Y7620D01*
X199968Y8778D01*
X200660Y11362D01*
Y14038D01*
X199968Y16622D01*
X198630Y18938D01*
X196738Y20830D01*
X194422Y22168D01*
X191838Y22860D01*
X189162D01*
X186578Y22168D01*
X184262Y20830D01*
X182370Y18938D01*
X181032Y16622D01*
X180340Y14038D01*
Y11362D01*
X181032Y8778D01*
X181701Y7620D01*
X180316Y5080D01*
X175284D01*
X173899Y7620D01*
X174568Y8778D01*
X175260Y11362D01*
Y14038D01*
X174568Y16622D01*
X173230Y18938D01*
X171338Y20830D01*
X169022Y22168D01*
X166438Y22860D01*
X163762D01*
X161178Y22168D01*
X158862Y20830D01*
X156970Y18938D01*
X155632Y16622D01*
X154940Y14038D01*
Y11362D01*
X155632Y8778D01*
X156301Y7620D01*
X154916Y5080D01*
X150552D01*
X149085Y7620D01*
X149641Y8582D01*
X150368Y11295D01*
Y14104D01*
X149641Y16818D01*
X148237Y19250D01*
X146250Y21237D01*
X143818Y22641D01*
X141104Y23368D01*
X138295D01*
X135582Y22641D01*
X133150Y21237D01*
X131164Y19250D01*
X129759Y16818D01*
X129032Y14104D01*
Y11295D01*
X129759Y8582D01*
X130315Y7620D01*
X128848Y5080D01*
X125152D01*
X123685Y7620D01*
X124241Y8582D01*
X124968Y11295D01*
Y14104D01*
X124241Y16818D01*
X122837Y19250D01*
X120850Y21237D01*
X118418Y22641D01*
X115704Y23368D01*
X112895D01*
X110182Y22641D01*
X107750Y21237D01*
X105764Y19250D01*
X104359Y16818D01*
X103632Y14104D01*
Y11295D01*
X104359Y8582D01*
X104915Y7620D01*
X103448Y5080D01*
X5080D01*
Y248920D01*
X78048D01*
X79515Y246380D01*
X78959Y245418D01*
X78232Y242705D01*
Y239895D01*
X78959Y237182D01*
X80364Y234750D01*
X82350Y232764D01*
X84782Y231359D01*
X87495Y230632D01*
X90304D01*
X93018Y231359D01*
X95450Y232764D01*
X97437Y234750D01*
X98841Y237182D01*
X99568Y239895D01*
Y242705D01*
X98841Y245418D01*
X98285Y246380D01*
X99752Y248920D01*
X128848D01*
X130315Y246380D01*
X129759Y245418D01*
X129032Y242705D01*
Y239895D01*
X129759Y237182D01*
X131164Y234750D01*
X133150Y232764D01*
X135582Y231359D01*
X138295Y230632D01*
X141104D01*
X143818Y231359D01*
X146250Y232764D01*
X148237Y234750D01*
X149641Y237182D01*
X150368Y239895D01*
Y242705D01*
X149641Y245418D01*
X149085Y246380D01*
X150552Y248920D01*
X154248D01*
X155715Y246380D01*
X155159Y245418D01*
X154432Y242705D01*
Y239895D01*
X155159Y237182D01*
X156564Y234750D01*
X158550Y232764D01*
X160982Y231359D01*
X163696Y230632D01*
X166504D01*
X169218Y231359D01*
X171650Y232764D01*
X173636Y234750D01*
X175041Y237182D01*
X175768Y239895D01*
Y242705D01*
X175041Y245418D01*
X174485Y246380D01*
X175952Y248920D01*
X179648D01*
X181115Y246380D01*
X180559Y245418D01*
X179832Y242705D01*
Y239895D01*
X180559Y237182D01*
X181964Y234750D01*
X183950Y232764D01*
X186382Y231359D01*
X188750Y230725D01*
X189460Y229517D01*
X189927Y228092D01*
X189230Y226409D01*
Y224186D01*
X190081Y222133D01*
X191653Y220561D01*
X193706Y219710D01*
X195930D01*
X197983Y220561D01*
X199555Y222133D01*
X200406Y224186D01*
Y226409D01*
X199555Y228463D01*
X197983Y230035D01*
X197647Y230175D01*
X197313Y231623D01*
X197339Y233052D01*
X199037Y234750D01*
X200441Y237182D01*
X201168Y239895D01*
Y242705D01*
X200441Y245418D01*
X199885Y246380D01*
X201352Y248920D01*
X205048D01*
X206515Y246380D01*
X205959Y245418D01*
X205232Y242705D01*
Y239895D01*
X205959Y237182D01*
X207363Y234750D01*
X209350Y232764D01*
X211782Y231359D01*
X214496Y230632D01*
X217304D01*
X220018Y231359D01*
X222450Y232764D01*
X224436Y234750D01*
X225841Y237182D01*
X226568Y239895D01*
Y242705D01*
X225841Y245418D01*
X225285Y246380D01*
X226752Y248920D01*
X230448D01*
X231915Y246380D01*
D02*
G37*
G36*
X662432Y230632D02*
X680720D01*
Y53229D01*
X678180Y51532D01*
X678115Y51558D01*
X675892D01*
X673839Y50708D01*
X672266Y49136D01*
X671416Y47082D01*
Y44859D01*
X672266Y42805D01*
X673839Y41233D01*
X675892Y40382D01*
X678115D01*
X678180Y40409D01*
X680720Y38712D01*
Y5080D01*
X658552D01*
X657085Y7620D01*
X657641Y8582D01*
X658368Y11295D01*
Y14104D01*
X657641Y16818D01*
X656236Y19250D01*
X654250Y21237D01*
X651818Y22641D01*
X649105Y23368D01*
X646295D01*
X643582Y22641D01*
X641150Y21237D01*
X639164Y19250D01*
X637759Y16818D01*
X637032Y14104D01*
Y11295D01*
X637759Y8582D01*
X638315Y7620D01*
X636848Y5080D01*
X633152D01*
X631685Y7620D01*
X632241Y8582D01*
X632968Y11295D01*
Y14104D01*
X632241Y16818D01*
X630836Y19250D01*
X628850Y21237D01*
X626418Y22641D01*
X623704Y23368D01*
X620896D01*
X618182Y22641D01*
X615750Y21237D01*
X613764Y19250D01*
X612359Y16818D01*
X611632Y14104D01*
Y11295D01*
X612359Y8582D01*
X612915Y7620D01*
X611448Y5080D01*
X607752D01*
X606285Y7620D01*
X606841Y8582D01*
X607568Y11295D01*
Y14104D01*
X606841Y16818D01*
X605437Y19250D01*
X603450Y21237D01*
X601018Y22641D01*
X598304Y23368D01*
X595495D01*
X592782Y22641D01*
X590350Y21237D01*
X588363Y19250D01*
X586959Y16818D01*
X586740Y16000D01*
X584200Y16335D01*
Y30480D01*
X614680Y60960D01*
X655320D01*
Y63217D01*
X656247Y64145D01*
X657098Y66199D01*
Y68422D01*
X656247Y70475D01*
X655320Y71403D01*
Y172720D01*
X638667Y189373D01*
X638467Y189855D01*
X636895Y191427D01*
X636413Y191627D01*
X629920Y198120D01*
X513080D01*
X498883Y183923D01*
X497688Y183428D01*
X497140Y182880D01*
X350520D01*
Y157480D01*
X370840Y137160D01*
Y127000D01*
X370145D01*
X365065Y121920D01*
X356870D01*
Y134620D01*
X353060D01*
X335280Y152400D01*
Y182880D01*
X294640D01*
X259080Y218440D01*
X243840D01*
Y228600D01*
X244830Y231202D01*
X245418Y231359D01*
X247850Y232764D01*
X249837Y234750D01*
X251241Y237182D01*
X251968Y239895D01*
Y242705D01*
X251241Y245418D01*
X250969Y245889D01*
X253542Y248462D01*
X255901Y248253D01*
X257115Y246034D01*
X256759Y245418D01*
X256032Y242705D01*
Y239895D01*
X256759Y237182D01*
X258164Y234750D01*
X260150Y232764D01*
X262582Y231359D01*
X265296Y230632D01*
X268104D01*
X270818Y231359D01*
X273250Y232764D01*
X275236Y234750D01*
X276641Y237182D01*
X277368Y239895D01*
Y242705D01*
X276641Y245418D01*
X276085Y246380D01*
X277552Y248920D01*
X281248D01*
X282715Y246380D01*
X282159Y245418D01*
X281432Y242705D01*
Y239895D01*
X282159Y237182D01*
X283563Y234750D01*
X285550Y232764D01*
X287982Y231359D01*
X290695Y230632D01*
X293505D01*
X296218Y231359D01*
X298650Y232764D01*
X300637Y234750D01*
X302041Y237182D01*
X302768Y239895D01*
Y242705D01*
X302041Y245418D01*
X301485Y246380D01*
X302952Y248920D01*
X306648D01*
X308115Y246380D01*
X307559Y245418D01*
X306832Y242705D01*
Y239895D01*
X307559Y237182D01*
X308964Y234750D01*
X310950Y232764D01*
X313382Y231359D01*
X316096Y230632D01*
X318904D01*
X321618Y231359D01*
X324050Y232764D01*
X326036Y234750D01*
X327441Y237182D01*
X328168Y239895D01*
Y242705D01*
X327441Y245418D01*
X326885Y246380D01*
X328352Y248920D01*
X332048D01*
X333515Y246380D01*
X332959Y245418D01*
X332232Y242705D01*
Y239895D01*
X332959Y237182D01*
X334364Y234750D01*
X336350Y232764D01*
X338782Y231359D01*
X341496Y230632D01*
X344305D01*
X347018Y231359D01*
X349450Y232764D01*
X351437Y234750D01*
X352841Y237182D01*
X353568Y239895D01*
Y242705D01*
X352841Y245418D01*
X352285Y246380D01*
X353752Y248920D01*
X357448D01*
X358915Y246380D01*
X358359Y245418D01*
X357632Y242705D01*
Y239895D01*
X358359Y237182D01*
X359763Y234750D01*
X361750Y232764D01*
X364182Y231359D01*
X366895Y230632D01*
X369705D01*
X372418Y231359D01*
X374850Y232764D01*
X376837Y234750D01*
X378241Y237182D01*
X378968Y239895D01*
Y242705D01*
X378241Y245418D01*
X377685Y246380D01*
X379152Y248920D01*
X382848D01*
X384315Y246380D01*
X383759Y245418D01*
X383032Y242705D01*
Y239895D01*
X383759Y237182D01*
X385163Y234750D01*
X387150Y232764D01*
X389582Y231359D01*
X392295Y230632D01*
X395104D01*
X397818Y231359D01*
X400250Y232764D01*
X402237Y234750D01*
X403641Y237182D01*
X404368Y239895D01*
Y242705D01*
X403641Y245418D01*
X403085Y246380D01*
X404552Y248920D01*
X408248D01*
X409715Y246380D01*
X409159Y245418D01*
X408432Y242705D01*
Y239895D01*
X409159Y237182D01*
X410564Y234750D01*
X412550Y232764D01*
X414982Y231359D01*
X417696Y230632D01*
X420504D01*
X423218Y231359D01*
X425650Y232764D01*
X427636Y234750D01*
X429041Y237182D01*
X429768Y239895D01*
Y242705D01*
X429041Y245418D01*
X428485Y246380D01*
X429952Y248920D01*
X433648D01*
X435115Y246380D01*
X434559Y245418D01*
X433832Y242705D01*
Y239895D01*
X434559Y237182D01*
X435964Y234750D01*
X437950Y232764D01*
X440382Y231359D01*
X443096Y230632D01*
X445905D01*
X448618Y231359D01*
X451050Y232764D01*
X453036Y234750D01*
X454441Y237182D01*
X455168Y239895D01*
Y242705D01*
X454441Y245418D01*
X453885Y246380D01*
X455352Y248920D01*
X459048D01*
X460515Y246380D01*
X459959Y245418D01*
X459232Y242705D01*
Y239895D01*
X459959Y237182D01*
X461363Y234750D01*
X463350Y232764D01*
X465782Y231359D01*
X468495Y230632D01*
X471305D01*
X474018Y231359D01*
X476450Y232764D01*
X478437Y234750D01*
X479841Y237182D01*
X480568Y239895D01*
Y242705D01*
X479841Y245418D01*
X479285Y246380D01*
X480752Y248920D01*
X484448D01*
X485915Y246380D01*
X485359Y245418D01*
X484632Y242705D01*
Y239895D01*
X485359Y237182D01*
X486763Y234750D01*
X488750Y232764D01*
X491182Y231359D01*
X493895Y230632D01*
X496704D01*
X499418Y231359D01*
X501850Y232764D01*
X503837Y234750D01*
X505241Y237182D01*
X505968Y239895D01*
Y242705D01*
X505241Y245418D01*
X504685Y246380D01*
X506152Y248920D01*
X509848D01*
X511315Y246380D01*
X510759Y245418D01*
X510032Y242705D01*
Y239895D01*
X510759Y237182D01*
X512164Y234750D01*
X514150Y232764D01*
X516582Y231359D01*
X519296Y230632D01*
X522104D01*
X524818Y231359D01*
X527250Y232764D01*
X529236Y234750D01*
X530641Y237182D01*
X531368Y239895D01*
Y242705D01*
X530641Y245418D01*
X530085Y246380D01*
X531552Y248920D01*
X535248D01*
X536715Y246380D01*
X536159Y245418D01*
X535432Y242705D01*
Y239895D01*
X536159Y237182D01*
X537564Y234750D01*
X539550Y232764D01*
X541982Y231359D01*
X544696Y230632D01*
X547505D01*
X550218Y231359D01*
X552650Y232764D01*
X554636Y234750D01*
X556041Y237182D01*
X556768Y239895D01*
Y242705D01*
X556041Y245418D01*
X555485Y246380D01*
X556952Y248920D01*
X560648D01*
X562115Y246380D01*
X561559Y245418D01*
X560832Y242705D01*
Y239895D01*
X561559Y237182D01*
X562963Y234750D01*
X564950Y232764D01*
X567382Y231359D01*
X570095Y230632D01*
X572905D01*
X575618Y231359D01*
X578050Y232764D01*
X580037Y234750D01*
X581441Y237182D01*
X582168Y239895D01*
Y242705D01*
X581441Y245418D01*
X580885Y246380D01*
X582352Y248920D01*
X586048D01*
X587515Y246380D01*
X586959Y245418D01*
X586232Y242705D01*
Y239895D01*
X586959Y237182D01*
X588363Y234750D01*
X590350Y232764D01*
X592782Y231359D01*
X595495Y230632D01*
X598304D01*
X601018Y231359D01*
X603450Y232764D01*
X605437Y234750D01*
X606841Y237182D01*
X607568Y239895D01*
Y242705D01*
X606841Y245418D01*
X606285Y246380D01*
X607752Y248920D01*
X611448D01*
X612915Y246380D01*
X612359Y245418D01*
X611632Y242705D01*
Y239895D01*
X612359Y237182D01*
X613764Y234750D01*
X615750Y232764D01*
X618182Y231359D01*
X618920Y231161D01*
X619480Y228382D01*
X618712Y227614D01*
X617862Y225560D01*
Y223337D01*
X618712Y221284D01*
X620284Y219712D01*
X622338Y218861D01*
X624561D01*
X626615Y219712D01*
X628187Y221284D01*
X629038Y223337D01*
Y225560D01*
X628187Y227614D01*
X626934Y228868D01*
X626786Y229580D01*
X626815Y230283D01*
X627082Y231742D01*
X628850Y232764D01*
X630836Y234750D01*
X632241Y237182D01*
X632968Y239895D01*
Y242705D01*
X632241Y245418D01*
X631685Y246380D01*
X633152Y248920D01*
X662432D01*
Y230632D01*
D02*
G37*
G36*
X163830Y31750D02*
X123190D01*
Y46990D01*
X163830D01*
Y31750D01*
D02*
G37*
G36*
X650818Y20228D02*
X652660Y19164D01*
X654164Y17660D01*
X655228Y15818D01*
X655778Y13764D01*
Y11637D01*
X655228Y9582D01*
X654843Y8915D01*
X654734Y8594D01*
X654584Y8290D01*
X654573Y8120D01*
X654518Y7958D01*
X654540Y7620D01*
X654518Y7282D01*
X654072Y6513D01*
X653046Y5270D01*
X652813Y5080D01*
X642587D01*
X642354Y5270D01*
X641328Y6513D01*
X640882Y7282D01*
X640860Y7620D01*
X640882Y7958D01*
X640827Y8120D01*
X640816Y8290D01*
X640666Y8594D01*
X640557Y8915D01*
X640172Y9582D01*
X639622Y11637D01*
Y13764D01*
X640172Y15818D01*
X641236Y17660D01*
X642740Y19164D01*
X644582Y20228D01*
X646637Y20778D01*
X648764D01*
X650818Y20228D01*
D02*
G37*
%LPC*%
G36*
X93212Y207772D02*
X91192D01*
X89324Y206999D01*
X87895Y205570D01*
X87122Y203703D01*
Y201681D01*
X87895Y199814D01*
X89082Y198628D01*
X87895Y197442D01*
X87122Y195574D01*
Y193554D01*
X87895Y191686D01*
X89324Y190257D01*
X91192Y189484D01*
X93212D01*
X95080Y190257D01*
X96509Y191686D01*
X97282Y193554D01*
Y195574D01*
X96509Y197442D01*
X95322Y198628D01*
X96509Y199814D01*
X97282Y201681D01*
Y203703D01*
X96509Y205570D01*
X95080Y206999D01*
X93212Y207772D01*
D02*
G37*
G36*
X119375Y205232D02*
X117353D01*
X115486Y204459D01*
X114057Y203030D01*
X113284Y201162D01*
Y199142D01*
X113929Y197584D01*
X114057Y197274D01*
X114059Y197273D01*
X115475Y195834D01*
X114059Y194395D01*
X114057Y194394D01*
X113929Y194084D01*
X113284Y192526D01*
Y190506D01*
X114057Y188638D01*
X115486Y187209D01*
X117353Y186436D01*
X119375D01*
X121242Y187209D01*
X122671Y188638D01*
X123444Y190506D01*
Y192526D01*
X122799Y194084D01*
X122671Y194394D01*
X122669Y194395D01*
X121253Y195834D01*
X122669Y197273D01*
X122671Y197274D01*
X122799Y197584D01*
X123444Y199142D01*
Y201162D01*
X122671Y203030D01*
X121242Y204459D01*
X119375Y205232D01*
D02*
G37*
G36*
X618331Y192278D02*
X616109D01*
X614055Y191427D01*
X612483Y189855D01*
X611632Y187801D01*
Y185578D01*
X612483Y183525D01*
X614055Y181953D01*
X616109Y181102D01*
X618331D01*
X620385Y181953D01*
X621957Y183525D01*
X622808Y185578D01*
Y187801D01*
X621957Y189855D01*
X620385Y191427D01*
X618331Y192278D01*
D02*
G37*
G36*
X601822D02*
X599599D01*
X597545Y191427D01*
X595973Y189855D01*
X595122Y187801D01*
Y185578D01*
X595973Y183525D01*
X597545Y181953D01*
X599599Y181102D01*
X601822D01*
X603875Y181953D01*
X605447Y183525D01*
X606298Y185578D01*
Y187801D01*
X605447Y189855D01*
X603875Y191427D01*
X601822Y192278D01*
D02*
G37*
G36*
X584041D02*
X581819D01*
X579765Y191427D01*
X578193Y189855D01*
X577342Y187801D01*
Y185578D01*
X578193Y183525D01*
X579765Y181953D01*
X581819Y181102D01*
X584041D01*
X586095Y181953D01*
X587667Y183525D01*
X588518Y185578D01*
Y187801D01*
X587667Y189855D01*
X586095Y191427D01*
X584041Y192278D01*
D02*
G37*
G36*
X567532Y189738D02*
X565308D01*
X563255Y188887D01*
X561683Y187315D01*
X560832Y185261D01*
Y183039D01*
X561683Y180985D01*
X562303Y180364D01*
X560864Y178211D01*
X560308Y178441D01*
X559403Y178816D01*
X557180D01*
X556857Y178682D01*
X555100Y178005D01*
X553816Y179892D01*
X552244Y181464D01*
X550190Y182314D01*
X547967D01*
X545913Y181464D01*
X544342Y179892D01*
X543491Y177838D01*
Y175615D01*
X544342Y173561D01*
X545913Y171989D01*
X547967Y171138D01*
X550190D01*
X550514Y171272D01*
X552271Y171950D01*
X553555Y170063D01*
X555127Y168491D01*
X557180Y167640D01*
X559403D01*
X561457Y168491D01*
X563029Y170063D01*
X563880Y172117D01*
Y174340D01*
X563029Y176393D01*
X562409Y177014D01*
X563848Y179167D01*
X564404Y178937D01*
X565308Y178562D01*
X567532D01*
X568992Y179167D01*
X570431Y177014D01*
X569303Y175885D01*
X568452Y173832D01*
Y171609D01*
X569303Y169555D01*
X570875Y167983D01*
X572929Y167132D01*
X575151D01*
X577205Y167983D01*
X578777Y169555D01*
X579628Y171609D01*
Y173832D01*
X578777Y175885D01*
X577205Y177457D01*
X575151Y178308D01*
X572929D01*
X571468Y177703D01*
X570029Y179856D01*
X571157Y180985D01*
X572008Y183039D01*
Y185261D01*
X571157Y187315D01*
X569585Y188887D01*
X567532Y189738D01*
D02*
G37*
G36*
X162403Y181356D02*
X160685D01*
X159098Y180699D01*
X157883Y179484D01*
X157226Y177897D01*
Y176179D01*
X157883Y174592D01*
X159098Y173377D01*
X160685Y172720D01*
X162403D01*
X163990Y173377D01*
X165205Y174592D01*
X165862Y176179D01*
Y177897D01*
X165205Y179484D01*
X163990Y180699D01*
X162403Y181356D01*
D02*
G37*
G36*
X626446Y178313D02*
X624224D01*
X622170Y177462D01*
X620598Y175890D01*
X619747Y173836D01*
Y171614D01*
X620598Y169560D01*
X622170Y167988D01*
X624224Y167137D01*
X626446D01*
X628500Y167988D01*
X630072Y169560D01*
X630923Y171614D01*
Y173836D01*
X630072Y175890D01*
X628500Y177462D01*
X626446Y178313D01*
D02*
G37*
G36*
X609441Y178308D02*
X607219D01*
X605165Y177457D01*
X603593Y175885D01*
X602742Y173832D01*
Y171609D01*
X603593Y169555D01*
X605165Y167983D01*
X607219Y167132D01*
X609441D01*
X611495Y167983D01*
X613067Y169555D01*
X613918Y171609D01*
Y173832D01*
X613067Y175885D01*
X611495Y177457D01*
X609441Y178308D01*
D02*
G37*
G36*
X592932D02*
X590709D01*
X588655Y177457D01*
X587083Y175885D01*
X586232Y173832D01*
Y171609D01*
X587083Y169555D01*
X588655Y167983D01*
X590709Y167132D01*
X592932D01*
X594985Y167983D01*
X596557Y169555D01*
X597408Y171609D01*
Y173832D01*
X596557Y175885D01*
X594985Y177457D01*
X592932Y178308D01*
D02*
G37*
G36*
X241649Y171450D02*
X239426D01*
X237373Y170599D01*
X235801Y169027D01*
X234950Y166973D01*
Y164750D01*
X235801Y162697D01*
X237373Y161125D01*
X239426Y160274D01*
X241649D01*
X243703Y161125D01*
X245275Y162697D01*
X246126Y164750D01*
Y166973D01*
X245275Y169027D01*
X243703Y170599D01*
X241649Y171450D01*
D02*
G37*
G36*
X427228Y159004D02*
X425005D01*
X422952Y158153D01*
X422109Y157310D01*
X421254Y156613D01*
X418891Y157210D01*
X418709Y157391D01*
X416656Y158242D01*
X414432D01*
X412379Y157391D01*
X410807Y155819D01*
X409956Y153765D01*
Y151543D01*
X410807Y149489D01*
X412379Y147917D01*
X414432Y147066D01*
X416656D01*
X418709Y147917D01*
X419552Y148759D01*
X420407Y149457D01*
X422770Y148860D01*
X422952Y148679D01*
X425005Y147828D01*
X427228D01*
X429282Y148679D01*
X430854Y150251D01*
X431705Y152304D01*
Y154528D01*
X430854Y156581D01*
X429282Y158153D01*
X427228Y159004D01*
D02*
G37*
G36*
X478632Y166116D02*
X476409D01*
X474355Y165265D01*
X472783Y163693D01*
X471932Y161640D01*
Y159417D01*
X472783Y157363D01*
X474355Y155791D01*
X476409Y154940D01*
X478632D01*
X480685Y155791D01*
X482257Y157363D01*
X483108Y159417D01*
Y161640D01*
X482257Y163693D01*
X480685Y165265D01*
X478632Y166116D01*
D02*
G37*
G36*
X396335Y160274D02*
X394113D01*
X392059Y159423D01*
X390487Y157851D01*
X389636Y155798D01*
Y153574D01*
X390487Y151521D01*
X392059Y149949D01*
X394113Y149098D01*
X396335D01*
X398389Y149949D01*
X399961Y151521D01*
X400812Y153574D01*
Y155798D01*
X399961Y157851D01*
X398389Y159423D01*
X396335Y160274D01*
D02*
G37*
G36*
X141827Y158242D02*
X139605D01*
X137551Y157391D01*
X135979Y155819D01*
X135128Y153765D01*
Y151543D01*
X135979Y149489D01*
X137551Y147917D01*
X139605Y147066D01*
X141827D01*
X143881Y147917D01*
X145453Y149489D01*
X146304Y151543D01*
Y153765D01*
X145453Y155819D01*
X143881Y157391D01*
X141827Y158242D01*
D02*
G37*
G36*
X516376Y138176D02*
X514356D01*
X512488Y137403D01*
X511059Y135974D01*
X510286Y134107D01*
Y132086D01*
X511059Y130218D01*
X512488Y128789D01*
X514356Y128016D01*
X516376D01*
X518244Y128789D01*
X519673Y130218D01*
X520446Y132086D01*
Y134107D01*
X519673Y135974D01*
X518244Y137403D01*
X516376Y138176D01*
D02*
G37*
G36*
X159100Y132588D02*
X156876D01*
X154823Y131737D01*
X153251Y130165D01*
X152400Y128111D01*
Y125889D01*
X153251Y123835D01*
X154823Y122263D01*
X156876Y121412D01*
X159100D01*
X161153Y122263D01*
X162725Y123835D01*
X163576Y125889D01*
Y128111D01*
X162725Y130165D01*
X161153Y131737D01*
X159100Y132588D01*
D02*
G37*
G36*
X477769Y133604D02*
X475747D01*
X473880Y132831D01*
X472451Y131402D01*
X471678Y129535D01*
Y127514D01*
X472451Y125646D01*
X473880Y124217D01*
X475351Y123608D01*
X475421Y123188D01*
Y121489D01*
X475351Y121068D01*
X473880Y120459D01*
X472451Y119030D01*
X471678Y117163D01*
Y115142D01*
X472451Y113275D01*
X473880Y111846D01*
X475747Y111073D01*
X477769D01*
X479636Y111846D01*
X481065Y113275D01*
X481838Y115142D01*
Y117163D01*
X481065Y119030D01*
X479636Y120459D01*
X478165Y121068D01*
X478095Y121489D01*
Y123188D01*
X478165Y123608D01*
X479636Y124217D01*
X481065Y125646D01*
X481838Y127514D01*
Y129535D01*
X481065Y131402D01*
X479636Y132831D01*
X477769Y133604D01*
D02*
G37*
G36*
X102870Y147320D02*
X87630D01*
Y132080D01*
X87630Y132080D01*
X88042Y129540D01*
X87630Y128003D01*
Y125997D01*
X88149Y124059D01*
X89152Y122321D01*
X90385Y120650D01*
X89152Y118979D01*
X88149Y117241D01*
X87630Y115303D01*
Y113297D01*
X88149Y111359D01*
X89152Y109621D01*
X90571Y108202D01*
X92309Y107199D01*
X94247Y106680D01*
X96253D01*
X98191Y107199D01*
X99929Y108202D01*
X101348Y109621D01*
X102351Y111359D01*
X102870Y113297D01*
Y115303D01*
X102351Y117241D01*
X101348Y118979D01*
X100115Y120650D01*
X101348Y122321D01*
X102351Y124059D01*
X102870Y125997D01*
Y128003D01*
X102458Y129540D01*
X102870Y132080D01*
X102870D01*
Y147320D01*
D02*
G37*
G36*
X430372Y113171D02*
X428148D01*
X426095Y112321D01*
X424523Y110749D01*
X423672Y108695D01*
Y106472D01*
X424523Y104418D01*
X426095Y102846D01*
X428148Y101995D01*
X430372D01*
X432425Y102846D01*
X433997Y104418D01*
X434848Y106472D01*
Y108695D01*
X433997Y110749D01*
X432425Y112321D01*
X430372Y113171D01*
D02*
G37*
G36*
X446904Y106313D02*
X444681D01*
X442627Y105463D01*
X441055Y103891D01*
X440205Y101837D01*
Y99614D01*
X441055Y97560D01*
X442627Y95988D01*
X444681Y95137D01*
X446904D01*
X448958Y95988D01*
X450530Y97560D01*
X451381Y99614D01*
Y101837D01*
X450530Y103891D01*
X448958Y105463D01*
X446904Y106313D01*
D02*
G37*
G36*
X516376Y117856D02*
X514356D01*
X512488Y117083D01*
X511059Y115654D01*
X510286Y113786D01*
Y111765D01*
X511059Y109898D01*
X512488Y108469D01*
X512722Y108212D01*
X513666Y105349D01*
X513334Y104549D01*
Y102326D01*
X514185Y100272D01*
X515757Y98700D01*
X517811Y97849D01*
X520033D01*
X520964Y98235D01*
X523441Y96834D01*
X523504Y96747D01*
Y96171D01*
X524355Y94117D01*
X525927Y92545D01*
X527980Y91694D01*
X530204D01*
X532257Y92545D01*
X533829Y94117D01*
X534680Y96171D01*
Y98393D01*
X533829Y100447D01*
X532257Y102019D01*
X530204Y102870D01*
X527980D01*
X527050Y102485D01*
X524573Y103886D01*
X524510Y103973D01*
Y104549D01*
X523659Y106603D01*
X522087Y108175D01*
X521585Y108383D01*
X520096Y109563D01*
X520315Y111449D01*
X520446Y111765D01*
Y113786D01*
X519673Y115654D01*
X518244Y117083D01*
X516376Y117856D01*
D02*
G37*
G36*
X499022Y95309D02*
X496799D01*
X494745Y94459D01*
X493173Y92887D01*
X492322Y90833D01*
X492322Y88610D01*
X490124Y88451D01*
X488071Y87601D01*
X486499Y86029D01*
X485648Y83975D01*
Y81752D01*
X486499Y79698D01*
X488071Y78126D01*
X490125Y77275D01*
X492347D01*
X494401Y78126D01*
X495973Y79698D01*
X496824Y81752D01*
X496824Y83975D01*
X499022Y84133D01*
X501076Y84984D01*
X502648Y86556D01*
X503498Y88610D01*
Y90833D01*
X502648Y92887D01*
X501076Y94459D01*
X499022Y95309D01*
D02*
G37*
G36*
X634841Y86868D02*
X632618D01*
X630565Y86017D01*
X628993Y84445D01*
X628142Y82392D01*
Y80169D01*
X628993Y78115D01*
X630565Y76543D01*
X632618Y75692D01*
X634841D01*
X636895Y76543D01*
X638467Y78115D01*
X639318Y80169D01*
Y82392D01*
X638467Y84445D01*
X636895Y86017D01*
X634841Y86868D01*
D02*
G37*
G36*
X618331D02*
X616109D01*
X614055Y86017D01*
X612483Y84445D01*
X611632Y82392D01*
Y80169D01*
X612483Y78115D01*
X614055Y76543D01*
X616109Y75692D01*
X618331D01*
X620385Y76543D01*
X621957Y78115D01*
X622808Y80169D01*
Y82392D01*
X621957Y84445D01*
X620385Y86017D01*
X618331Y86868D01*
D02*
G37*
G36*
X584041D02*
X581819D01*
X579765Y86017D01*
X578193Y84445D01*
X577342Y82392D01*
Y80169D01*
X578193Y78115D01*
X579765Y76543D01*
X581819Y75692D01*
X584041D01*
X586095Y76543D01*
X587667Y78115D01*
X588518Y80169D01*
Y82392D01*
X587667Y84445D01*
X586095Y86017D01*
X584041Y86868D01*
D02*
G37*
G36*
X550242Y86958D02*
X548018D01*
X545965Y86107D01*
X544393Y84535D01*
X543542Y82481D01*
Y80259D01*
X544393Y78205D01*
X545965Y76633D01*
X548018Y75782D01*
X549989D01*
X550894Y74957D01*
X551880Y73712D01*
X551688Y73247D01*
Y71024D01*
X552539Y68971D01*
X554111Y67399D01*
X556165Y66548D01*
X558387D01*
X560441Y67399D01*
X562013Y68971D01*
X562864Y71024D01*
Y73247D01*
X562510Y74102D01*
X564454Y76046D01*
X565308Y75692D01*
X567532D01*
X569585Y76543D01*
X571157Y78115D01*
X572008Y80169D01*
Y82392D01*
X571157Y84445D01*
X569585Y86017D01*
X567532Y86868D01*
X565308D01*
X563255Y86017D01*
X561683Y84445D01*
X560832Y82392D01*
Y80169D01*
X561186Y79314D01*
X559242Y77370D01*
X558387Y77724D01*
X556418D01*
X555512Y78549D01*
X554526Y79795D01*
X554718Y80259D01*
Y82481D01*
X553867Y84535D01*
X552295Y86107D01*
X550242Y86958D01*
D02*
G37*
G36*
X601386Y86433D02*
X599164D01*
X597110Y85582D01*
X595538Y84010D01*
X594687Y81957D01*
Y79734D01*
X595538Y77680D01*
X597110Y76108D01*
X599164Y75257D01*
X601386D01*
X603440Y76108D01*
X605012Y77680D01*
X605863Y79734D01*
Y81957D01*
X605012Y84010D01*
X603440Y85582D01*
X601386Y86433D01*
D02*
G37*
G36*
X575406Y73406D02*
X573182D01*
X571129Y72555D01*
X569557Y70983D01*
X568706Y68930D01*
Y66707D01*
X569557Y64653D01*
X571129Y63081D01*
X573182Y62230D01*
X575406D01*
X577459Y63081D01*
X579031Y64653D01*
X579882Y66707D01*
Y68930D01*
X579031Y70983D01*
X577459Y72555D01*
X575406Y73406D01*
D02*
G37*
G36*
X592932Y72898D02*
X590709D01*
X588655Y72047D01*
X587083Y70475D01*
X586232Y68422D01*
Y66199D01*
X587083Y64145D01*
X588655Y62573D01*
X590709Y61722D01*
X592932D01*
X594985Y62573D01*
X596557Y64145D01*
X597408Y66199D01*
Y68422D01*
X596557Y70475D01*
X594985Y72047D01*
X592932Y72898D01*
D02*
G37*
G36*
X198876Y50038D02*
X196856D01*
X194988Y49265D01*
X193559Y47836D01*
X192786Y45968D01*
Y43948D01*
X193559Y42080D01*
X194988Y40651D01*
X196856Y39878D01*
X198876D01*
X200521Y40559D01*
X203077Y41027D01*
X204506Y39597D01*
X206373Y38824D01*
X208394D01*
X210261Y39597D01*
X211690Y41027D01*
X212464Y42894D01*
Y44915D01*
X211690Y46782D01*
X210261Y48211D01*
X208394Y48984D01*
X206373D01*
X204728Y48303D01*
X202173Y47836D01*
X200744Y49265D01*
X198876Y50038D01*
D02*
G37*
G36*
X335399Y214399D02*
X333176D01*
X331122Y213549D01*
X329550Y211977D01*
X328699Y209923D01*
Y207700D01*
X329550Y205646D01*
X331122Y204074D01*
X333176Y203223D01*
X335399D01*
X337453Y204074D01*
X339025Y205646D01*
X339875Y207700D01*
Y209923D01*
X339025Y211977D01*
X337453Y213549D01*
X335399Y214399D01*
D02*
G37*
G36*
X660496Y212090D02*
X658272D01*
X656219Y211239D01*
X654647Y209667D01*
X653796Y207614D01*
Y205390D01*
X654647Y203337D01*
X656219Y201765D01*
X658272Y200914D01*
X660496D01*
X662549Y201765D01*
X664121Y203337D01*
X664972Y205390D01*
Y207614D01*
X664121Y209667D01*
X662549Y211239D01*
X660496Y212090D01*
D02*
G37*
G36*
X424021Y208788D02*
X421799D01*
X419745Y207937D01*
X418173Y206365D01*
X417322Y204312D01*
Y202089D01*
X418173Y200035D01*
X419745Y198463D01*
X421799Y197612D01*
X424021D01*
X426075Y198463D01*
X427647Y200035D01*
X428498Y202089D01*
Y204312D01*
X427647Y206365D01*
X426075Y207937D01*
X424021Y208788D01*
D02*
G37*
G36*
X396335Y206756D02*
X394113D01*
X392059Y205905D01*
X390487Y204333D01*
X389636Y202279D01*
Y200056D01*
X390487Y198003D01*
X392059Y196431D01*
X394113Y195580D01*
X396335D01*
X398389Y196431D01*
X399961Y198003D01*
X400812Y200056D01*
Y202279D01*
X399961Y204333D01*
X398389Y205905D01*
X396335Y206756D01*
D02*
G37*
G36*
X660117Y192613D02*
X657894D01*
X655840Y191762D01*
X654268Y190190D01*
X653417Y188137D01*
Y185914D01*
X654268Y183860D01*
X655840Y182288D01*
X657894Y181437D01*
X660117D01*
X661005Y181805D01*
X662949Y179861D01*
X662777Y179447D01*
Y177223D01*
X663628Y175170D01*
X664712Y174085D01*
X663628Y173000D01*
X662777Y170947D01*
Y168724D01*
X663628Y166670D01*
X664712Y165585D01*
X663628Y164500D01*
X662777Y162446D01*
Y160224D01*
X663628Y158170D01*
X664712Y157085D01*
X663628Y156000D01*
X662777Y153947D01*
Y151723D01*
X663628Y149670D01*
X664712Y148585D01*
X663628Y147500D01*
X662777Y145447D01*
Y143223D01*
X663628Y141170D01*
X664712Y140085D01*
X663628Y139000D01*
X662777Y136946D01*
Y134724D01*
X663628Y132670D01*
X664712Y131585D01*
X663628Y130500D01*
X662777Y128447D01*
Y126223D01*
X663628Y124170D01*
X664712Y123085D01*
X663628Y122000D01*
X662777Y119946D01*
Y117724D01*
X663628Y115670D01*
X664712Y114585D01*
X663628Y113500D01*
X662777Y111447D01*
Y109223D01*
X663628Y107170D01*
X664712Y106085D01*
X663628Y105000D01*
X662777Y102947D01*
Y100723D01*
X663628Y98670D01*
X664712Y97585D01*
X663628Y96500D01*
X662777Y94446D01*
Y92224D01*
X663628Y90170D01*
X664712Y89085D01*
X663628Y88000D01*
X662777Y85947D01*
Y83723D01*
X663628Y81670D01*
X664712Y80585D01*
X663628Y79500D01*
X662777Y77446D01*
Y75223D01*
X663628Y73170D01*
X664712Y72085D01*
X663628Y71000D01*
X662777Y68946D01*
Y66723D01*
X663628Y64670D01*
X665200Y63098D01*
X667253Y62247D01*
X669476D01*
X671530Y63098D01*
X673102Y64670D01*
X673953Y66723D01*
Y68946D01*
X673102Y71000D01*
X672018Y72085D01*
X673102Y73170D01*
X673953Y75223D01*
Y77446D01*
X673102Y79500D01*
X672018Y80585D01*
X673102Y81670D01*
X673953Y83723D01*
Y85947D01*
X673102Y88000D01*
X672018Y89085D01*
X673102Y90170D01*
X673953Y92224D01*
Y94446D01*
X673102Y96500D01*
X672018Y97585D01*
X673102Y98670D01*
X673953Y100723D01*
Y102947D01*
X673102Y105000D01*
X672018Y106085D01*
X673102Y107170D01*
X673953Y109223D01*
Y111447D01*
X673102Y113500D01*
X672018Y114585D01*
X673102Y115670D01*
X673953Y117724D01*
Y119946D01*
X673102Y122000D01*
X672018Y123085D01*
X673102Y124170D01*
X673953Y126223D01*
Y128447D01*
X673102Y130500D01*
X672018Y131585D01*
X673102Y132670D01*
X673953Y134724D01*
Y136946D01*
X673102Y139000D01*
X672018Y140085D01*
X673102Y141170D01*
X673953Y143223D01*
Y145447D01*
X673102Y147500D01*
X672018Y148585D01*
X673102Y149670D01*
X673953Y151723D01*
Y153947D01*
X673102Y156000D01*
X672018Y157085D01*
X673102Y158170D01*
X673953Y160224D01*
Y162446D01*
X673102Y164500D01*
X672018Y165585D01*
X673102Y166670D01*
X673953Y168724D01*
Y170947D01*
X673102Y173000D01*
X672018Y174085D01*
X673102Y175170D01*
X673953Y177223D01*
Y179447D01*
X673102Y181500D01*
X672018Y182585D01*
X673102Y183670D01*
X673953Y185723D01*
Y187946D01*
X673102Y190000D01*
X671530Y191572D01*
X669476Y192423D01*
X667253D01*
X665200Y191572D01*
X663805Y190178D01*
X663742Y190190D01*
X662170Y191762D01*
X660117Y192613D01*
D02*
G37*
%LPD*%
D51*
X17150Y241300D02*
D03*
Y154900D02*
D03*
Y12700D02*
D03*
Y99100D02*
D03*
D52*
X57150Y241300D02*
D03*
Y154900D02*
D03*
Y12700D02*
D03*
Y99100D02*
D03*
D60*
X644144Y224282D02*
X644398Y224028D01*
X632460Y224536D02*
X632714Y224282D01*
X644144D01*
D61*
X627253Y206883D02*
X659638Y174498D01*
Y26162D02*
Y174498D01*
Y26162D02*
X673100Y12700D01*
D69*
X95250Y139700D02*
D03*
D70*
Y114300D02*
D03*
Y127000D02*
D03*
X361950D02*
D03*
D71*
X349250D02*
D03*
D72*
X342900Y241300D02*
D03*
X647700D02*
D03*
X622300D02*
D03*
X596900D02*
D03*
X571500D02*
D03*
X546100D02*
D03*
X520700D02*
D03*
X495300D02*
D03*
X469900D02*
D03*
X444500D02*
D03*
X419100D02*
D03*
X393700D02*
D03*
X368300D02*
D03*
X317500D02*
D03*
X292100D02*
D03*
X266700D02*
D03*
X241300D02*
D03*
X215900D02*
D03*
X190500D02*
D03*
X165100D02*
D03*
X139700D02*
D03*
X114300D02*
D03*
X88900D02*
D03*
X342900Y12700D02*
D03*
X647700D02*
D03*
X622300D02*
D03*
X596900D02*
D03*
X571500D02*
D03*
X546100D02*
D03*
X520700D02*
D03*
X495300D02*
D03*
X469900D02*
D03*
X444500D02*
D03*
X419100D02*
D03*
X393700D02*
D03*
X368300D02*
D03*
X317500D02*
D03*
X292100D02*
D03*
X266700D02*
D03*
X241300D02*
D03*
X215900D02*
D03*
X190500D02*
D03*
X165100D02*
D03*
X139700D02*
D03*
X114300D02*
D03*
X88900D02*
D03*
D73*
X673100Y241300D02*
D03*
Y12700D02*
D03*
D74*
X373888Y153670D02*
D03*
X381254Y85852D02*
D03*
X526646Y191262D02*
D03*
X500853Y178690D02*
D03*
X492760Y167386D02*
D03*
X477520Y160528D02*
D03*
X482600Y174244D02*
D03*
X203200Y130556D02*
D03*
X235204Y146812D02*
D03*
X233746Y160528D02*
D03*
X79502Y226038D02*
D03*
X445793Y100725D02*
D03*
X373380Y121173D02*
D03*
X429260Y107583D02*
D03*
X623450Y224449D02*
D03*
X203726Y140952D02*
D03*
X247396Y226568D02*
D03*
X238773Y215794D02*
D03*
X140716Y152654D02*
D03*
X114300Y148590D02*
D03*
X157988Y127000D02*
D03*
X156972Y137160D02*
D03*
X114554Y176609D02*
D03*
X92444Y185454D02*
D03*
X109220Y201930D02*
D03*
X79248Y149352D02*
D03*
X72136Y158750D02*
D03*
X118364Y191516D02*
D03*
Y200152D02*
D03*
X92202Y202692D02*
D03*
Y194564D02*
D03*
X315976Y97790D02*
D03*
X117602Y56877D02*
D03*
Y48241D02*
D03*
X92710Y42164D02*
D03*
X93218Y62484D02*
D03*
X476758Y128524D02*
D03*
Y116152D02*
D03*
X518922Y103437D02*
D03*
X197866Y44958D02*
D03*
X207384Y43904D02*
D03*
X529092Y97282D02*
D03*
X497910Y89721D02*
D03*
X491236Y82863D02*
D03*
X515366Y112776D02*
D03*
Y133096D02*
D03*
X426117Y153416D02*
D03*
X415544Y152654D02*
D03*
X405384Y155702D02*
D03*
X121920Y83058D02*
D03*
X80010Y108712D02*
D03*
X71882Y98806D02*
D03*
X114808Y65532D02*
D03*
X114554Y36322D02*
D03*
X76708Y23622D02*
D03*
X248920Y119380D02*
D03*
X249174Y102616D02*
D03*
X248920Y85344D02*
D03*
X410718Y53848D02*
D03*
X209573Y179832D02*
D03*
X395224Y154686D02*
D03*
X177292Y226314D02*
D03*
X117856Y215900D02*
D03*
X186096Y164128D02*
D03*
X204724Y149098D02*
D03*
X240538Y165862D02*
D03*
X194818Y225298D02*
D03*
X209550Y215138D02*
D03*
X334287Y208811D02*
D03*
X395224Y201168D02*
D03*
X462534Y189738D02*
D03*
X558292Y173228D02*
D03*
X422910Y203200D02*
D03*
X549079Y176726D02*
D03*
X513287Y72136D02*
D03*
X574294Y67818D02*
D03*
X557276Y72136D02*
D03*
X429316Y67056D02*
D03*
X677004Y45970D02*
D03*
X644398Y224028D02*
D03*
X632460Y224536D02*
D03*
X659384Y206502D02*
D03*
X608330Y153670D02*
D03*
X635000Y143510D02*
D03*
Y127000D02*
D03*
Y110490D02*
D03*
X608330Y99060D02*
D03*
X579120Y110490D02*
D03*
Y127000D02*
D03*
Y143510D02*
D03*
X659005Y187025D02*
D03*
X668365Y186835D02*
D03*
Y178335D02*
D03*
Y169835D02*
D03*
Y161335D02*
D03*
Y152835D02*
D03*
Y144335D02*
D03*
Y135835D02*
D03*
Y127335D02*
D03*
Y118835D02*
D03*
Y110335D02*
D03*
Y101835D02*
D03*
Y93335D02*
D03*
Y84835D02*
D03*
Y76335D02*
D03*
Y67835D02*
D03*
X566420Y184150D02*
D03*
X651510Y67310D02*
D03*
X642620D02*
D03*
X626110D02*
D03*
X608330D02*
D03*
X591820D02*
D03*
X582930Y186690D02*
D03*
X600710D02*
D03*
X617220D02*
D03*
X633730D02*
D03*
X625335Y172725D02*
D03*
X549130Y81370D02*
D03*
X633730Y81280D02*
D03*
X617220D02*
D03*
X600275Y80845D02*
D03*
X566420Y81280D02*
D03*
X582930D02*
D03*
X608330Y172720D02*
D03*
X591820D02*
D03*
X574040D02*
D03*
D75*
X509778Y181356D02*
D03*
X364848Y152400D02*
D03*
X161544Y177038D02*
D03*
X466598Y114554D02*
D03*
X466852Y130302D02*
D03*
X188468Y40894D02*
D03*
X214630Y39624D02*
D03*
X525272Y131318D02*
D03*
Y114300D02*
D03*
X126746Y38862D02*
D03*
X135636D02*
D03*
X144272D02*
D03*
X128524Y73660D02*
D03*
X138176D02*
D03*
X148336D02*
D03*
X260096Y119380D02*
D03*
X270764D02*
D03*
X289560D02*
D03*
X280416D02*
D03*
X260858Y102616D02*
D03*
X271018D02*
D03*
X290068D02*
D03*
X280670D02*
D03*
X280416Y84836D02*
D03*
X289814D02*
D03*
X270764Y85090D02*
D03*
X260350D02*
D03*
X185928Y189992D02*
D03*
X174752Y190500D02*
D03*
X185420Y201168D02*
D03*
X175006D02*
D03*
X616458Y118872D02*
D03*
X599948Y118364D02*
D03*
X616712Y135128D02*
D03*
X600202D02*
D03*
D76*
X203200Y130556D02*
X207518D01*
X219606Y142644D01*
X646291Y225921D02*
Y239891D01*
X644398Y224028D02*
X646291Y225921D01*
Y239891D02*
X647700Y241300D01*
X627253Y206883D02*
X644398Y224028D01*
X512988Y206883D02*
X627253D01*
X495843Y189738D02*
X512988Y206883D01*
X462534Y189738D02*
X495843D01*
X344424D02*
X462534D01*
X296889D02*
X344424D01*
Y154064D02*
X361707Y136781D01*
Y127243D02*
X361950Y127000D01*
X361707Y127243D02*
Y136781D01*
X344424Y154064D02*
Y189738D01*
X247396Y226568D02*
X260059D01*
X296889Y189738D01*
X234977Y226187D02*
X247015D01*
X219606Y210816D02*
X234977Y226187D01*
X247015D02*
X247396Y226568D01*
X219606Y142644D02*
Y210816D01*
X144272Y38862D02*
X150114D01*
X167132Y55880D01*
X337058Y114808D02*
X349250Y127000D01*
X336804Y114808D02*
X337058D01*
D77*
X167132Y55880D02*
X183134Y71882D01*
X308747D01*
X329184Y92319D01*
Y107188D01*
X336804Y114808D01*
M02*
